<svg width="30" height="30" viewBox="0 0 30 30" xmlns="http://www.w3.org/2000/svg"><g fill="none" fill-rule="evenodd"><rect fill="#FE1F3F" width="30" height="30" rx="15"/><g fill="#FFF"><path d="M8.34 21.783c.99-.442 1.904-.935 2.875-1.267 1.966-.673 3.972-1.229 5.942-1.889 2.225-.746 3.247-2.532 2.822-4.802-.243-1.299-1.039-2.118-2.727-2.81.101-.355.26-.706.294-1.068.15-1.645-.94-2.823-2.768-2.961-1.842-.14-3.564.375-5.143 1.24-1.368.749-2.631 1.684-3.817 2.455.37-2.29 4.37-5.25 7.666-5.484 4.733-.335 8.8 2.333 10.127 6.644 1.295 4.207-.51 8.75-4.345 10.963-3.894 2.246-8.492 1.269-10.926-1.02"/><path d="M6.676 20.261c-.428-.874-.84-1.675-1.205-2.497-.058-.129.032-.425.152-.514a24.688 24.688 0 0 1 9.295-4.275c1.365-.312 2.325.392 2.417 1.63.063.851-.349 1.438-1.109 1.735-.966.377-1.953.708-2.95.998-2.273.662-4.457 1.515-6.6 2.923M5.003 15.974c0-.915-.01-1.673.008-2.43.004-.15.07-.349.18-.442 2.373-2.02 4.869-3.832 8.042-4.42.33-.062.679-.08 1.014-.055.533.04.926.326 1.08.845.156.525-.04.974-.47 1.278-.27.19-.6.317-.92.41-2.467.71-4.81 1.687-6.91 3.17-.668.472-1.273 1.03-2.024 1.644"/></g></g></svg>