<svg width="10" height="10" viewBox="0 0 10 10" xmlns="http://www.w3.org/2000/svg" xmlns:xlink="http://www.w3.org/1999/xlink"><defs><path id="a" d="M2.244 6.596H.127V.204h2.117v6.392z"/></defs><g fill="none" fill-rule="evenodd"><path d="M5.55 3.959c.125-.147.236-.29.36-.421.321-.336.722-.52 1.178-.579.444-.058.88-.022 1.303.135.498.184.872.514 1.127.977.3.544.386 1.137.388 1.747.002 1.19 0 2.382 0 3.572l-.003.076H7.782v-.108c-.001-1.14 0-2.28-.005-3.418a1.814 1.814 0 0 0-.17-.803c-.185-.377-.532-.543-.946-.524a1.076 1.076 0 0 0-.753.33c-.203.21-.338.456-.35.755a7.035 7.035 0 0 0-.008.293v3.473H3.432v-6.38h.085c.647 0 1.294 0 1.94-.003.076 0 .096.022.095.096-.005.232-.002.465-.002.698v.084z" fill="#FFF"/><g transform="translate(0 2.877)"><mask id="b" fill="#fff"><use xlink:href="#a"/></mask><path d="M2.244.21v6.384H2.16c-.647 0-1.293-.001-1.94.002-.076 0-.094-.023-.094-.096.002-2.067.002-4.133 0-6.2C.126.227.143.204.22.204c.646.003 1.293.002 1.94.002.026 0 .052.003.083.004" fill="#FFF" mask="url(#b)"/></g><path d="M1.18 2.212C.761 2.203.404 2.066.17 1.699-.182 1.146.01.3.77.072c.406-.121.804-.1 1.16.145.364.25.5.618.446 1.047-.053.427-.298.72-.703.862-.156.055-.325.072-.488.106a.55.55 0 0 0-.005-.02" fill="#FFF"/></g></svg>