<svg width="12" height="13" viewBox="0 0 12 13" xmlns="http://www.w3.org/2000/svg"><g fill="#FFF" fill-rule="evenodd"><path d="M5.998.024C4.37.024 4.165.031 3.525.06 2.887.09 2.451.192 2.07.342a2.938 2.938 0 0 0-1.062.698 2.97 2.97 0 0 0-.692 1.072c-.148.385-.25.825-.279 1.47-.03.645-.036.85-.036 2.495 0 1.644.007 1.85.036 2.495.03.645.13 1.085.279 1.47.153.398.358.735.692 1.072.333.336.668.543 1.062.698.382.15.818.252 1.456.281.64.03.844.037 2.473.037 1.63 0 1.833-.007 2.473-.037.639-.03 1.075-.132 1.456-.281a2.938 2.938 0 0 0 1.062-.698 2.97 2.97 0 0 0 .692-1.072c.149-.385.25-.825.28-1.47.028-.645.035-.851.035-2.495 0-1.644-.007-1.85-.036-2.496-.029-.644-.13-1.084-.279-1.469a2.97 2.97 0 0 0-.692-1.072A2.938 2.938 0 0 0 9.927.342C9.546.192 9.11.09 8.471.06 7.831.031 7.627.024 5.998.024m0 1.09c1.602 0 1.791.007 2.424.036.585.027.902.125 1.114.208.28.11.48.241.69.453.21.212.34.414.448.696.082.213.18.534.207 1.124.028.638.034.83.034 2.446s-.006 1.807-.034 2.446c-.027.59-.125.91-.207 1.124a1.877 1.877 0 0 1-.449.695 1.86 1.86 0 0 1-.69.453c-.21.083-.528.182-1.113.209-.633.029-.822.035-2.424.035-1.602 0-1.791-.006-2.424-.035-.584-.027-.902-.126-1.113-.209-.28-.11-.48-.24-.69-.453a1.877 1.877 0 0 1-.449-.695c-.082-.214-.18-.534-.206-1.124-.03-.639-.035-.83-.035-2.446s.006-1.808.035-2.446c.026-.59.124-.91.206-1.124.109-.282.239-.484.449-.696.21-.212.41-.343.69-.453.21-.083.529-.181 1.113-.208.633-.03.823-.035 2.424-.035"/><path d="M5.998 8.094c-1.104 0-2-.903-2-2.017 0-1.115.896-2.018 2-2.018s2 .903 2 2.018a2.009 2.009 0 0 1-2 2.017m0-5.125c-1.701 0-3.08 1.391-3.08 3.108 0 1.716 1.379 3.108 3.08 3.108s3.08-1.392 3.08-3.108c0-1.717-1.379-3.108-3.08-3.108m3.922-.123a.723.723 0 0 1-.72.726.723.723 0 0 1-.72-.726c0-.401.322-.727.72-.727.397 0 .72.326.72.727"/></g></svg>