<svg width="8" height="12" viewBox="0 0 8 12" xmlns="http://www.w3.org/2000/svg"><path d="M3.666 6.193c1.803 0 3.265-1.388 3.265-3.096C6.931 1.39 5.467 0 3.665 0S.4 1.39.4 3.097c0 1.708 1.464 3.096 3.266 3.096zm0-4.378c.746 0 1.352.575 1.352 1.282 0 .707-.608 1.282-1.353 1.282s-1.352-.576-1.352-1.282c0-.707.607-1.282 1.352-1.282zm3.518 4.908a.986.986 0 0 0-1.318-.286 4.347 4.347 0 0 1-4.4 0 .986.986 0 0 0-1.319.286.88.88 0 0 0 .3 1.251 6.3 6.3 0 0 0 1.897.747L.519 10.452a.873.873 0 0 0 0 1.283.981.981 0 0 0 .676.265.99.99 0 0 0 .678-.266l1.793-1.701 1.795 1.7a.993.993 0 0 0 1.353 0 .874.874 0 0 0 0-1.283L4.987 8.72a6.297 6.297 0 0 0 1.897-.747.878.878 0 0 0 .3-1.25z" fill="#FFF" fill-rule="evenodd"/></svg>