<svg width="13" height="12" viewBox="0 0 13 12" xmlns="http://www.w3.org/2000/svg" xmlns:xlink="http://www.w3.org/1999/xlink"><defs><path id="a" d="M12.313 11.995V0H0v11.995h12.313z"/></defs><g fill="none" fill-rule="evenodd"><mask id="b" fill="#fff"><use xlink:href="#a"/></mask><path d="M4.565 11.167c.04-.048.072-.078.096-.112.09-.132.182-.264.268-.399.183-.286.366-.573.541-.864.115-.193.083-.31-.1-.44a.907.907 0 0 0-.101-.063c-.4-.211-.8-.422-1.2-.63a.647.647 0 0 0-.157-.058c-.167-.037-.284.044-.283.215.002.125.018.26.067.373.28.654.57 1.303.869 1.978zm4.982-8.598l.025.028c-.082.096-.162.194-.248.286L5.14 7.364a2.06 2.06 0 0 0-.142.164c-.212.281-.139.605.172.766.092.048.186.094.282.133l2.517 1.01c.378.153.754.31 1.14.468.018-.053.035-.097.047-.142.762-2.795 1.524-5.59 2.282-8.385.03-.11.041-.23.033-.343-.011-.145-.13-.23-.273-.2-.104.021-.21.056-.304.106a8997.594 8997.594 0 0 0-9.73 5.101 1.03 1.03 0 0 0-.242.174c-.13.128-.12.292.023.406.073.06.16.107.248.143.396.161.79.33 1.194.471.53.185 1.042.118 1.488-.228 1.038-.806 2.065-1.626 3.098-2.44.805-.634 1.612-1.268 2.419-1.9.048-.039.103-.067.155-.1zm2.766-1.286c-.216.807-.43 1.614-.649 2.42A3065.09 3065.09 0 0 1 9.997 9.83a2.31 2.31 0 0 1-.195.514c-.213.382-.647.492-1.05.32-.777-.332-1.56-.645-2.342-.965-.01-.005-.023-.004-.044-.008-.008.03-.013.06-.022.088-.044.129-.066.27-.136.382-.311.5-.62 1-.96 1.48-.419.59-1.223.381-1.457-.174-.29-.686-.61-1.358-.89-2.047-.17-.418-.167-.846.106-1.251-.132-.01-.259-.006-.38-.03a3.65 3.65 0 0 1-.579-.148c-.449-.17-.896-.345-1.335-.54C.347 7.288.101 7.008.02 6.6.017 6.59.007 6.582 0 6.573V6.26c.02-.064.038-.13.06-.193.127-.374.41-.6.745-.775L10.488.22a2.25 2.25 0 0 1 .397-.165c.528-.158 1.03.038 1.286.503.065.12.095.259.142.39v.336z" fill="#FFF" mask="url(#b)"/></g></svg>