<svg width="13" height="10" viewBox="0 0 13 10" xmlns="http://www.w3.org/2000/svg"><path d="M12.298 1.187a5.002 5.002 0 0 1-1.45.398c.527-.315.922-.81 1.11-1.396a5.06 5.06 0 0 1-1.601.613 2.522 2.522 0 0 0-4.3 2.3A7.163 7.163 0 0 1 .857.467a2.522 2.522 0 0 0 .78 3.37 2.522 2.522 0 0 1-1.143-.315v.031c0 1.2.845 2.235 2.022 2.474-.371.1-.76.115-1.138.043a2.526 2.526 0 0 0 2.357 1.753A5.064 5.064 0 0 1 0 8.865 7.143 7.143 0 0 0 3.868 10c4.64 0 7.179-3.846 7.179-7.18 0-.109-.003-.218-.009-.327a5.088 5.088 0 0 0 1.26-1.305" fill="#FFF" fill-rule="evenodd"/></svg>