<svg width="10" height="10" viewBox="0 0 10 10" xmlns="http://www.w3.org/2000/svg"><path d="M8.467 5.325c-.418-.409-.712-.676-1.427-.807v-.053c.507-.206.902-.493 1.178-.863.277-.37.425-.82.418-1.28a2.05 2.05 0 0 0-.305-1.112c-.203-.322-.51-.582-.924-.773a4.21 4.21 0 0 0-1.21-.356C5.79.025 4.877 0 4 0H0v10h4.527c.79 0 1.443-.062 1.958-.188A4.312 4.312 0 0 0 7.9 9.18c.37-.253.662-.566.873-.95a2.61 2.61 0 0 0 .318-1.296c0-.666-.21-1.202-.625-1.61h.001zM2.731 1.99H3.94c.424 0 .773.046 1.045.14.315.134.473.408.473.823 0 .375-.118.636-.358.784-.24.146-.55.22-.935.22H2.731V1.99zm2.525 5.866c-.213.104-.51.157-.893.157H2.73v-2.38h1.66c.38.005.675.055.885.153.375.172.563.492.563.956 0 .549-.195.92-.582 1.114z" fill="#FFF" fill-rule="evenodd"/></svg>