<?xml version="1.0" encoding="UTF-8"?>
<svg width="160px" height="98px" viewBox="0 0 160 98" version="1.1" xmlns="http://www.w3.org/2000/svg" xmlns:xlink="http://www.w3.org/1999/xlink">
    <!-- Generator: Sketch 45.2 (43514) - http://www.bohemiancoding.com/sketch -->
    <title>Group 2</title>
    <desc>Created with Sketch.</desc>
    <defs>
        <radialGradient cx="81.5353329%" cy="39.9106235%" fx="81.5353329%" fy="39.9106235%" r="107.845456%" gradientTransform="translate(0.815353,0.399106),scale(1.000000,0.999402),translate(-0.815353,-0.399106)" id="radialGradient-1">
            <stop stop-color="#FFFFFF" offset="0%"></stop>
            <stop stop-color="#FFFFFF" offset="46%"></stop>
            <stop stop-color="#FFFFFF" offset="54%"></stop>
            <stop stop-color="#F7F6F6" offset="59%"></stop>
            <stop stop-color="#E0DFDE" offset="67%"></stop>
            <stop stop-color="#BAB9B7" offset="78%"></stop>
            <stop stop-color="#878481" offset="89%"></stop>
            <stop stop-color="#534F4B" offset="100%"></stop>
        </radialGradient>
    </defs>
    <g id="Page-1" stroke="none" stroke-width="1" fill="none" fill-rule="evenodd">
        <g id="company" transform="translate(-560.000000, -2880.000000)" fill-rule="nonzero">
            <g id="Group-2" transform="translate(560.000000, 2880.000000)">
                <g id="logo_black">
                    <path d="M4.70102072,51.7869114 C3.52065435,51.8076398 2.34029207,51.7452964 1.16861532,51.60034 C0.663985978,51.60034 0.451510465,51.3338093 0.451510465,50.8007479 L0.451510465,36.2748258 C0.420243073,36.0733946 0.478944141,35.8683658 0.611989542,35.7143107 C0.745034943,35.5602556 0.938926013,35.4728045 1.14205588,35.4752337 C2.28867986,35.3494906 3.44133384,35.2872058 4.59478297,35.2886622 C8.04751005,35.2886622 10.9690484,36.1948666 10.9690484,39.499847 L10.9690484,39.8463369 C11.0220934,41.3673778 10.0872258,42.7476641 8.65837715,43.2579296 C10.1555175,43.7745012 11.1378541,45.2152852 11.0752861,46.8027877 L11.0752861,47.1759306 C11.0487267,50.827401 7.96783174,51.7869114 4.70102072,51.7869114 Z M8.97709042,39.499847 C8.97709042,37.4209077 7.25072688,36.9678055 4.59478297,36.9678055 L2.4434684,36.9678055 L2.4434684,42.2984192 L5.78995773,42.2984192 C8.31310444,42.2984192 8.97709042,41.072378 8.97709042,39.6331124 L8.97709042,39.499847 Z M8.97709042,46.8027877 C8.97709042,45.363522 8.25998557,44.1374809 5.71027941,44.1374809 L2.4434684,44.1374809 L2.4434684,50.1344212 C3.16057325,50.1344212 3.93079699,50.1344212 4.70102072,50.1344212 C7.35696464,50.1344212 9.05676874,49.5480537 9.05676874,47.2025837 L8.97709042,46.8027877 Z" id="Shape" fill="#393939"></path>
                    <path d="M21.6459429,46.2430733 L14.3686566,46.2430733 L14.3686566,46.536257 C14.3686566,49.2015638 15.4044747,50.0811151 17.3964326,50.0811151 C18.6833785,50.0934956 19.9697737,50.0222719 21.2475513,49.8678905 L21.2475513,49.8678905 C21.3321446,49.8605193 21.4161717,49.8873281 21.480992,49.9423694 C21.5458123,49.9974107 21.5860663,50.0761337 21.592824,50.1610743 L21.592824,50.9073602 C21.592824,51.2005439 21.592824,51.3338093 21.167873,51.4137685 C19.8907153,51.6660125 18.5918461,51.7910007 17.2901949,51.7869114 C15.874875,51.9231733 14.4770265,51.3903493 13.5087502,50.3455217 C12.540474,49.3006941 12.1121819,47.8630039 12.3501392,46.4562978 L12.3501392,44.4839708 C12.2187331,43.1354748 12.6920147,41.7982182 13.6415815,40.8350021 C14.5911483,39.8717861 15.9185413,39.3824848 17.2636354,39.499847 C18.6124854,39.3994574 19.9345286,39.9148078 20.8621645,40.9026026 C21.7898005,41.8903974 22.2241112,43.2453036 22.0443345,44.590583 L22.0443345,45.763318 C22.0443345,46.0565018 21.9115373,46.2430733 21.6459429,46.2430733 Z M20.1320549,44.590583 C20.1320549,42.1385008 19.2024745,41.1789903 17.2901949,41.1789903 C15.3779152,41.1789903 14.3686566,42.245113 14.3686566,44.590583 L14.3686566,44.7771545 L20.1320549,44.7771545 L20.1320549,44.590583 Z" id="Shape" fill="#393939"></path>
                    <path d="M31.2870193,51.626993 L30.2777606,51.626993 C30.0430666,51.626993 29.8528096,51.4360653 29.8528096,51.2005439 L29.8528096,50.6408295 C28.8534106,51.2922989 27.6971627,51.6606557 26.5063202,51.7069522 C25.5370221,51.8300618 24.565477,51.4963801 23.8746121,50.8030797 C23.1837473,50.1097794 22.8512377,49.1348093 22.9739148,48.1620942 L22.9739148,47.9755227 C22.9739148,45.6300527 24.3284462,44.4306646 28.2858027,44.4306646 L29.879369,44.4306646 L29.879369,43.5511134 C29.879369,41.7120517 29.2419425,41.0990311 27.5421384,41.0990311 C26.433014,41.1032083 25.3248629,41.1654835 24.2222085,41.2856026 L24.2222085,41.2856026 C24.0362924,41.2856026 23.8238169,41.2856026 23.8238169,40.9391127 L23.8238169,40.1661737 C23.8238169,39.9262961 23.9831735,39.7930308 24.2753274,39.7397246 C25.3884511,39.5392489 26.517481,39.4411142 27.6483761,39.4465409 C30.6761522,39.4465409 31.8713269,40.9657658 31.8713269,43.5511134 L31.8713269,51.1738909 C31.8926242,51.3256107 31.8311787,51.4771345 31.7103657,51.5708191 C31.5895527,51.6645037 31.427944,51.6859476 31.2870193,51.626993 Z M29.7996907,45.8166242 L28.2061243,45.8166242 C25.5501804,45.8166242 24.8861945,46.4029917 24.8861945,47.9488696 L24.8861945,48.2154003 C24.8861945,49.7879313 25.6298587,50.1877273 26.8781524,50.1877273 C27.9114183,50.1530874 28.918055,49.8500318 29.7996907,49.3081761 L29.7996907,45.8166242 Z" id="Shape" fill="#393939"></path>
                    <path d="M42.4951026,51.626993 L41.4061656,51.626993 C41.1714716,51.626993 40.9812146,51.4360653 40.9812146,51.2005439 L40.9812146,50.7740948 C39.9468249,51.4279484 38.7509529,51.7787433 37.5284875,51.7869114 C34.8725436,51.7869114 33.7570471,50.1610743 33.7570471,47.2558899 L33.7570471,39.9796022 C33.7701667,39.7497551 33.9529584,39.566319 34.1819981,39.5531532 L35.2178163,39.5531532 C35.4525102,39.5531532 35.6427673,39.7440809 35.6427673,39.9796022 L35.6427673,47.1492776 C35.6427673,49.3348292 36.3864316,50.0278089 38.0331168,50.0278089 C39.0580402,49.9650256 40.0561109,49.6736542 40.9546551,49.1749108 L40.9546551,39.9796022 C40.9677747,39.7497551 41.1505664,39.566319 41.3796061,39.5531532 L42.4951026,39.5531532 C42.7193651,39.5672461 42.8939334,39.7541088 42.8934942,39.9796022 L42.8934942,51.0939317 C42.9258508,51.2194389 42.8995599,51.3529018 42.8220494,51.4566134 C42.744539,51.5603251 42.6242262,51.6230229 42.4951026,51.626993 Z" id="Shape" fill="#393939"></path>
                    <path d="M46.87741,51.626993 L45.7353542,51.626993 C45.5110917,51.6129001 45.3365233,51.4260374 45.3369626,51.2005439 L45.3369626,35.6618052 C45.3296005,35.5512353 45.3683006,35.4425589 45.4438263,35.3617142 C45.519352,35.2808695 45.6249273,35.2351096 45.7353542,35.2353561 L46.87741,35.2353561 C46.987837,35.2351096 47.0934122,35.2808695 47.1689379,35.3617142 C47.2444636,35.4425589 47.2831637,35.5512353 47.2758016,35.6618052 L47.2758016,51.2005439 C47.2762409,51.4260374 47.1016725,51.6129001 46.87741,51.626993 Z" id="Shape" fill="#393939"></path>
                    <path d="M51.1269203,37.7140914 L50.0114239,37.7140914 C49.7767299,37.7140914 49.5864728,37.5231637 49.5864728,37.2876424 L49.5864728,35.5551929 C49.5864728,35.3196716 49.7767299,35.1287438 50.0114239,35.1287438 L51.1269203,35.1287438 C51.3616143,35.1287438 51.5518713,35.3196716 51.5518713,35.5551929 L51.5518713,37.3142954 C51.5378279,37.5393485 51.3516216,37.7145323 51.1269203,37.7140914 Z M51.1269203,51.626993 L50.0911022,51.626993 C49.8564082,51.626993 49.6661511,51.4360653 49.6661511,51.2005439 L49.6661511,39.9796022 C49.6661511,39.7440809 49.8564082,39.5531532 50.0911022,39.5531532 L51.1269203,39.5531532 C51.3616143,39.5531532 51.5518713,39.7440809 51.5518713,39.9796022 L51.5518713,51.0939317 C51.5898633,51.2338437 51.554402,51.3835419 51.4577338,51.4913297 C51.3610655,51.5991176 51.2164398,51.6502214 51.0738014,51.626993 L51.1269203,51.626993 Z" id="Shape" fill="#393939"></path>
                    <path d="M62.6802763,46.2430733 L55.40299,46.2430733 L55.40299,46.536257 C55.40299,49.2015638 56.4122487,50.0811151 58.4307661,50.0811151 C59.7271401,50.0855827 61.022432,50.0054545 62.3084442,49.8412375 L62.3084442,49.8412375 C62.3930374,49.8338663 62.4770646,49.860675 62.5418849,49.9157163 C62.6067052,49.9707576 62.6469592,50.0494806 62.6537169,50.1344212 L62.6537169,50.8807071 C62.6537169,51.1738909 62.6537169,51.3071562 62.2287659,51.3871154 C60.9516081,51.6393595 59.652739,51.7643476 58.3510877,51.7602584 C56.9357679,51.8965203 55.5379193,51.3636962 54.5696431,50.3188686 C53.6013669,49.274041 53.1730748,47.8363508 53.4110321,46.4296447 L53.4110321,44.4573177 C53.2829938,43.0928126 53.7736359,41.7429259 54.7470452,40.7815905 C55.7204545,39.8202551 57.0732768,39.3495432 58.4307661,39.499847 C59.7796161,39.3994574 61.1016592,39.9148078 62.0292952,40.9026026 C62.9569311,41.8903974 63.3912418,43.2453036 63.2114651,44.590583 L63.2114651,45.763318 C63.0786679,46.0565018 62.9458707,46.2430733 62.6802763,46.2430733 Z M61.08671,44.590583 C61.08671,42.1385008 60.1571296,41.1789903 58.24485,41.1789903 C56.3325704,41.1789903 55.3233117,42.245113 55.3233117,44.590583 L55.3233117,44.7771545 L61.08671,44.7771545 L61.08671,44.590583 Z" id="Shape" fill="#393939"></path>
                    <path d="M73.5430869,51.626993 L72.4541499,51.626993 C72.2194559,51.626993 72.0291989,51.4360653 72.0291989,51.2005439 L72.0291989,50.7740948 C70.9953973,51.4292575 69.7991444,51.7801641 68.5764718,51.7869114 C65.9205279,51.7869114 64.8050314,50.1610743 64.8050314,47.2558899 L64.8050314,39.9796022 C64.8050314,39.7440809 64.9952885,39.5531532 65.2299825,39.5531532 L66.3985978,39.5531532 C66.6276375,39.566319 66.8104293,39.7497551 66.8235488,39.9796022 L66.8235488,47.1492776 C66.8235488,49.3348292 67.5672131,50.0278089 69.2138983,50.0278089 C70.2389758,49.9659166 71.2372387,49.6744891 72.1354366,49.1749108 L72.1354366,39.9796022 C72.1485562,39.7497551 72.3313479,39.566319 72.5603877,39.5531532 L73.6227652,39.5531532 C73.8470277,39.5672461 74.0215961,39.7541088 74.0211568,39.9796022 L74.0211568,51.0939317 C74.0591488,51.2338437 74.0236875,51.3835419 73.9270193,51.4913297 C73.830351,51.5991176 73.6857253,51.6502214 73.5430869,51.626993 Z" id="Shape" fill="#393939"></path>
                    <path d="M2.23099289,72.2298147 L1.03581813,72.2298147 C0.811555631,72.2157218 0.636987266,72.0288591 0.637426539,71.8033656 L0.637426539,56.4511984 C0.613189764,56.3321714 0.644198811,56.2085426 0.721699409,56.115214 C0.799200007,56.0218855 0.914783135,55.9689835 1.03581813,55.9714431 L2.23099289,55.9714431 C2.3414198,55.9711966 2.44699504,56.0169565 2.52252074,56.0978012 C2.59804643,56.178646 2.63674656,56.2873223 2.62938447,56.3978922 L2.62938447,71.7500595 C2.6443146,71.8675634 2.60986964,71.9860049 2.53430283,72.0770048 C2.45873601,72.1680046 2.34885679,72.2233626 2.23099289,72.2298147 Z" id="Shape" fill="#393939"></path>
                    <path d="M13.6249923,72.2298147 L12.5891741,72.2298147 C12.3544802,72.2298147 12.1642231,72.038887 12.1642231,71.8033656 L12.1642231,64.6070372 C12.1642231,62.3948326 11.4205588,61.7285059 9.7738736,61.7285059 C8.73972117,61.786448 7.73195756,62.0779986 6.82577585,62.581404 L6.82577585,71.7767126 C6.81265628,72.0065597 6.62986457,72.1899958 6.40082483,72.2031617 L5.31188782,72.2031617 C5.07719385,72.2031617 4.8869368,72.0122339 4.8869368,71.7767126 L4.8869368,60.6623831 C4.8869368,60.4268618 5.07719385,60.235934 5.31188782,60.235934 L6.40082483,60.235934 C6.62508732,60.250027 6.79965569,60.4368897 6.79921641,60.6623831 L6.79921641,61.0888322 C7.83418839,60.4362768 9.02968414,60.0855923 10.2519435,60.0760156 C12.9078874,60.0760156 14.0233839,61.7018528 14.0233839,64.6070372 L14.0233839,71.7767126 C14.0306523,71.8898677 13.9927151,72.0012688 13.9179573,72.0862929 C13.8431996,72.171317 13.7377774,72.2229627 13.6249923,72.2298147 Z" id="Shape" fill="#393939"></path>
                    <path d="M21.6459429,72.2831209 C21.1772421,72.3143504 20.7069934,72.3143504 20.2382926,72.2831209 C18.2463347,72.2831209 17.2901949,71.7500595 17.2901949,69.3512834 L17.2901949,61.8617712 L15.1919992,61.6218936 C14.9529642,61.6218936 14.7670481,61.4619752 14.7670481,61.2220976 L14.7670481,60.6357301 C14.7577241,60.5222551 14.8005379,60.4107174 14.8833113,60.3328437 C14.9660847,60.2549701 15.0797588,60.2192832 15.1919992,60.235934 L17.2901949,60.235934 L17.2901949,58.1036886 C17.3016498,57.883088 17.4699561,57.7029284 17.6885865,57.6772395 L18.8040829,57.490668 L18.8040829,57.490668 C18.8957586,57.4974711 18.9809462,57.5406803 19.0407709,57.6107218 C19.1005956,57.6807633 19.1301177,57.7718539 19.1227962,57.863811 L19.1227962,60.235934 L21.4600268,60.235934 C21.6947208,60.235934 21.8849778,60.4268618 21.8849778,60.6623831 L21.8849778,61.3020568 C21.8849778,61.5375781 21.6947208,61.7285059 21.4600268,61.7285059 L19.2024745,61.7285059 L19.2024745,69.3512834 C19.2024745,70.5506714 19.4946283,70.7372429 20.3710898,70.7372429 L21.592824,70.7372429 C21.8849778,70.7372429 22.0443345,70.7372429 22.0443345,71.0304267 L22.0443345,71.963284 C22.0443345,71.963284 21.9380967,72.2298147 21.6459429,72.2831209 Z" id="Shape" fill="#393939"></path>
                    <path d="M32.0041241,66.845895 L24.7268378,66.845895 L24.7268378,67.1390787 C24.7268378,69.8043855 25.7626559,70.6839368 27.7546139,70.6839368 C29.0509858,70.6883293 30.3462727,70.6082013 31.632292,70.4440592 L31.632292,70.4440592 C31.7168852,70.436688 31.8009124,70.4634967 31.8657327,70.518538 C31.930553,70.5735793 31.970807,70.6523023 31.9775647,70.7372429 L31.9775647,71.4835288 C31.9775647,71.7767126 31.9775647,71.9099779 31.5526137,71.9899371 C30.2756334,72.2433987 28.9766432,72.3683985 27.6749356,72.3630801 C26.2596157,72.499342 24.8617672,71.9665179 23.8934909,70.9216903 C22.9252147,69.8768627 22.4969226,68.4391725 22.7348799,67.0324664 L22.7348799,65.0601394 C22.5728308,63.7092588 23.0206888,62.3563691 23.956017,61.3713281 C24.8913453,60.386287 26.2163137,59.8721242 27.5686978,59.9694034 C28.9175478,59.8690137 30.239591,60.3843641 31.1672269,61.3721589 C32.0948629,62.3599538 32.5291735,63.7148599 32.3493968,65.0601394 L32.3493968,66.2328744 C32.4113088,66.3592786 32.4070327,66.5082077 32.3379708,66.6308248 C32.268909,66.7534419 32.1439701,66.8339298 32.0041241,66.845895 L32.0041241,66.845895 Z M30.4902361,65.1934047 C30.4902361,62.7413225 29.5606557,61.781812 27.6483761,61.781812 C25.7360965,61.781812 24.7268378,62.8479347 24.7268378,65.1934047 L24.7268378,65.3799762 L30.4902361,65.3799762 L30.4902361,65.1934047 Z" id="Shape" fill="#393939"></path>
                    <path d="M39.1220538,61.7285059 C38.0556764,61.7350023 37.0137338,62.0496124 36.1208372,62.6347102 L36.1208372,71.7767126 C36.1077176,72.0065597 35.9249259,72.1899958 35.6958862,72.2031617 L34.5272709,72.2031617 C34.2925769,72.2031617 34.1023198,72.0122339 34.1023198,71.7767126 L34.1023198,60.6623831 C34.1023198,60.4268618 34.2925769,60.235934 34.5272709,60.235934 L35.5365295,60.235934 C35.7712235,60.235934 35.9614806,60.4268618 35.9614806,60.6623831 L35.9614806,61.1154853 C36.8476348,60.4597024 37.9149576,60.0964647 39.0158161,60.0760156 C39.3345293,60.0760156 39.4673265,60.0760156 39.4673265,60.4758117 L39.4673265,61.3020568 C39.5735643,61.6218936 39.4407671,61.7285059 39.1220538,61.7285059 Z" id="Shape" fill="#393939"></path>
                    <path d="M49.7458295,72.2298147 L48.7100113,72.2298147 C48.4809716,72.2166489 48.2981799,72.0332128 48.2850603,71.8033656 L48.2850603,64.6070372 C48.2850603,62.3948326 47.541396,61.7285059 45.8947108,61.7285059 C44.8694784,61.7895 43.871021,62.0809842 42.9731725,62.581404 L42.9731725,71.7767126 C42.9600529,72.0065597 42.7772612,72.1899958 42.5482215,72.2031617 L41.4858439,72.2031617 C41.2615814,72.1890687 41.087013,72.002206 41.0874523,71.7767126 L41.0874523,60.6623831 C41.087013,60.4368897 41.2615814,60.250027 41.4858439,60.235934 L42.4951026,60.235934 C42.7297966,60.235934 42.9200536,60.4268618 42.9200536,60.6623831 L42.9200536,61.0888322 C43.9538552,60.4336696 45.1501081,60.0827629 46.3727807,60.0760156 C49.0287246,60.0760156 50.1442211,61.7018528 50.1442211,64.6070372 L50.1442211,71.7767126 C50.1514895,71.8898677 50.1135523,72.0012688 50.0387945,72.0862929 C49.9640368,72.171317 49.8586146,72.2229627 49.7458295,72.2298147 Z" id="Shape" fill="#393939"></path>
                    <path d="M60.183689,72.2298147 L59.1744304,72.2298147 C58.9453906,72.2166489 58.7625989,72.0332128 58.7494793,71.8033656 L58.7494793,71.3236104 C57.7500804,71.9750798 56.5938324,72.3434366 55.40299,72.3897331 C54.4336919,72.5128427 53.4621468,72.179161 52.7712819,71.4858606 C52.080417,70.7925603 51.7479075,69.8175902 51.8705846,68.8448751 L51.8705846,68.5783444 C51.8705846,66.2328744 53.225116,65.0334863 57.1824724,65.0334863 L58.8025982,65.0334863 L58.8025982,64.1539351 C58.8025982,62.3148734 58.1651717,61.7018528 56.491927,61.7018528 C55.3828026,61.70603 54.2746516,61.7683052 53.1719971,61.8884243 L53.1719971,61.8884243 C52.986081,61.8884243 52.7736055,61.8884243 52.7736055,61.5419344 L52.7736055,60.7689954 C52.7736055,60.5291178 52.9329622,60.3958525 53.225116,60.3425463 C54.3384499,60.1436636 55.4673355,60.0455414 56.5981648,60.0493626 C59.6259408,60.0493626 60.8211156,61.5685875 60.8211156,64.1539351 L60.8211156,71.7500595 C60.8466182,71.9154269 60.7792219,72.0814376 60.6458233,72.1818392 C60.5124247,72.2822408 60.3347433,72.3006865 60.183689,72.2298147 Z M58.6963604,66.4194459 L57.1027941,66.4194459 C54.4468502,66.4194459 53.7828642,67.0058134 53.7828642,68.5516913 L53.7828642,68.818222 C53.7828642,70.390753 54.5265285,70.790549 55.7748221,70.790549 C56.8080881,70.7559091 57.8147247,70.4528535 58.6963604,69.9109978 L58.6963604,66.4194459 Z" id="Shape" fill="#393939"></path>
                    <path d="M68.2577585,72.2831209 C67.7890578,72.3143504 67.318809,72.3143504 66.8501083,72.2831209 C64.8581503,72.2831209 63.9020105,71.7500595 63.9020105,69.3512834 L63.9020105,61.8617712 L61.8038148,61.6218936 C61.5647799,61.6218936 61.4054232,61.4619752 61.4054232,61.2220976 L61.4054232,60.6357301 C61.3973951,60.527428 61.4367828,60.4209897 61.5133058,60.3441969 C61.5898288,60.2674042 61.6958932,60.2278776 61.8038148,60.235934 L63.9020105,60.235934 L63.9020105,58.1036886 C63.9134654,57.883088 64.0817718,57.7029284 64.3004021,57.6772395 L65.442458,57.490668 L65.442458,57.490668 C65.5341337,57.4974711 65.6193213,57.5406803 65.679146,57.6107218 C65.7389707,57.6807633 65.7684928,57.7718539 65.7611713,57.863811 L65.7611713,60.235934 L68.1249613,60.235934 C68.3596553,60.235934 68.5499124,60.4268618 68.5499124,60.6623831 L68.5499124,61.3020568 C68.5499124,61.5375781 68.3596553,61.7285059 68.1249613,61.7285059 L65.7611713,61.7285059 L65.7611713,69.3512834 C65.7611713,70.5506714 66.0798845,70.7372429 66.9297866,70.7372429 L68.1515208,70.7372429 C68.4436746,70.7372429 68.6030312,70.7372429 68.6030312,71.0304267 L68.6030312,71.963284 C68.6295907,71.963284 68.5233529,72.2298147 68.2577585,72.2831209 Z" id="Shape" fill="#393939"></path>
                    <path d="M71.7104856,58.3169131 L70.5949892,58.3169131 C70.3602952,58.3169131 70.1700381,58.1259854 70.1700381,57.890464 L70.1700381,56.1580146 C70.1700381,55.9224933 70.3602952,55.7315655 70.5949892,55.7315655 L71.7104856,55.7315655 C71.9451796,55.7315655 72.1354366,55.9224933 72.1354366,56.1580146 L72.1354366,57.890464 C72.1354366,58.1259854 71.9451796,58.3169131 71.7104856,58.3169131 Z M71.7104856,72.2298147 L70.6746675,72.2298147 C70.4456278,72.2166489 70.262836,72.0332128 70.2497165,71.8033656 L70.2497165,60.6623831 C70.262836,60.432536 70.4456278,60.2490999 70.6746675,60.235934 L71.7104856,60.235934 C71.9451796,60.235934 72.1354366,60.4268618 72.1354366,60.6623831 L72.1354366,71.7767126 C72.1358511,72.0169043 71.9494196,72.2156861 71.7104856,72.2298147 L71.7104856,72.2298147 Z" id="Shape" fill="#393939"></path>
                    <path d="M78.9080936,72.3897331 C77.519255,72.4601245 76.1719712,71.9027667 75.2360347,70.8706393 C74.3000982,69.8385119 73.8738471,68.4400597 74.0742757,67.0591195 L74.0742757,65.4066293 C73.8802922,63.5521664 74.7568626,61.7489928 76.3326652,60.7609464 C77.9084678,59.7729 79.9077194,59.7729 81.483522,60.7609464 C83.0593246,61.7489928 83.9358951,63.5521664 83.7419115,65.4066293 L83.7419115,67.0591195 C83.9423401,68.4400597 83.5160891,69.8385119 82.5801525,70.8706393 C81.644216,71.9027667 80.2969322,72.4601245 78.9080936,72.3897331 L78.9080936,72.3897331 Z M81.8296319,65.4066293 C81.8296319,63.1944246 80.926611,61.7551589 78.9080936,61.7551589 C76.8895762,61.7551589 75.9865553,63.1411185 75.9865553,65.4066293 L75.9865553,67.0591195 C75.9865553,69.2713242 76.8630168,70.7105898 78.9080936,70.7105898 C80.9531704,70.7105898 81.8296319,69.3246303 81.8296319,67.0591195 L81.8296319,65.4066293 Z" id="Shape" fill="#393939"></path>
                    <path d="M94.3391277,72.2298147 L93.3033096,72.2298147 C93.0742699,72.2166489 92.8914782,72.0332128 92.8783586,71.8033656 L92.8783586,64.6070372 C92.8783586,62.3948326 92.1346943,61.7285059 90.4880091,61.7285059 C89.4629316,61.7903983 88.4646687,62.0818257 87.5664708,62.581404 L87.5664708,71.7767126 C87.5533512,72.0065597 87.3705595,72.1899958 87.1415197,72.2031617 L86.0791422,72.2031617 C85.8444482,72.2031617 85.6541912,72.0122339 85.6541912,71.7767126 L85.6541912,60.6623831 C85.6541912,60.4268618 85.8444482,60.235934 86.0791422,60.235934 L87.1680792,60.235934 C87.4027732,60.235934 87.5930302,60.4268618 87.5930302,60.6623831 L87.5930302,61.0888322 C88.6274199,60.4349787 89.8232918,60.0841838 91.0457573,60.0760156 C93.7017012,60.0760156 94.8171976,61.7018528 94.8171976,64.6070372 L94.8171976,71.7767126 C94.8174132,71.9016465 94.7662152,72.0211257 94.6757056,72.1069084 C94.5851959,72.1926911 94.4634074,72.237164 94.3391277,72.2298147 L94.3391277,72.2298147 Z" id="Shape" fill="#393939"></path>
                    <path d="M104.564512,72.2298147 L103.581813,72.2298147 C103.352773,72.2166489 103.169981,72.0332128 103.156862,71.8033656 L103.156862,71.3236104 C102.157463,71.9750798 101.001215,72.3434366 99.8103722,72.3897331 C98.8410741,72.5128427 97.869529,72.179161 97.1786641,71.4858606 C96.4877992,70.7925603 96.1552897,69.8175902 96.2779668,68.8448751 L96.2779668,68.5783444 C96.2779668,66.2328744 97.6590576,65.0334863 101.589855,65.0334863 L103.20998,65.0334863 L103.20998,64.1539351 C103.20998,62.3148734 102.572554,61.7018528 100.87275,61.7018528 C99.7636153,61.7056889 98.6554464,61.7679651 97.5528199,61.8884243 L97.5528199,61.8884243 C97.3669038,61.8884243 97.1544283,61.8884243 97.1544283,61.5419344 L97.1544283,60.7689954 C97.1544283,60.5291178 97.3137849,60.3958525 97.6059388,60.3425463 C98.7191971,60.1430901 99.8481344,60.0449634 100.978988,60.0493626 C104.006764,60.0493626 105.201938,61.5685875 105.201938,64.1539351 L105.201938,71.7500595 C105.252413,71.9209983 105.191597,72.1054065 105.04947,72.212378 C104.907342,72.3193494 104.713904,72.3263046 104.564512,72.2298147 Z M103.077183,66.4194459 L101.457057,66.4194459 C98.8011135,66.4194459 98.1371275,67.0058134 98.1371275,68.5516913 L98.1371275,68.818222 C98.1371275,70.390753 98.8807918,70.790549 100.129085,70.790549 C101.162154,70.7547037 102.168491,70.4517383 103.050624,69.9109978 L103.077183,66.4194459 Z" id="Shape" fill="#393939"></path>
                    <path d="M108.8937,72.2298147 L107.751644,72.2298147 C107.527382,72.2157218 107.352814,72.0288591 107.353253,71.8033656 L107.353253,56.2379738 C107.345891,56.1274039 107.384591,56.0187276 107.460117,55.9378828 C107.535642,55.8570381 107.641218,55.8112782 107.751644,55.8115247 L108.8937,55.8115247 C109.004127,55.8112782 109.109703,55.8570381 109.185228,55.9378828 C109.260754,56.0187276 109.299454,56.1274039 109.292092,56.2379738 L109.292092,71.7767126 C109.29936,71.8898677 109.261423,72.0012688 109.186665,72.0862929 C109.111908,72.171317 109.006486,72.2229627 108.8937,72.2298147 L108.8937,72.2298147 Z" id="Shape" fill="#393939"></path>
                    <path d="M9.95978967,92.6460649 C8.52899057,92.880936 7.08024936,92.9879678 5.63060109,92.9659018 C2.97465718,92.9659018 -8.8817842e-16,91.1801462 -8.8817842e-16,86.1960224 L-8.8817842e-16,83.2641849 C-8.8817842e-16,77.9335713 3.0543355,76.4676526 5.81651717,76.4676526 C7.19444469,76.4519247 8.57132615,76.5499833 9.93323023,76.7608363 C10.1191463,76.7608363 10.3050624,76.7608363 10.3050624,77.0806731 L10.3050624,78.1734489 C10.3050624,78.3333673 10.3050624,78.3866735 10.0129085,78.3866735 L10.0129085,78.3866735 C8.73805547,78.3866735 7.72879678,78.2267551 5.89619548,78.2267551 C4.06359418,78.2267551 1.96539849,79.3461839 1.96539849,83.2641849 L1.96539849,86.1960224 C1.96539849,89.7941866 3.58552428,91.2067993 5.63060109,91.2067993 C6.95857305,91.2067993 7.83503454,91.2067993 8.286545,91.2067993 L8.286545,84.836716 C8.27918292,84.726146 8.31788305,84.6174697 8.39340874,84.536625 C8.46893443,84.4557802 8.57450968,84.4100203 8.68493659,84.4102669 L9.85355191,84.4102669 C10.0882459,84.4102669 10.2785029,84.6011946 10.2785029,84.836716 L10.2785029,92.1663097 C10.2905576,92.3796027 10.1606203,92.5751958 9.95978967,92.6460649 L9.95978967,92.6460649 Z" id="Shape" fill="#393939"></path>
                    <path d="M17.2901949,82.3313276 C16.2238174,82.337824 15.1818748,82.6524341 14.2889782,83.2375319 L14.2889782,92.3795343 C14.2758587,92.6093814 14.093067,92.7928175 13.8640272,92.8059833 L12.8016497,92.8059833 C12.5669557,92.8059833 12.3766986,92.6150556 12.3766986,92.3795343 L12.3766986,81.2652048 C12.3766986,81.0296835 12.5669557,80.8387557 12.8016497,80.8387557 L13.8109083,80.8387557 C14.0351708,80.8528487 14.2097392,81.0397114 14.2092999,81.2652048 L14.2092999,81.718307 C15.0954542,81.062524 16.162777,80.6992864 17.2636354,80.6788373 C17.5823487,80.6788373 17.7151459,80.6788373 17.7151459,81.0786334 L17.7151459,81.9581846 C17.7417053,82.1980622 17.5823487,82.3313276 17.2901949,82.3313276 Z" id="Shape" fill="#393939"></path>
                    <path d="M23.0004743,92.9659018 C21.6116357,93.0362931 20.2643519,92.4789353 19.3284153,91.4468079 C18.3924788,90.4146805 17.9662278,89.0162283 18.1666564,87.6352881 L18.1666564,85.9827979 C17.9662278,84.6018577 18.3924788,83.2034055 19.3284153,82.1712781 C20.2643519,81.1391507 21.6116357,80.5817929 23.0004743,80.6521843 C24.3893129,80.5817929 25.7365967,81.1391507 26.6725332,82.1712781 C27.6084697,83.2034055 28.0347208,84.6018577 27.8342922,85.9827979 L27.8342922,87.6352881 C28.0347208,89.0162283 27.6084697,90.4146805 26.6725332,91.4468079 C25.7365967,92.4789353 24.3893129,93.0362931 23.0004743,92.9659018 L23.0004743,92.9659018 Z M25.9220126,85.9827979 C25.9220126,83.7705932 25.0455511,82.3313276 23.0004743,82.3313276 C20.9553975,82.3313276 20.078936,83.7172871 20.078936,85.9827979 L20.078936,87.6352881 C20.078936,89.8474928 20.9553975,91.2867585 23.0004743,91.2867585 C25.0455511,91.2867585 25.9220126,89.9007989 25.9220126,87.6352881 L25.9220126,85.9827979 Z" id="Shape" fill="#393939"></path>
                    <path d="M38.1127951,92.8326364 L37.0238581,92.8326364 C36.7891642,92.8326364 36.5989071,92.6417086 36.5989071,92.4061873 L36.5989071,91.9797382 C35.5645174,92.6335918 34.3686455,92.9843866 33.14618,92.9925548 C30.4902361,92.9925548 29.3747397,91.3667177 29.3747397,88.4615332 L29.3747397,81.2652048 C29.3878592,81.0353577 29.570651,80.8519216 29.7996907,80.8387557 L30.8355088,80.8387557 C31.0645486,80.8519216 31.2473403,81.0353577 31.2604598,81.2652048 L31.2604598,88.4348802 C31.2604598,90.6470848 32.0041241,91.3134115 33.6508094,91.3134115 C34.6758868,91.2515191 35.6741497,90.9600916 36.5723477,90.4605133 L36.5723477,81.2652048 C36.5854672,81.0353577 36.768259,80.8519216 36.9972987,80.8387557 L38.0596763,80.8387557 C38.2839387,80.8528487 38.4585071,81.0397114 38.4580678,81.2652048 L38.4580678,92.3795343 C38.4753759,92.596952 38.3264153,92.7924334 38.1127951,92.8326364 Z" id="Shape" fill="#393939"></path>
                    <path d="M44.9120115,92.9659018 C44.0215734,92.9605491 43.133149,92.880309 42.2560676,92.7260241 L42.2560676,96.6706782 C42.2560676,96.9061996 42.0658106,97.0971273 41.8311166,97.0971273 L40.7156202,97.0971273 C40.6051933,97.0973739 40.499618,97.051614 40.4240923,96.9707692 C40.3485666,96.8899245 40.3098665,96.7812481 40.3172286,96.6706782 L40.3172286,81.6916539 C40.3172286,81.3984702 40.3172286,81.2652048 40.768739,81.1852456 C42.082266,80.8652623 43.4276403,80.6953801 44.7792144,80.6788373 C48.0194659,80.6788373 49.5067945,82.7844297 49.5067945,86.009451 L49.5067945,87.581982 C49.6661511,91.0468808 48.0991442,92.9659018 44.9120115,92.9659018 Z M47.8069904,86.0627571 C47.8069904,83.7705932 47.1430044,82.3046745 44.9916899,82.3046745 C44.1524887,82.3461591 43.3177749,82.4530939 42.4951026,82.6245113 L42.4951026,91.1534931 C43.3735199,91.2939793 44.261545,91.3652717 45.1510465,91.3667177 C47.2758016,91.3667177 47.966347,89.9807581 47.966347,87.6352881 L47.8069904,86.0627571 Z" id="Shape" fill="#393939"></path>
                    <ellipse id="Oval" fill="#FE1F3F" cx="133.886133" cy="25.7735169" rx="25.6829776" ry="25.7735169"></ellipse>
                    <path d="M148.732859,23.3747408 C147.879064,19.6225717 144.901227,16.728276 141.136859,15.9918409 C141.798169,15.0464923 142.201089,13.9437467 142.305475,12.7934727 C142.549827,9.27912208 140.204467,6.11077703 136.781111,5.33061363 C131.123951,3.49155193 118.37542,7.24963454 109.982637,16.3116777 C109.155916,18.4156745 108.611117,20.6204763 108.362512,22.8683325 C114.789896,14.3393507 126.077657,10.4746558 130.911475,9.5417984 C134.682916,8.84881863 135.824972,10.6079211 136.223363,11.5407785 C136.50991,12.54888 136.350881,13.6319462 135.786761,14.5142603 C135.22264,15.3965744 134.307849,15.9930199 133.275265,16.1517593 C124.083159,18.5493501 115.595883,23.1186617 108.521868,29.4782934 C108.733708,30.9900989 109.080372,32.479766 109.557686,33.9293558 C116.085457,28.5217158 123.679571,24.5613992 131.841056,22.3086181 C135.506258,21.1891892 137.737251,20.9493116 139.490174,21.9621282 C141.512356,23.431571 142.24188,26.1159239 141.243097,28.4121707 C140.313517,30.1446201 138.427797,31.0774775 135.585937,31.8504165 C129.795979,33.7161312 120.73921,35.9283359 113.143211,40.9924188 C114.403983,42.7328006 115.876111,44.3086066 117.525518,45.6833588 C127.750902,39.499847 136.727993,39.0200918 142.756985,36.381438 C147.663149,34.1084695 150.196342,28.594887 148.732859,23.3747408 Z" id="Shape" fill="url(#radialGradient-1)"></path>
                </g>
            </g>
        </g>
    </g>
</svg>