<?xml version="1.0" encoding="UTF-8"?>
<svg width="58px" height="70px" viewBox="0 0 58 70" version="1.1" xmlns="http://www.w3.org/2000/svg" xmlns:xlink="http://www.w3.org/1999/xlink">
    <!-- Generator: Sketch 47.1 (45422) - http://www.bohemiancoding.com/sketch -->
    <title>Page 1</title>
    <desc>Created with Sketch.</desc>
    <defs></defs>
    <g id="Page-1" stroke="none" stroke-width="1" fill="none" fill-rule="evenodd" stroke-linecap="round" stroke-linejoin="round">
        <g id="Artboard" transform="translate(-59.000000, -46.000000)" stroke="#4F5053" stroke-width="1.417">
            <g id="Page-1" transform="translate(59.000000, 46.000000)">
                <path d="M19.0897,47.4933 C18.4447,38.9813 22.3747,31.5813 28.5757,26.7833 C28.5757,26.7833 31.0427,25.2463 32.0187,27.1413 L33.1667,29.5543 C33.1667,29.5543 32.3147,24.1713 33.9047,23.5623 C38.2197,21.9123 41.4617,21.0113 45.5717,21.0113" id="Stroke-1"></path>
                <path d="M45.5722,21.0109 C45.5722,35.6369 32.3312,47.4929 19.0902,47.4929" id="Stroke-3"></path>
                <path d="M16.202,50.713 C16.202,50.713 21.295,42.415 31.085,35.391" id="Stroke-5"></path>
                <path d="M28.6845,0.7086 C39.6335,14.8966 56.5545,10.1636 56.5545,10.1636 C56.5545,10.1636 56.7005,20.9906 56.6485,34.2246 C56.5595,57.1226 28.6845,69.0166 28.6845,69.0166 C28.6845,69.0166 0.8095,57.1226 0.7195,34.2246 C0.6675,20.9906 0.8145,10.1636 0.8145,10.1636 C0.8145,10.1636 17.7355,14.8966 28.6845,0.7086 Z" id="Stroke-7"></path>
            </g>
        </g>
    </g>
</svg>