<?xml version="1.0" encoding="UTF-8"?>
<svg width="63px" height="63px" viewBox="0 0 63 63" version="1.1" xmlns="http://www.w3.org/2000/svg" xmlns:xlink="http://www.w3.org/1999/xlink">
    <!-- Generator: Sketch 47.1 (45422) - http://www.bohemiancoding.com/sketch -->
    <title>Page 1</title>
    <desc>Created with Sketch.</desc>
    <defs></defs>
    <g id="Page-1" stroke="none" stroke-width="1" fill="none" fill-rule="evenodd" stroke-linecap="round" stroke-linejoin="round">
        <g id="Artboard" transform="translate(-322.000000, -316.000000)" stroke="#4F5053" stroke-width="1.417">
            <g id="Page-1" transform="translate(322.000000, 316.000000)">
                <path d="M13.3908,6.4032 C18.3788,2.8192 24.4978,0.7092 31.1108,0.7092 C47.9018,0.7092 61.5128,14.3192 61.5128,31.1102 C61.5128,47.9012 47.9018,61.5122 31.1108,61.5122 C14.3208,61.5122 0.7078,47.9012 0.7078,31.1102 C0.7078,23.7582 3.3188,17.0162 7.6618,11.7592" id="Stroke-1"></path>
                <path d="M13.3908,6.4032 C18.3788,2.8192 24.4978,0.7092 31.1108,0.7092 C47.9018,0.7092 61.5128,14.3192 61.5128,31.1102 C61.5128,47.9012 47.9018,61.5122 31.1108,61.5122 C14.3208,61.5122 0.7078,47.9012 0.7078,31.1102 C0.7078,23.7582 3.3188,17.0162 7.6618,11.7592" id="Stroke-3"></path>
                <path d="M21.0353,17.0624 C23.8723,15.0244 27.3503,13.8254 31.1093,13.8254 C40.6573,13.8254 48.3953,21.5634 48.3953,31.1104 C48.3953,40.6584 40.6573,48.3964 31.1093,48.3964 C21.5623,48.3964 13.8243,40.6584 13.8243,31.1104 C13.8243,26.9304 15.3073,23.0964 17.7763,20.1074" id="Stroke-5"></path>
                <path d="M42.2091,31.1102 C42.2091,37.2392 37.2391,42.2092 31.1091,42.2092 C24.9801,42.2092 20.0131,37.2392 20.0131,31.1102 C20.0131,24.9812 24.9801,20.0122 31.1091,20.0122 C32.4521,20.0122 33.7371,20.2512 34.9301,20.6862" id="Stroke-7"></path>
                <path d="M50.3781,17.2919 C53.1731,21.1839 54.8181,25.9539 54.8181,31.1099 C54.8181,44.2039 44.2041,54.8189 31.1091,54.8189 C18.0171,54.8189 7.4011,44.2039 7.4011,31.1099 C7.4011,18.0179 18.0171,7.4009 31.1091,7.4009 C36.8441,7.4009 42.1021,9.4379 46.2001,12.8229" id="Stroke-9"></path>
                <path d="M34.8996,31.1102 C34.8996,33.1742 33.2246,34.8482 31.1616,34.8482 C29.0966,34.8482 27.4226,33.1742 27.4226,31.1102 C27.4226,29.0472 29.0966,27.3742 31.1616,27.3742 C33.2246,27.3742 34.8996,29.0472 34.8996,31.1102 Z" id="Stroke-11"></path>
            </g>
        </g>
    </g>
</svg>