<?xml version="1.0" encoding="UTF-8"?>
<svg width="63px" height="63px" viewBox="0 0 63 63" version="1.1" xmlns="http://www.w3.org/2000/svg" xmlns:xlink="http://www.w3.org/1999/xlink">
    <!-- Generator: Sketch 47.1 (45422) - http://www.bohemiancoding.com/sketch -->
    <title>Page 1</title>
    <desc>Created with Sketch.</desc>
    <defs></defs>
    <g id="Page-1" stroke="none" stroke-width="1" fill="none" fill-rule="evenodd">
        <g id="Artboard" transform="translate(-337.000000, -54.000000)">
            <g id="Page-1" transform="translate(337.000000, 54.000000)">
                <path d="M61.5123,31.1102 C61.5123,47.9012 47.9013,61.5122 31.1103,61.5122 C14.3203,61.5122 0.7083,47.9012 0.7083,31.1102 C0.7083,14.3202 14.3203,0.7082 31.1103,0.7082 C47.9013,0.7082 61.5123,14.3202 61.5123,31.1102 Z" id="Stroke-1" stroke="#4F5053" stroke-width="1.417" stroke-linecap="round" stroke-linejoin="round"></path>
                <text id="+27°" font-family="BrutalType-Bold, Brutal Type" font-size="8.4616" font-weight="bold" fill="#4D4F51">
                    <tspan x="21.3525" y="28.7041829">+27°</tspan>
                </text>
                <g id="Group-9" transform="translate(14.000000, 5.221000)" stroke="#4F5053" stroke-width="1.417" stroke-linecap="round" stroke-linejoin="round">
                    <path d="M16.9332,36.4976 L5.9912,36.4976 C3.1592,36.4976 0.8642,38.7926 0.8642,41.6236 C0.8642,44.4556 3.1592,46.7506 5.9912,46.7506 L27.8752,46.7506 C30.7072,46.7506 33.0022,49.0456 33.0022,51.8766" id="Stroke-3"></path>
                    <path d="M16.9332,15.9927 L5.9912,15.9927 C3.1592,15.9927 0.8642,18.2877 0.8642,21.1187 C0.8642,23.9497 3.1592,26.2447 5.9912,26.2447 L27.8752,26.2447 C30.7072,26.2447 33.0022,28.5407 33.0022,31.3717 C33.0022,34.2027 30.7072,36.4977 27.8752,36.4977 L16.9332,36.4977" id="Stroke-5"></path>
                    <path d="M0.8638,0.6138 L0.8638,0.6138 C0.8638,3.4448 3.1588,5.7398 5.9908,5.7398 L27.8758,5.7398 C30.7078,5.7398 33.0028,8.0348 33.0028,10.8658 C33.0028,13.6978 30.7078,15.9928 27.8758,15.9928 L16.9328,15.9928" id="Stroke-7"></path>
                </g>
            </g>
        </g>
    </g>
</svg>