<?xml version="1.0" encoding="UTF-8"?>
<svg width="63px" height="63px" viewBox="0 0 63 63" version="1.1" xmlns="http://www.w3.org/2000/svg" xmlns:xlink="http://www.w3.org/1999/xlink">
    <!-- Generator: Sketch 47.1 (45422) - http://www.bohemiancoding.com/sketch -->
    <title>Page 1</title>
    <desc>Created with Sketch.</desc>
    <defs></defs>
    <g id="Page-1" stroke="none" stroke-width="1" fill="none" fill-rule="evenodd">
        <g id="Artboard" transform="translate(-57.000000, -185.000000)">
            <g id="Page-1" transform="translate(57.000000, 185.000000)">
                <path d="M49.0445,6.5742 C37.1505,-2.1488 20.3575,-1.1458 9.6055,9.6062 C-1.1465,20.3582 -2.1485,37.1522 6.5725,49.0462" id="Stroke-1" stroke="#4F5053" stroke-width="1.417" stroke-linecap="round" stroke-linejoin="round"></path>
                <path d="M12.6441,55.2446 C24.5641,64.3826 41.6921,63.5106 52.6001,52.6006 C63.5081,41.6926 64.3801,24.5646 55.2441,12.6446" id="Stroke-3" stroke="#4F5053" stroke-width="1.417" stroke-linecap="round" stroke-linejoin="round"></path>
                <path d="M16.6051,34.6699 C17.5911,39.8889 21.7471,43.9759 26.9801,44.8779 C28.1691,45.0919 29.2411,45.9609 29.2861,47.0639 C29.3351,48.1589 27.9451,49.1069 26.2951,48.8189 C19.4241,47.6359 13.9701,42.2699 12.6741,35.4179 C12.3611,33.7739 13.2851,32.3679 14.3811,32.3989 C15.4841,32.4279 16.3721,33.4839 16.6051,34.6699 Z" id="Stroke-5" stroke="#4F5053" stroke-width="1.417" stroke-linecap="round" stroke-linejoin="round"></path>
                <path d="M43.7779,26.4326 C42.3469,21.3186 37.8589,17.6016 32.5669,17.1506 C31.3639,17.0386 30.2219,16.2636 30.0829,15.1696 C29.9389,14.0816 31.2449,13.0196 32.9119,13.1636 C39.8589,13.7556 45.7529,18.6356 47.6299,25.3506 C48.0829,26.9616 47.2819,28.4426 46.1859,28.5046 C45.0859,28.5716 44.1119,27.5936 43.7779,26.4326 Z" id="Stroke-7" stroke="#4F5053" stroke-width="1.417" stroke-linecap="round" stroke-linejoin="round"></path>
                <path d="M47.6979,39.4101 C48.3459,38.5151 48.1479,37.2641 47.2539,36.6161 C46.3599,35.9671 45.1089,36.1661 44.4599,37.0591 L38.9999,44.5841 C38.3509,45.4781 38.5499,46.7291 39.4439,47.3781 C40.3379,48.0261 41.5889,47.8281 42.2379,46.9331 L47.6979,39.4101 Z" id="Stroke-9" stroke="#4F5053" stroke-width="1.417" stroke-linecap="round" stroke-linejoin="round"></path>
                <path d="M35.754,36.0576 C36.653,36.6996 37.902,36.4906 38.544,35.5906 C39.185,34.6916 38.976,33.4426 38.076,32.8006 L26.652,24.7066 C25.754,24.0656 24.504,24.2746 23.863,25.1736 C23.222,26.0736 23.431,27.3226 24.33,27.9636 L35.754,36.0576 Z" id="Stroke-11" stroke="#4F5053" stroke-width="1.417" stroke-linecap="round" stroke-linejoin="round"></path>
                <path d="M20.9498,19.5122 C20.9498,20.9292 19.8008,22.0782 18.3838,22.0782 C16.9658,22.0782 15.8158,20.9292 15.8158,19.5122 C15.8158,18.0942 16.9658,16.9452 18.3838,16.9452 C19.8008,16.9452 20.9498,18.0942 20.9498,19.5122 Z" id="Stroke-13" stroke="#4F5053" stroke-width="1.417" stroke-linecap="round" stroke-linejoin="round"></path>
                <polygon id="Fill-15" fill="#FEFEFE" points="13.4606 53.8247 7.8646 48.2297 48.3176 7.7767 53.9126 13.3727"></polygon>
                <path d="M9.0191,52.5981 L52.0081,9.6091" id="Stroke-17" stroke="#4F5053" stroke-width="1.417" stroke-linecap="round" stroke-linejoin="round"></path>
            </g>
        </g>
    </g>
</svg>