<?xml version="1.0" encoding="UTF-8"?>
<svg width="63px" height="63px" viewBox="0 0 63 63" version="1.1" xmlns="http://www.w3.org/2000/svg" xmlns:xlink="http://www.w3.org/1999/xlink">
    <!-- Generator: Sketch 47.1 (45422) - http://www.bohemiancoding.com/sketch -->
    <title>Page 1</title>
    <desc>Created with Sketch.</desc>
    <defs></defs>
    <g id="Page-1" stroke="none" stroke-width="1" fill="none" fill-rule="evenodd">
        <g id="Artboard" transform="translate(-195.000000, -185.000000)">
            <g id="Page-1" transform="translate(195.000000, 185.000000)">
                <path d="M31.1111,17.1516 C35.5861,22.9506 42.5011,21.0156 42.5011,21.0156 C42.5011,21.0156 42.5601,25.4406 42.5391,30.8476 C42.5031,40.2066 31.1111,45.0666 31.1111,45.0666 C31.1111,45.0666 19.7191,40.2066 19.6831,30.8476 C19.6621,25.4406 19.7211,21.0156 19.7211,21.0156 C19.7211,21.0156 26.6361,22.9506 31.1111,17.1516 Z" id="Stroke-1" stroke="#4F5053" stroke-width="1.417" stroke-linecap="round" stroke-linejoin="round"></path>
                <path d="M30.9353,0.7713 L31.0143,0.7093 C14.2683,0.7603 0.7083,14.3493 0.7083,31.1073 C0.7083,47.8983 14.3203,61.5093 31.1113,61.5093 C47.9023,61.5093 61.5143,47.8983 61.5143,31.1073 C61.5143,19.2083 54.6733,8.9133 44.7143,3.9193" id="Stroke-3" stroke="#4F5053" stroke-width="1.417" stroke-linecap="round" stroke-linejoin="round"></path>
                <path d="M44.7595,3.9959 C40.6515,1.9359 36.0175,0.7699 31.1095,0.7699 C31.0765,0.7699 31.0445,0.7719 31.0125,0.7719 L30.9335,0.8359" id="Stroke-5" stroke="#4F5053" stroke-width="1.417" stroke-linecap="round" stroke-linejoin="round"></path>
                <path d="M25.2693,30.5784 L27.1683,30.5784 C27.7843,30.5784 28.2553,30.1464 28.2553,29.3074 C28.2553,28.4824 27.7843,28.0514 27.1683,28.0514 L25.2693,28.0514 L25.2693,30.5784 Z M23.4113,35.5944 L23.4113,26.4274 L27.5093,26.4274 C29.1463,26.4274 30.1423,27.5404 30.1423,29.3204 C30.1423,31.0894 29.1463,32.2024 27.5093,32.2024 L25.2693,32.2024 L25.2693,35.5944 L23.4113,35.5944 Z" id="Fill-7" fill="#4D4F51"></path>
                <path d="M36.9392,26.427 L38.8122,26.427 L38.8122,32.582 C38.8122,33.591 38.4982,34.376 37.8562,34.94 C37.2272,35.502 36.3632,35.79 35.2762,35.79 C34.1892,35.79 33.3252,35.502 32.6832,34.94 C32.0412,34.376 31.7272,33.591 31.7272,32.582 L31.7272,26.427 L33.5862,26.427 L33.5862,32.66 C33.5862,33.46 34.1632,34.088 35.2762,34.088 C36.3772,34.088 36.9392,33.46 36.9392,32.66 L36.9392,26.427 Z" id="Fill-9" fill="#4D4F51"></path>
            </g>
        </g>
    </g>
</svg>