<?xml version="1.0" encoding="UTF-8"?>
<svg width="63px" height="63px" viewBox="0 0 63 63" version="1.1" xmlns="http://www.w3.org/2000/svg" xmlns:xlink="http://www.w3.org/1999/xlink">
    <!-- Generator: Sketch 47.1 (45422) - http://www.bohemiancoding.com/sketch -->
    <title>Page 1</title>
    <desc>Created with Sketch.</desc>
    <defs></defs>
    <g id="Page-1" stroke="none" stroke-width="1" fill="none" fill-rule="evenodd" stroke-linecap="round" stroke-linejoin="round">
        <g id="Artboard" transform="translate(-322.000000, -185.000000)" stroke="#4F5053" stroke-width="1.417">
            <g id="Page-1" transform="translate(322.000000, 185.000000)">
                <path d="M43.7038,14.955 C46.0658,18.018 49.7178,16.995 49.7178,16.995 C49.7178,16.995 49.7488,19.332 49.7378,22.187 C49.7188,27.128 43.7038,29.694 43.7038,29.694 C43.7038,29.694 37.6888,27.128 37.6698,22.187 C37.6578,19.332 37.6898,16.995 37.6898,16.995 C37.6898,16.995 41.3418,18.018 43.7038,14.955 Z" id="Stroke-1"></path>
                <path d="M61.5133,31.1093 C61.5133,47.9003 47.9023,61.5113 31.1113,61.5113 C14.3213,61.5113 0.7083,47.9003 0.7083,31.1093 C0.7083,14.3193 14.3213,0.7093 31.1113,0.7093 C47.9023,0.7093 61.5133,14.3193 61.5133,31.1093 Z" id="Stroke-3"></path>
                <path d="M3.2711,43.3407 L58.9461,43.3407" id="Stroke-5"></path>
                <path d="M4.4762,45.3407 L57.7472,45.3407" id="Stroke-7"></path>
                <path d="M9.5499,45.3407 L7.1379,49.7937" id="Stroke-9"></path>
                <path d="M14.3288,45.3407 L11.9168,49.7937" id="Stroke-11"></path>
                <path d="M19.108,45.3407 L16.696,49.7937" id="Stroke-13"></path>
                <path d="M23.8873,45.3407 L21.4753,49.7937" id="Stroke-15"></path>
                <path d="M28.6666,45.3407 L26.2546,49.7937" id="Stroke-17"></path>
                <path d="M33.4459,45.3407 L31.0339,49.7937" id="Stroke-19"></path>
                <path d="M38.2252,45.3407 L35.8132,49.7937" id="Stroke-21"></path>
                <path d="M43.0045,45.3407 L40.5925,49.7937" id="Stroke-23"></path>
                <path d="M47.7838,45.3407 L45.3718,49.7937" id="Stroke-25"></path>
                <path d="M52.5631,45.3407 L50.1511,49.7937" id="Stroke-27"></path>
                <path d="M57.3424,45.3407 L54.9304,49.7937" id="Stroke-29"></path>
                <path d="M31.2907,35.8456 C31.2907,39.9866 27.9357,43.3406 23.7957,43.3406 C19.6557,43.3406 16.3007,39.9866 16.3007,35.8456 C16.3007,31.7056 19.6557,28.3506 23.7957,28.3506 C27.9357,28.3506 31.2907,31.7056 31.2907,35.8456 Z" id="Stroke-31"></path>
                <path d="M34.4137,35.8456 C34.4137,29.9836 29.6597,25.2306 23.7977,25.2306 C17.9347,25.2306 13.1817,29.9836 13.1817,35.8456 C11.2677,35.8456 11.1877,33.4086 11.1877,30.5286 L11.1877,22.3246 L23.7977,22.3246 L23.7977,25.2306" id="Stroke-33"></path>
                <path d="M28.2516,35.8456 C28.2516,38.3066 26.2566,40.3016 23.7956,40.3016 C21.3336,40.3016 19.3386,38.3066 19.3386,35.8456 C19.3386,33.3846 21.3336,31.3886 23.7956,31.3886 C26.2566,31.3886 28.2516,33.3846 28.2516,35.8456 Z" id="Stroke-35"></path>
                <path d="M13.8815,6.0634 L13.8815,22.3264" id="Stroke-37"></path>
                <path d="M21.3268,2.3241 L21.3268,22.3251" id="Stroke-39"></path>
            </g>
        </g>
    </g>
</svg>