<?xml version="1.0" encoding="UTF-8"?>
<svg width="63px" height="63px" viewBox="0 0 63 63" version="1.1" xmlns="http://www.w3.org/2000/svg" xmlns:xlink="http://www.w3.org/1999/xlink">
    <!-- Generator: Sketch 47.1 (45422) - http://www.bohemiancoding.com/sketch -->
    <title>Page 1</title>
    <desc>Created with Sketch.</desc>
    <defs></defs>
    <g id="Page-1" stroke="none" stroke-width="1" fill="none" fill-rule="evenodd" stroke-linecap="round" stroke-linejoin="round">
        <g id="Artboard" transform="translate(-448.000000, -185.000000)" stroke="#4F5053" stroke-width="1.417">
            <g id="Page-1" transform="translate(448.000000, 185.000000)">
                <path d="M61.5138,31.1093 C61.5138,47.9003 47.9028,61.5113 31.1118,61.5113 C14.3218,61.5113 0.7088,47.9003 0.7088,31.1093 C0.7088,14.3193 14.3218,0.7093 31.1118,0.7093 C47.9028,0.7093 61.5138,14.3193 61.5138,31.1093 Z" id="Stroke-1"></path>
                <path d="M22.4909,47.8563 C22.3909,47.8563 22.2909,47.8313 22.2009,47.7743 C21.9659,47.6303 21.8709,47.3353 21.9769,47.0833 L28.2319,32.2263 L22.4919,32.2263 C22.2989,32.2263 22.1189,32.1273 22.0169,31.9603 C21.9159,31.7963 21.9059,31.5903 21.9919,31.4193 L30.3659,14.6713 C30.4609,14.4823 30.6539,14.3633 30.8649,14.3633 L39.7979,14.3633 C40.0009,14.3633 40.1879,14.4733 40.2859,14.6523 C40.3849,14.8313 40.3779,15.0473 40.2689,15.2193 L33.7399,25.5273 L40.3549,25.5273 C40.5729,25.5273 40.7689,25.6533 40.8609,25.8503 C40.9529,26.0463 40.9229,26.2793 40.7819,26.4453 L22.9189,47.6593 C22.8089,47.7893 22.6519,47.8563 22.4909,47.8563" id="Stroke-3"></path>
            </g>
        </g>
    </g>
</svg>