<svg width="160" height="65" viewBox="0 0 160 65" xmlns="http://www.w3.org/2000/svg"><path d="M.927 39.464l27.717-37.7S30.684.93 34.577.93s5.655.835 5.655.835v37.7h7.601s.834 1.672.834 4.643c0 2.972-.834 4.643-.834 4.643h-7.601v14.486s-2.04.835-5.377.835c-3.522 0-5.747-.835-5.747-.835V48.75H.927S0 47.079 0 44.107c0-2.971.927-4.643.927-4.643zm28.18-22.657L12.423 39.464h16.686V16.807zM80.094 65c-15.018 0-23.546-9.379-23.546-32.5C56.547 9.657 65.075 0 80.093 0c15.017 0 23.73 9.379 23.73 32.5 0 23.121-8.713 32.5-23.73 32.5zm0-55.157c-6.953 0-11.124 3.9-11.124 22.657 0 18.664 4.171 22.657 11.124 22.657 7.138 0 11.031-3.993 11.031-22.657 0-18.757-3.893-22.657-11.031-22.657zm32.167 29.621l27.717-37.7s2.04-.835 5.933-.835 5.654.835 5.654.835v37.7h7.602s.834 1.672.834 4.643c0 2.972-.834 4.643-.834 4.643h-7.602v14.486s-2.04.835-5.376.835c-3.523 0-5.748-.835-5.748-.835V48.75h-28.18s-.927-1.671-.927-4.643c0-2.971.927-4.643.927-4.643zm28.18-22.657l-16.686 22.657h16.686V16.807z" fill="#F3F3F1" fill-rule="evenodd"/></svg>