<svg width="19" height="30" viewBox="0 0 19 30" xmlns="http://www.w3.org/2000/svg"><g fill="#393939" fill-rule="evenodd"><path d="M17.685 22.481L16.578 29H7.262L2.18 21.661c-.294-.45-.383-1.158-.189-1.516.06-.108.162-.232.442-.232.976 0 1.681 0 4.186 3.86a.499.499 0 0 0 .92-.274L7.5 10c0-.743.757-1.5 1.5-1.5.771 0 1.5.729 1.5 1.5v7.5a.5.5 0 0 0 .347.476l5.943 1.913c.954.306 1.136 1.544.895 2.592m-.588-3.544L11.5 17.136V10c0-1.332-1.169-2.5-2.5-2.5-1.285 0-2.5 1.215-2.5 2.501l.034 11.858c-1.87-2.638-2.758-2.946-4.1-2.946-.589 0-1.059.269-1.323.757-.42.777-.194 1.888.24 2.549l5.238 7.566A.501.501 0 0 0 7 30h10a.5.5 0 0 0 .493-.416l1.172-6.907c.335-1.451-.013-3.241-1.568-3.74"/><path d="M3.439 15.92a.5.5 0 0 0 0-.707A8.268 8.268 0 0 1 1 9.326c0-2.224.866-4.315 2.439-5.888 3.246-3.246 8.527-3.247 11.775 0 3.246 3.247 3.246 8.53 0 11.775a.5.5 0 0 0 .707.707c3.636-3.636 3.636-9.553 0-13.189A9.269 9.269 0 0 0 9.326.001 9.263 9.263 0 0 0 2.732 2.73 9.264 9.264 0 0 0 0 9.326c0 2.491.97 4.833 2.732 6.594a.5.5 0 0 0 .707 0"/></g></svg>