<svg width="20" height="30" viewBox="0 0 20 30" xmlns="http://www.w3.org/2000/svg" xmlns:xlink="http://www.w3.org/1999/xlink"><defs><path id="a" d="M10 30h10V0H0v30z"/></defs><g fill="none" fill-rule="evenodd"><mask id="b" fill="#fff"><use xlink:href="#a"/></mask><path d="M.915 29l.329-28h11.484v6.5c0 .276.202.5.454.5h5.91v21H.914zM13.637 1.707L18.448 7h-4.811V1.707zm6.328 5.601a.5.5 0 0 0-.098-.162L13.504.147A.45.45 0 0 0 13.182 0H.796C.546 0 .344.22.34.493l-.34 29a.53.53 0 0 0 .13.359.438.438 0 0 0 .324.148h19.09c.252 0 .455-.224.455-.5v-22a.542.542 0 0 0-.035-.192z" fill="#FE1F3F" mask="url(#b)"/><path d="M5.099 10h5.158c.251 0 .455-.224.455-.5s-.204-.5-.455-.5H5.1c-.25 0-.455.224-.455.5s.204.5.455.5m10.315 3H5.099c-.251 0-.455.224-.455.5s.204.5.455.5h10.316c.25 0 .455-.224.455-.5s-.204-.5-.455-.5m0 4H5.099c-.251 0-.455.224-.455.5s.204.5.455.5h10.316c.25 0 .455-.224.455-.5s-.204-.5-.455-.5m0 4H5.099c-.251 0-.455.224-.455.5s.204.5.455.5h10.316c.25 0 .455-.224.455-.5s-.204-.5-.455-.5m0 4H5.099c-.251 0-.455.224-.455.5s.204.5.455.5h10.316c.25 0 .455-.224.455-.5s-.204-.5-.455-.5" fill="#FE1F3F" mask="url(#b)"/></g></svg>