<svg width="37" height="37" viewBox="0 0 37 37" xmlns="http://www.w3.org/2000/svg"><g stroke="#D8D8D8" fill="#D8D8D8" fill-rule="evenodd"><path d="M28.287 32l-1.713 1.711c-1.252 1.253-3.334 1.463-4.818.483A67.719 67.719 0 0 1 2.798 15.236a3.842 3.842 0 0 1 .483-4.818l1.711-1.712a2.344 2.344 0 0 1 1.668-.69c.63 0 1.223.245 1.669.69l3.12 3.121c.92.92.92 2.415 0 3.336l-1.04 1.039a.583.583 0 0 0-.039.782 70.067 70.067 0 0 0 9.638 9.639c.232.189.57.172.782-.04l1.04-1.04c.89-.89 2.445-.89 3.336 0l3.12 3.121c.92.92.92 2.417 0 3.336zm-2.296-7.281c-1.331-1.333-3.653-1.333-4.986 0l-.664.665a68.974 68.974 0 0 1-8.732-8.732l.665-.665a3.53 3.53 0 0 0 0-4.985l-3.12-3.12c-1.333-1.332-3.656-1.333-4.987 0l-1.711 1.71a5.014 5.014 0 0 0-.631 6.288 68.9 68.9 0 0 0 19.288 19.287c.821.543 1.775.83 2.757.83 1.335 0 2.589-.52 3.53-1.46l1.712-1.712a3.53 3.53 0 0 0 0-4.985l-3.121-3.121zM18.493 1a.584.584 0 0 0 0 1.167c9.006 0 16.333 7.326 16.333 16.333a.584.584 0 0 0 1.167 0c0-9.65-7.85-17.5-17.5-17.5"/><path d="M18.493 8.05c5.76 0 10.448 4.688 10.448 10.45a.583.583 0 1 0 1.167 0c0-6.406-5.21-11.616-11.615-11.616a.584.584 0 0 0 0 1.167m0 5.884a4.57 4.57 0 0 1 4.565 4.565.584.584 0 0 0 1.167 0 5.738 5.738 0 0 0-5.732-5.732.584.584 0 0 0 0 1.167"/></g></svg>