<?xml version="1.0" encoding="UTF-8"?>
<svg width="34px" height="41px" viewBox="0 0 34 41" version="1.1" xmlns="http://www.w3.org/2000/svg" xmlns:xlink="http://www.w3.org/1999/xlink">
    <!-- Generator: Sketch 47.1 (45422) - http://www.bohemiancoding.com/sketch -->
    <title>Group 33</title>
    <desc>Created with Sketch.</desc>
    <defs></defs>
    <g id="main" stroke="none" stroke-width="1" fill="none" fill-rule="evenodd" stroke-linecap="round" stroke-linejoin="round">
        <g id="catalog_residential_2" transform="translate(-243.000000, -491.000000)" stroke="#4F5053" stroke-width="1.2">
            <g id="Group-33" transform="translate(244.000000, 492.000000)">
                <path d="M10.8178286,27.1388571 C10.4492571,22.2748571 12.6949714,18.0462857 16.2384,15.3045714 C16.2384,15.3045714 17.6481143,14.4262857 18.2058286,15.5091429 L18.8618286,16.888 C18.8618286,16.888 18.3749714,13.812 19.2835429,13.464 C21.7492571,12.5211429 23.6018286,12.0062857 25.9504,12.0062857 L10.8178286,27.1388571 Z" id="Stroke-1"></path>
                <path d="M25.9506857,12.006 C25.9506857,20.3637143 18.3844,27.1385714 10.8181143,27.1385714" id="Stroke-3"></path>
                <path d="M9.16771429,28.9786857 C9.16771429,28.9786857 12.078,24.2369714 17.6722857,20.2232571" id="Stroke-5"></path>
                <path d="M15.986363,0 C22.2429344,8.10742857 31.9120773,5.40285714 31.9120773,5.40285714 C31.9120773,5.40285714 31.9955059,11.5897143 31.9657916,19.152 C31.9149344,32.2365714 15.986363,39.0331429 15.986363,39.0331429 C15.986363,39.0331429 0.0577915925,32.2365714 0.00636302105,19.152 C-0.0233512647,11.5897143 0.0606487353,5.40285714 0.0606487353,5.40285714 C0.0606487353,5.40285714 9.72979159,8.10742857 15.986363,0 Z" id="Stroke-7"></path>
            </g>
        </g>
    </g>
</svg>