<?xml version="1.0" encoding="UTF-8"?>
<svg width="41px" height="41px" viewBox="0 0 41 41" version="1.1" xmlns="http://www.w3.org/2000/svg" xmlns:xlink="http://www.w3.org/1999/xlink">
    <!-- Generator: Sketch 47.1 (45422) - http://www.bohemiancoding.com/sketch -->
    <title>Group 5</title>
    <desc>Created with Sketch.</desc>
    <defs></defs>
    <g id="main" stroke="none" stroke-width="1" fill="none" fill-rule="evenodd">
        <g id="catalog_residential_2" transform="translate(-439.000000, -541.000000)">
            <g id="Group-5" transform="translate(440.000000, 542.000000)">
                <path d="M14.5658065,38.5722581 C6.17935484,36.3451613 0,28.7012903 0,19.6135484 C0,8.78064516 8.78129032,0 19.6141935,0 C30.4470968,0 39.2290323,8.78064516 39.2290323,19.6135484 C39.2290323,30.4464516 30.4470968,39.2283871 19.6141935,39.2283871 C17.8690323,39.2283871 16.1767742,39 14.5658065,38.5722581" id="Stroke-1" stroke="#4F5053" stroke-width="1.417" stroke-linecap="round" stroke-linejoin="round"></path>
                <g id="Group-4" transform="translate(6.000000, 7.000000)" stroke="#4E4F52">
                    <g id="Group-3">
                        <path d="M2.59343619,5.8594446 C0.759214586,8.75116971 -0.154614306,10.1798934 0.471136045,13.1248583 C0.729312763,14.3449986 1.93778401,16.2390238 2.31921459,17.426345 C3.30597475,20.4960224 4.68729313,22.5060084 7.43607293,24.1185189 C9.76768583,25.4859804 12.3443478,25.5873548 15.3082749,25.5873548 C18.7105189,25.5873548 20.5972511,23.9952651 21.7918654,22.6124881 C22.9864797,21.2289818 24.852791,18.951338 25.834446,16.7933015 C26.8168303,14.6345358 27.2916129,12.1957139 26.8540252,9.86483029 C26.2209818,6.4939467 23.6982889,3.66202525 20.6286115,2.13192707 C17.5596634,0.601828892 14.6920056,-0.628521739 9.28123422,0.509206171 C4.95057504,1.4193885 4.23803647,3.26600842 2.59343619,5.8594446 Z" id="Stroke-3" stroke-width="2"></path>
                        <path d="M3.76004488,9.61927069 C3.56240112,10.0050771 3.40924544,10.3741094 3.30203647,10.7504348" id="Stroke-5" stroke-linecap="round"></path>
                        <path d="M22.8610379,7.93630856 C24.1759888,9.61956241 25.1430575,11.6959158 23.2329874,16.2227602 C22.6458906,17.6150182 20.9925386,19.7125217 20.0531837,20.8006564 C19.1130996,21.8880617 17.6289481,23.1402917 14.9530996,23.1402917 C12.622216,23.1402917 10.5954558,23.0607966 8.76123422,21.9850603 C6.59955119,20.7167854 5.51287518,19.1356353 4.73615708,16.7216101 C4.55018233,16.1410771 4.11332398,15.3461262 3.75960729,14.5978513" id="Stroke-7" stroke-linecap="round"></path>
                        <path d="M3.76004488,9.61927069 C4.06270968,9.02488079 4.46674895,8.38892006 4.95247125,7.62314165 C6.24554278,5.58325386 6.80638429,4.13046283 10.2130042,3.4142777 C13.7618401,2.66819074 15.9198766,3.21736325 17.9386143,4.11806452" id="Stroke-9" stroke-linecap="round"></path>
                        <path d="M14.0330715,21.0468724 C15.6536045,21.0899018 17.2136045,20.5998036 18.6751473,19.145554 C20.5210379,17.3084151 20.5647966,16.8846844 21.1715849,15.55223 C21.7776438,14.2197756 22.0708275,12.7130154 21.8009818,11.2748107 C21.4100701,9.19335203 19.8522581,7.44518934 17.9575035,6.5 C16.0620196,5.55553997 14.2912482,4.79559607 10.9509958,5.49792426 C10.2041795,5.65545582 9.631669,5.85674614 9.17220196,6.10179523" id="Stroke-11" stroke-linecap="round"></path>
                        <path d="M7.51914165,7.68848808 C7.2930547,8.02980645 7.0757195,8.40175596 6.82191865,8.80141935 C5.69002525,10.586777 5.12553717,11.4692454 5.51134362,13.2874222 C5.67106311,14.0408022 6.41715007,15.2098906 6.65271809,15.9428499 C6.95684151,16.8909565 7.32222721,17.6742384 7.82399439,18.3459355 C7.82399439,18.3459355 9.01933801,20.040129 12.0860982,20.7738177" id="Stroke-13" stroke-linecap="round"></path>
                        <path d="M9.17220196,10.2830912 C8.42976157,11.4529088 8.06072931,12.0312539 8.31307153,13.2236802 C8.41809257,13.717425 8.90673212,14.484662 9.06134642,14.9645498 C9.46100982,16.2072987 10.0196634,17.0204825 11.1325947,17.6732174 C12.0763254,18.2274951 13.1192426,18.2676073 14.3189621,18.2676073 C15.6959046,18.2676073 16.4594951,17.6236241 16.9430295,17.0642412 C17.4265638,16.504129 18.1821318,15.5822777 18.5796073,14.7078317 C18.9770827,13.8348443 19.1696213,12.8473548 18.9923983,11.9043534 C18.7356802,10.5398093 17.7153717,9.39332959 16.4726227,8.77414306 C15.2306031,8.15422721 14.0695372,7.65610659 11.8794109,8.11703226 C10.1268724,8.4853352 9.83806452,9.2336101 9.17220196,10.2830912 Z" id="Stroke-15" stroke-linecap="round"></path>
                        <path d="M11.0147377,11.4440112 C10.5778794,12.1317532 10.3605442,12.4723422 10.509324,13.1739411 C10.5705863,13.4649369 10.8579355,13.9156522 10.9490996,14.1978962 C11.1839383,14.9286676 11.5135877,15.4078261 12.1670519,15.7914446 C12.7227882,16.1167181 13.3368696,16.1407854 14.0413857,16.1407854 C14.8523815,16.1407854 15.3016381,15.7622721 15.5860701,15.433352 C15.8697728,15.1037027 16.3146536,14.561094 16.548763,14.0469285 C16.7821431,13.532763 16.8951865,12.95223 16.7908948,12.3979523 C16.6406564,11.594979 16.0397027,10.9203647 15.3089313,10.5557083 C14.5781599,10.1917812 13.8947938,9.89932679 12.6068275,10.1699018 C11.5763086,10.3865077 11.4056494,10.8262833 11.0147377,11.4440112 Z" id="Stroke-17" stroke-linecap="round"></path>
                    </g>
                </g>
            </g>
        </g>
    </g>
</svg>