<?xml version="1.0" encoding="UTF-8"?>
<svg width="42px" height="42px" viewBox="0 0 42 42" version="1.1" xmlns="http://www.w3.org/2000/svg" xmlns:xlink="http://www.w3.org/1999/xlink">
    <!-- Generator: Sketch 47.1 (45422) - http://www.bohemiancoding.com/sketch -->
    <title>Group 30</title>
    <desc>Created with Sketch.</desc>
    <defs></defs>
    <g id="main" stroke="none" stroke-width="1" fill="none" fill-rule="evenodd" stroke-linecap="round" stroke-linejoin="round">
        <g id="catalog_residential_2" transform="translate(-339.000000, -541.000000)" stroke="#4F5053" stroke-width="1.2">
            <g id="Group-30" transform="translate(340.000000, 542.000000)">
                <path d="M39.686,20.0710968 C39.686,30.904 30.9047097,39.6852903 20.0718065,39.6852903 C9.23954839,39.6852903 0.456967742,30.904 0.456967742,20.0710968 C0.456967742,9.23819355 9.23954839,0.457548387 20.0718065,0.457548387 C30.9047097,0.457548387 39.686,9.23819355 39.686,20.0710968 Z" id="Stroke-1"></path>
                <path d="M25.7983226,13.5905161 C26.6538065,14.9414839 27.3570323,16.4414839 27.3570323,18.1634194 C27.3570323,22.2976129 24.0060645,25.6485806 19.8712258,25.6485806 C15.7370323,25.6485806 12.3860645,22.2976129 12.3860645,18.1634194 C12.3860645,16.0350323 13.2744516,14.1143871 14.7009032,12.7505161 C14.7009032,12.7505161 15.4170323,16.3253548 17.6247742,16.2066452 C17.6247742,16.2066452 16.5899355,8.98470968 22.1783226,5.82406452 C22.1783226,5.82406452 21.644129,8.17374194 24.724129,12.029871 C24.724129,12.029871 25.0712258,12.4440645 25.7983226,13.5905161 Z" id="Stroke-3"></path>
                <path d="M22.4865161,20.3287742 C22.8639355,20.9249032 23.1736129,21.5861935 23.1736129,22.3461935 C23.1736129,24.1700645 21.6949032,25.6487742 19.8710323,25.6487742 C18.0471613,25.6487742 16.5684516,24.1700645 16.5684516,22.3461935 C16.5684516,21.4074839 16.9607097,20.5590968 17.5897419,19.9590968 C17.5897419,19.9590968 17.905871,21.5352258 18.8800645,21.4829677 C18.8800645,21.4829677 18.4232903,18.2978065 20.8890968,16.9016774 C20.8890968,16.9016774 20.6529677,17.9384516 22.0123226,19.6410323 C22.0123226,19.6410323 22.165871,19.8229677 22.4865161,20.3287742 Z" id="Stroke-5"></path>
                <path d="M18.6946452,29.5916774 L18.6946452,33.3284516" id="Stroke-7"></path>
                <path d="M21.9204516,29.5916774 L21.9204516,33.3284516" id="Stroke-9"></path>
                <polyline id="Stroke-11" points="18.6946452 29.5916774 20.3075484 31.7600645 21.9204516 29.5916774"></polyline>
                <polyline id="Stroke-13" points="14.6623871 29.5916774 14.6623871 31.4600645 14.6623871 33.3284516"></polyline>
                <polyline id="Stroke-15" points="16.9204516 29.5916774 15.8449677 31.4600645 16.9204516 33.3284516"></polyline>
                <path d="M14.6623871,31.4597419 L15.8449677,31.4597419" id="Stroke-17"></path>
                <path d="M23.5554194,30.5612903 C23.5554194,29.9748387 24.0309032,29.4993548 24.6173548,29.4993548 C25.2044516,29.4993548 25.6799355,29.8574194 25.6799355,30.5612903 C25.6799355,31.0329032 25.3947742,31.3154839 24.7431613,32.0425806 C24.1573548,32.696129 23.5554194,33.3283871 23.5554194,33.3283871 L25.6799355,33.3283871" id="Stroke-19"></path>
            </g>
        </g>
    </g>
</svg>