<svg id="Layer_1" data-name="Layer 1" xmlns="http://www.w3.org/2000/svg" viewBox="0 0 41.2 41.2"><defs><style>.cls-1{fill:#4f5053;}</style></defs><title>2 levels</title><path class="cls-1" d="M12.44,15h1a1,1,0,0,0,1.11-1,.85.85,0,0,0-.44-.78.85.85,0,0,0,.39-.7,1,1,0,0,0-1.14-1h-.94a.57.57,0,0,0-.42.12.54.54,0,0,0-.12.41v2.49a.45.45,0,0,0,.54.54Zm.34-2.78h.55a.29.29,0,1,1,0,.58h-.55Zm0,1.37h.59a.29.29,0,0,1,.32.31.3.3,0,0,1-.32.32h-.59Z"/><path class="cls-1" d="M15.7,15h1.39a.73.73,0,0,0,.34,0,.38.38,0,0,0,.19-.34.36.36,0,0,0-.19-.34.62.62,0,0,0-.34-.05h-1v-.63h.82a.71.71,0,0,0,.33,0,.39.39,0,0,0,.19-.35.38.38,0,0,0-.19-.34.69.69,0,0,0-.33-.05h-.82v-.59h1a.73.73,0,0,0,.34-.05.38.38,0,0,0,.19-.34.39.39,0,0,0-.19-.35.76.76,0,0,0-.34,0H15.7a.44.44,0,0,0-.53.53v2.49a.57.57,0,0,0,.12.42A.54.54,0,0,0,15.7,15Z"/><path class="cls-1" d="M18.84,14.63a.7.7,0,0,0,.17.31.4.4,0,0,0,.3.11.39.39,0,0,0,.3-.11.55.55,0,0,0,.17-.31l.84-2.5a.63.63,0,0,0,.06-.35.41.41,0,0,0-.42-.33.34.34,0,0,0-.26.1.72.72,0,0,0-.16.32l-.53,1.63-.53-1.63c-.06-.18-.08-.25-.16-.32a.33.33,0,0,0-.26-.1.42.42,0,0,0-.42.33.74.74,0,0,0,.06.35Z"/><path class="cls-1" d="M21.67,11.47a.44.44,0,0,0-.53.53v2.49a.57.57,0,0,0,.12.42.54.54,0,0,0,.41.12h1.39a.73.73,0,0,0,.34,0,.38.38,0,0,0,.19-.34.36.36,0,0,0-.19-.34.62.62,0,0,0-.34-.05H22v-.63h.82a.69.69,0,0,0,.33,0,.39.39,0,0,0,.19-.35.38.38,0,0,0-.19-.34.66.66,0,0,0-.33-.05H22v-.59h1a.73.73,0,0,0,.34-.05.38.38,0,0,0,.19-.34.39.39,0,0,0-.19-.35.76.76,0,0,0-.34,0Z"/><path class="cls-1" d="M24.7,15H26a.69.69,0,0,0,.33,0,.38.38,0,0,0,.19-.34.36.36,0,0,0-.19-.34.58.58,0,0,0-.33-.05h-1V12a.77.77,0,0,0-.06-.38.43.43,0,0,0-.38-.21.43.43,0,0,0-.39.21.79.79,0,0,0,0,.38v2.45a.57.57,0,0,0,.12.42A.54.54,0,0,0,24.7,15Z"/><path class="cls-1" d="M28.07,14.28a1.37,1.37,0,0,1-.58-.13.91.91,0,0,0-.34-.1.32.32,0,0,0-.24.09.42.42,0,0,0-.12.29c0,.26.17.39.46.51a2.36,2.36,0,0,0,.82.12c.75,0,1.38-.4,1.38-1.12a1,1,0,0,0-.27-.78,1.23,1.23,0,0,0-.7-.3l-.43-.06a.49.49,0,0,1-.25-.1.28.28,0,0,1-.07-.19c0-.13.13-.3.43-.3a1.19,1.19,0,0,1,.49.1.84.84,0,0,0,.31.08.34.34,0,0,0,.26-.12.47.47,0,0,0,.1-.27c0-.19-.14-.34-.37-.43a2.07,2.07,0,0,0-.76-.13,1.15,1.15,0,0,0-1.3,1.12,1,1,0,0,0,.24.72,1.2,1.2,0,0,0,.72.31l.43.06a.38.38,0,0,1,.23.1.28.28,0,0,1,.07.21C28.58,14.16,28.42,14.28,28.07,14.28Z"/><path class="cls-1" d="M18.19,8.58A.64.64,0,0,0,18,9a.41.41,0,0,0,.11.3.53.53,0,0,0,.4.12h1.32a.64.64,0,0,0,.32,0,.35.35,0,0,0,.18-.32.38.38,0,0,0-.18-.33.67.67,0,0,0-.32,0h-.76l.68-.76a1.49,1.49,0,0,0,.54-1.07c0-.67-.47-1-1.16-1a1.2,1.2,0,0,0-.79.24.77.77,0,0,0-.32.6A.42.42,0,0,0,18.1,7a.39.39,0,0,0,.3.12A.41.41,0,0,0,18.62,7a.52.52,0,0,0,.16-.19c.09-.17.16-.26.36-.26a.3.3,0,0,1,.32.31.75.75,0,0,1-.26.53Z"/><path class="cls-1" d="M21.52,9a.7.7,0,0,0,.17.31.4.4,0,0,0,.3.11.39.39,0,0,0,.3-.11A.61.61,0,0,0,22.46,9l.84-2.5a.63.63,0,0,0,.06-.35.42.42,0,0,0-.42-.33.34.34,0,0,0-.26.1.72.72,0,0,0-.16.32L22,7.9l-.53-1.63C21.4,6.09,21.38,6,21.3,6a.33.33,0,0,0-.26-.1.42.42,0,0,0-.42.33.74.74,0,0,0,.06.35Z"/><path class="cls-1" d="M41.2,20.6A20.6,20.6,0,1,0,7.86,36.76a.53.53,0,0,0,.24.17,20.29,20.29,0,0,0,8.09,3.78h0a20.38,20.38,0,0,0,16.63-3.6.6.6,0,0,0,.27-.2A20.56,20.56,0,0,0,41.2,20.6Zm-9.15,4.53v11.1a19.45,19.45,0,0,1-6.91,3.21V25.13ZM1.51,23.93A19.27,19.27,0,0,1,1.2,20.6c0-.08,0-.15,0-.23a.6.6,0,0,0,.27.07H19l1.22,1.86s0,0,0,0a.89.89,0,0,0,.14.13h0a.6.6,0,0,0,.31.1h0a.57.57,0,0,0,.3-.1h0a.89.89,0,0,0,.14-.13l0,0,1.22-1.86H40s0,.11,0,.16a19.27,19.27,0,0,1-.31,3.33Zm14.32,1.2V39.38a19.28,19.28,0,0,1-6.91-3.33V25.13ZM20.6,1.2a19.41,19.41,0,0,1,19.33,18H22.16a.58.58,0,0,0-.5.27l-.91,1.37-.9-1.37a.6.6,0,0,0-.5-.27H1.48a.46.46,0,0,0-.21.05A19.41,19.41,0,0,1,20.6,1.2ZM1.76,25.13h6v9.93A19.34,19.34,0,0,1,1.76,25.13ZM17,39.66V25.13h6.91V39.69A19.39,19.39,0,0,1,20.6,40,20,20,0,0,1,17,39.66Zm16.22-4.38V25.13h6.19A19.38,19.38,0,0,1,33.25,35.28Z"/></svg>