<svg id="Layer_1" data-name="Layer 1" xmlns="http://www.w3.org/2000/svg" viewBox="0 0 41.2 41.2"><defs><style>.cls-1{fill:#4f5053;}</style></defs><title>4 levels</title><path class="cls-1" d="M12.44,15h1a1,1,0,0,0,1.11-1,.85.85,0,0,0-.44-.78.85.85,0,0,0,.39-.7,1,1,0,0,0-1.14-1h-.94a.57.57,0,0,0-.42.12.54.54,0,0,0-.12.41v2.49a.45.45,0,0,0,.54.54Zm.34-2.78h.55a.29.29,0,1,1,0,.58h-.55Zm0,1.37h.59a.29.29,0,0,1,.32.31.3.3,0,0,1-.32.32h-.59Z"/><path class="cls-1" d="M15.7,15h1.39a.73.73,0,0,0,.34,0,.38.38,0,0,0,.19-.34.36.36,0,0,0-.19-.34.62.62,0,0,0-.34-.05h-1v-.63h.82a.57.57,0,0,0,.33,0,.36.36,0,0,0,.19-.34.38.38,0,0,0-.19-.34.66.66,0,0,0-.33-.05h-.82v-.59h1a.73.73,0,0,0,.34-.05.38.38,0,0,0,.19-.34.39.39,0,0,0-.19-.35.76.76,0,0,0-.34,0H15.7a.44.44,0,0,0-.53.53v2.49a.57.57,0,0,0,.12.42A.54.54,0,0,0,15.7,15Z"/><path class="cls-1" d="M20,11.55a.72.72,0,0,0-.16.32l-.53,1.63-.53-1.63a.56.56,0,0,0-.16-.32.33.33,0,0,0-.26-.11.43.43,0,0,0-.42.34.74.74,0,0,0,.06.35l.84,2.5a.61.61,0,0,0,.18.31.38.38,0,0,0,.29.11.39.39,0,0,0,.3-.11.61.61,0,0,0,.18-.31l.83-2.5a.63.63,0,0,0,.06-.35.42.42,0,0,0-.42-.34A.36.36,0,0,0,20,11.55Z"/><path class="cls-1" d="M21.68,11.47a.56.56,0,0,0-.42.12.54.54,0,0,0-.12.41v2.49a.57.57,0,0,0,.12.42.56.56,0,0,0,.42.12h1.38a.73.73,0,0,0,.34,0,.38.38,0,0,0,.19-.34.36.36,0,0,0-.19-.34.62.62,0,0,0-.34-.05H22v-.63h.82a.57.57,0,0,0,.33,0,.36.36,0,0,0,.19-.34.38.38,0,0,0-.19-.34.66.66,0,0,0-.33-.05H22v-.59h1a.73.73,0,0,0,.34-.05.38.38,0,0,0,.19-.34.39.39,0,0,0-.19-.35.76.76,0,0,0-.34,0Z"/><path class="cls-1" d="M24.7,15H26a.66.66,0,0,0,.33,0,.38.38,0,0,0,.19-.34.36.36,0,0,0-.19-.34.57.57,0,0,0-.33-.05h-1V12a.77.77,0,0,0-.06-.38.43.43,0,0,0-.38-.22.44.44,0,0,0-.39.22.79.79,0,0,0,0,.38v2.45a.57.57,0,0,0,.12.42A.54.54,0,0,0,24.7,15Z"/><path class="cls-1" d="M28.07,14.28a1.37,1.37,0,0,1-.58-.13.91.91,0,0,0-.34-.1.32.32,0,0,0-.24.09.42.42,0,0,0-.12.29c0,.26.17.39.46.51a2.36,2.36,0,0,0,.82.12c.75,0,1.38-.4,1.38-1.12a1,1,0,0,0-.27-.78,1.23,1.23,0,0,0-.7-.3l-.43-.06a.45.45,0,0,1-.24-.1.25.25,0,0,1-.08-.19c0-.13.13-.3.44-.3a1.15,1.15,0,0,1,.48.1.89.89,0,0,0,.31.08.34.34,0,0,0,.26-.12.47.47,0,0,0,.1-.27.49.49,0,0,0-.36-.43,2.17,2.17,0,0,0-.77-.13,1.15,1.15,0,0,0-1.3,1.12,1,1,0,0,0,.24.72,1.2,1.2,0,0,0,.72.31l.43.06a.41.41,0,0,1,.24.1.28.28,0,0,1,.07.21C28.59,14.16,28.42,14.28,28.07,14.28Z"/><path class="cls-1" d="M18.38,8.92h.78a.73.73,0,0,0,.05.34.38.38,0,0,0,.34.19.36.36,0,0,0,.34-.19.62.62,0,0,0,.05-.34h0a.66.66,0,0,0,.33-.05.38.38,0,0,0,.19-.34.36.36,0,0,0-.19-.34.57.57,0,0,0-.33,0h0a.58.58,0,0,0-.05-.33.36.36,0,0,0-.34-.19.38.38,0,0,0-.34.19.69.69,0,0,0-.05.33h-.4l.81-1.62a.56.56,0,0,0,.1-.31.38.38,0,0,0-.39-.36.32.32,0,0,0-.2.06.72.72,0,0,0-.19.27l-1,2a.74.74,0,0,0-.11.35.37.37,0,0,0,.14.3A.62.62,0,0,0,18.38,8.92Z"/><path class="cls-1" d="M21.52,9a.7.7,0,0,0,.17.31.4.4,0,0,0,.3.11.39.39,0,0,0,.3-.11A.55.55,0,0,0,22.46,9l.84-2.5a.63.63,0,0,0,.06-.35.41.41,0,0,0-.42-.33.35.35,0,0,0-.26.1.72.72,0,0,0-.16.32L22,7.9l-.53-1.63C21.4,6.09,21.38,6,21.3,6a.33.33,0,0,0-.26-.1.42.42,0,0,0-.42.33.74.74,0,0,0,.06.35Z"/><path class="cls-1" d="M41.2,20.6A20.6,20.6,0,1,0,7.86,36.76a.53.53,0,0,0,.24.17,20.35,20.35,0,0,0,8.09,3.78h0a20.42,20.42,0,0,0,16.65-3.6.6.6,0,0,0,.27-.2A20.56,20.56,0,0,0,41.2,20.6Zm-1.57,3.33H1.51A19.27,19.27,0,0,1,1.2,20.6c0-.08,0-.15,0-.23a.6.6,0,0,0,.27.07H19l1.22,1.86s0,0,0,0a.58.58,0,0,0,.14.13h0a.6.6,0,0,0,.31.1h0a.57.57,0,0,0,.3-.1h0a.89.89,0,0,0,.14-.13l0,0,1.22-1.86H40c0,.06,0,.11,0,.16a19.39,19.39,0,0,1-.31,3.34Zm-23.8,1.2v4.3H8.92v-4.3Zm-6.91,5.5h6.91v8.75a19.28,19.28,0,0,1-6.91-3.33ZM17,25.13h6.91v9.2H17Zm8.11,5.5h6.91v5.6a19.45,19.45,0,0,1-6.91,3.21Zm6.91-1.2H25.14v-4.3h6.91ZM20.6,1.2a19.41,19.41,0,0,1,19.33,18H22.16a.58.58,0,0,0-.5.27l-.91,1.37-.9-1.37a.6.6,0,0,0-.5-.27H1.48a.65.65,0,0,0-.21,0A19.41,19.41,0,0,1,20.6,1.2ZM1.76,25.13h6v9.93A19.34,19.34,0,0,1,1.76,25.13ZM17,39.66V35.53h6.91v4.16A19.39,19.39,0,0,1,20.6,40,20,20,0,0,1,17,39.66Zm16.22-4.38V25.13h6.19A19.38,19.38,0,0,1,33.25,35.28Z"/></svg>