<svg id="Layer_1" data-name="Layer 1" xmlns="http://www.w3.org/2000/svg" viewBox="0 0 41.2 41.2"><defs><style>.cls-1{fill:#4f5053;}</style></defs><title>Artboard 22</title><path class="cls-1" d="M20.6,0A20.6,20.6,0,1,0,41.2,20.6,20.62,20.62,0,0,0,20.6,0Zm0,40A19.4,19.4,0,1,1,40,20.6,19.42,19.42,0,0,1,20.6,40Z"/><path class="cls-1" d="M30.92,24.59H27.09a3.18,3.18,0,0,0,.83-2.12V15.73a2.24,2.24,0,0,0-2.25-2.24H23.3l.22-5.7a1.27,1.27,0,0,0-1.23-1.37H20.88a1.24,1.24,0,0,0-1.24,1.25l.23,5.82H17.49a2.24,2.24,0,0,0-2.24,2.24v6.74a2.11,2.11,0,0,1-2.1,2.1l-.11,0H10.28a.54.54,0,0,0,0,1.08H30.92a.54.54,0,0,0,0-1.08ZM16.33,17.42h10.5v.52H16.33Zm4.4-9.77a.15.15,0,0,1,.15-.15h1.41c.14,0,.15.24.15.27l-.22,5.72H21Zm-4.4,8.08a1.16,1.16,0,0,1,1.16-1.16h8.18a1.16,1.16,0,0,1,1.16,1.16v.61H16.33v-.61Zm0,7a.33.33,0,0,0,0-.15V19h10.5v3.45a2.11,2.11,0,0,1-2.1,2.1l-.11,0H19.38A2.67,2.67,0,0,0,20,22.94a.54.54,0,0,0-1.08,0,1.64,1.64,0,0,1-1.63,1.63l-.12,0H15.5A3.12,3.12,0,0,0,16.3,22.76Z"/><path class="cls-1" d="M14.93,28.64h-.74a.4.4,0,0,0-.46.46v2.08a.56.56,0,0,0,0,.32.37.37,0,0,0,.32.18.37.37,0,0,0,.33-.18.56.56,0,0,0,.05-.32v-.6h.45a1,1,0,1,0,0-1.94Zm0,1.28h-.42V29.3h.42a.31.31,0,1,1,0,.62Z"/><path class="cls-1" d="M17.44,28.62a1.09,1.09,0,0,0-.84.33,1.51,1.51,0,0,0-.31,1.2,1.55,1.55,0,0,0,.31,1.21,1.13,1.13,0,0,0,.84.33,1.11,1.11,0,0,0,.84-.33,1.55,1.55,0,0,0,.32-1.21,1.51,1.51,0,0,0-.32-1.2A1.08,1.08,0,0,0,17.44,28.62Zm.3,2.27a.39.39,0,0,1-.3.13.36.36,0,0,1-.29-.13c-.07-.09-.12-.19-.12-.74s0-.65.12-.74a.36.36,0,0,1,.29-.13.39.39,0,0,1,.3.13c.07.09.11.19.11.74S17.81,30.8,17.74,30.89Z"/><path class="cls-1" d="M21,31a.57.57,0,0,0-.29,0h-.84V29.12a.54.54,0,0,0-.05-.31.34.34,0,0,0-.32-.19.36.36,0,0,0-.33.19.64.64,0,0,0-.05.31v2.09a.45.45,0,0,0,.11.35.46.46,0,0,0,.35.1h1.14a.55.55,0,0,0,.28,0A.34.34,0,0,0,21,31Z"/><path class="cls-1" d="M21.9,28.62a.36.36,0,0,0-.33.19.64.64,0,0,0-.05.31v2.06a.67.67,0,0,0,.05.32.37.37,0,0,0,.33.18.35.35,0,0,0,.32-.18.56.56,0,0,0,.05-.32V29.12a.54.54,0,0,0-.05-.31A.34.34,0,0,0,21.9,28.62Z"/><path class="cls-1" d="M24.09,29.82l-.36-.05a.38.38,0,0,1-.21-.08.22.22,0,0,1-.06-.17c0-.11.11-.25.37-.25a1.19,1.19,0,0,1,.41.08.65.65,0,0,0,.26.08.3.3,0,0,0,.22-.11.39.39,0,0,0,.09-.22.42.42,0,0,0-.31-.37,1.8,1.8,0,0,0-.65-.11,1,1,0,0,0-1.1.95.85.85,0,0,0,.2.61,1,1,0,0,0,.61.26l.36,0a.34.34,0,0,1,.2.09.2.2,0,0,1,.06.17c0,.18-.14.28-.43.28a1.35,1.35,0,0,1-.5-.11.78.78,0,0,0-.28-.09.28.28,0,0,0-.21.08.37.37,0,0,0-.1.24c0,.22.15.34.39.44a2,2,0,0,0,.7.1c.63,0,1.16-.34,1.16-1a.91.91,0,0,0-.22-.67A1.08,1.08,0,0,0,24.09,29.82Z"/><path class="cls-1" d="M27.29,28.62a.35.35,0,0,0-.32.19.54.54,0,0,0,0,.31v.68h-.79v-.68a.66.66,0,0,0,0-.31.38.38,0,0,0-.66,0,.66.66,0,0,0,0,.31v2.06a.69.69,0,0,0,0,.32.39.39,0,0,0,.66,0,.69.69,0,0,0,0-.32v-.71h.79v.71a.56.56,0,0,0,0,.32.37.37,0,0,0,.32.18.37.37,0,0,0,.33-.18.56.56,0,0,0,.05-.32V29.12a.54.54,0,0,0-.05-.31A.36.36,0,0,0,27.29,28.62Z"/></svg>