<svg id="Layer_1" data-name="Layer 1" xmlns="http://www.w3.org/2000/svg" viewBox="0 0 41.2 41.2"><defs><style>.cls-1{fill:#4e4f52;}</style></defs><title>polish wrt</title><path class="cls-1" d="M20.6,0A20.6,20.6,0,1,0,41.2,20.6,20.62,20.62,0,0,0,20.6,0Zm0,40A19.4,19.4,0,1,1,40,20.6,19.42,19.42,0,0,1,20.6,40Z"/><path class="cls-1" d="M10.28,25.67H30.92a.54.54,0,0,0,0-1.08H27.09a3.18,3.18,0,0,0,.83-2.12V15.73a2.24,2.24,0,0,0-2.25-2.24H23.3l.22-5.7a1.27,1.27,0,0,0-1.23-1.37H20.88a1.24,1.24,0,0,0-1.24,1.25l.23,5.82H17.49a2.24,2.24,0,0,0-2.24,2.24v6.74a2.11,2.11,0,0,1-2.1,2.1l-.11,0H10.28a.54.54,0,0,0,0,1.08ZM20.88,7.5h1.41c.14,0,.15.24.15.27l-.22,5.72H21l-.22-5.84A.15.15,0,0,1,20.88,7.5Zm-4.55,8.69v-.46a1.16,1.16,0,0,1,1.16-1.16h8.18a1.16,1.16,0,0,1,1.16,1.16v.61H16.33Zm0,1.23h10.5v.52H16.33Zm0,5.34a.33.33,0,0,0,0-.15V19h10.5v3.45a2.11,2.11,0,0,1-2.1,2.1l-.11,0H19.38A2.67,2.67,0,0,0,20,22.94a.54.54,0,0,0-1.08,0,1.64,1.64,0,0,1-1.63,1.63l-.12,0H15.5A3.12,3.12,0,0,0,16.3,22.76Z"/><path class="cls-1" d="M9.92,28.64H9.18a.4.4,0,0,0-.46.46v2.08a.56.56,0,0,0,0,.32.37.37,0,0,0,.32.18.37.37,0,0,0,.33-.18.56.56,0,0,0,.05-.32v-.6h.45a1,1,0,1,0,0-1.94Zm0,1.28H9.47V29.3h.42a.31.31,0,1,1,0,.62Z"/><path class="cls-1" d="M12.43,28.62a1.09,1.09,0,0,0-.84.33,1.51,1.51,0,0,0-.31,1.2,1.55,1.55,0,0,0,.31,1.21,1.13,1.13,0,0,0,.84.33,1.11,1.11,0,0,0,.84-.33,1.55,1.55,0,0,0,.31-1.21,1.51,1.51,0,0,0-.31-1.2A1.08,1.08,0,0,0,12.43,28.62Zm.3,2.27a.39.39,0,0,1-.3.13.4.4,0,0,1-.3-.13c-.06-.09-.11-.19-.11-.74s.05-.65.11-.74a.4.4,0,0,1,.3-.13.39.39,0,0,1,.3.13c.07.09.11.19.11.74S12.8,30.8,12.73,30.89Z"/><path class="cls-1" d="M16,31a.51.51,0,0,0-.28,0h-.84V29.12a.54.54,0,0,0-.05-.31.34.34,0,0,0-.32-.19.36.36,0,0,0-.33.19.64.64,0,0,0-.05.31v2.09a.45.45,0,0,0,.11.35.46.46,0,0,0,.35.1h1.13a.51.51,0,0,0,.28,0A.33.33,0,0,0,16,31Z"/><path class="cls-1" d="M16.89,28.62a.36.36,0,0,0-.33.19.64.64,0,0,0,0,.31v2.06a.67.67,0,0,0,0,.32.37.37,0,0,0,.33.18.37.37,0,0,0,.32-.18.56.56,0,0,0,.05-.32V29.12a.54.54,0,0,0-.05-.31A.35.35,0,0,0,16.89,28.62Z"/><path class="cls-1" d="M19.08,29.82l-.36-.05a.38.38,0,0,1-.21-.08.22.22,0,0,1-.06-.17c0-.11.11-.25.37-.25a1.19,1.19,0,0,1,.41.08.65.65,0,0,0,.26.08.3.3,0,0,0,.22-.11.39.39,0,0,0,.09-.22.42.42,0,0,0-.31-.37,1.8,1.8,0,0,0-.65-.11,1,1,0,0,0-1.11.95.85.85,0,0,0,.21.61,1,1,0,0,0,.61.26l.36,0a.37.37,0,0,1,.2.09.2.2,0,0,1,.06.17c0,.18-.14.28-.43.28a1.35,1.35,0,0,1-.5-.11.76.76,0,0,0-.29-.09.27.27,0,0,0-.2.08.37.37,0,0,0-.1.24c0,.22.15.34.39.44a2,2,0,0,0,.7.1c.63,0,1.16-.34,1.16-1a.91.91,0,0,0-.22-.67A1.11,1.11,0,0,0,19.08,29.82Z"/><path class="cls-1" d="M22.28,28.62a.35.35,0,0,0-.32.19.54.54,0,0,0-.05.31v.68h-.79v-.68a.66.66,0,0,0,0-.31.38.38,0,0,0-.66,0,.66.66,0,0,0,0,.31v2.06a.69.69,0,0,0,0,.32.39.39,0,0,0,.66,0,.69.69,0,0,0,0-.32v-.71h.79v.71a.56.56,0,0,0,.05.32.37.37,0,0,0,.32.18.37.37,0,0,0,.33-.18.56.56,0,0,0,.05-.32V29.12a.54.54,0,0,0-.05-.31A.36.36,0,0,0,22.28,28.62Z"/><path class="cls-1" d="M27.17,28.62a.3.3,0,0,0-.24.11.63.63,0,0,0-.11.28l-.3,1.23-.41-1.32a.41.41,0,0,0-.11-.21.31.31,0,0,0-.24-.09.29.29,0,0,0-.23.09.5.5,0,0,0-.12.21L25,30.24,24.71,29a.52.52,0,0,0-.12-.28.28.28,0,0,0-.23-.11.36.36,0,0,0-.36.25.78.78,0,0,0,0,.31l.52,2.1a.53.53,0,0,0,.17.32.43.43,0,0,0,.5,0,.56.56,0,0,0,.17-.32l.36-1.17.36,1.17a.64.64,0,0,0,.18.32.39.39,0,0,0,.25.08.38.38,0,0,0,.24-.08.54.54,0,0,0,.18-.32l.52-2.1a.6.6,0,0,0,0-.31A.35.35,0,0,0,27.17,28.62Z"/><path class="cls-1" d="M30.16,29.61a1,1,0,0,0-1-1h-.75a.44.44,0,0,0-.35.11.46.46,0,0,0-.1.35v2.08a.69.69,0,0,0,0,.32.39.39,0,0,0,.66,0,.69.69,0,0,0,0-.32v-.64h.26l.48.84c.08.15.17.3.36.3a.41.41,0,0,0,.19-.05.33.33,0,0,0,.18-.3A.55.55,0,0,0,30,31l-.35-.62A.89.89,0,0,0,30.16,29.61Zm-1.07.31h-.42V29.3h.42a.31.31,0,1,1,0,.62Z"/><path class="cls-1" d="M32.52,28.68a.63.63,0,0,0-.28,0H30.87a.71.71,0,0,0-.29,0,.33.33,0,0,0-.16.29.32.32,0,0,0,.16.29.57.57,0,0,0,.29,0h.31v1.88a.56.56,0,0,0,.05.32.37.37,0,0,0,.32.18.37.37,0,0,0,.33-.18.67.67,0,0,0,.05-.32V29.3h.31a.51.51,0,0,0,.28,0,.3.3,0,0,0,.16-.29A.31.31,0,0,0,32.52,28.68Z"/></svg>