<svg id="Layer_1" data-name="Layer 1" xmlns="http://www.w3.org/2000/svg" viewBox="0 0 41.2 41.2"><defs><style>.cls-1{fill:#4f5053;}</style></defs><title>oil</title><path class="cls-1" d="M20.6,0A20.6,20.6,0,1,0,41.2,20.6,20.62,20.62,0,0,0,20.6,0Zm0,40A19.4,19.4,0,1,1,40,20.6,19.42,19.42,0,0,1,20.6,40Z"/><path class="cls-1" d="M30.92,24.59H27.09a3.18,3.18,0,0,0,.83-2.12V15.73a2.24,2.24,0,0,0-2.25-2.24H23.3l.22-5.7a1.27,1.27,0,0,0-1.23-1.37H20.88a1.24,1.24,0,0,0-1.24,1.25l.23,5.82H17.49a2.24,2.24,0,0,0-2.24,2.24v6.74a2.11,2.11,0,0,1-2.1,2.1l-.11,0H10.28a.54.54,0,0,0,0,1.08H30.92a.54.54,0,0,0,0-1.08ZM20.73,7.65a.15.15,0,0,1,.15-.15h1.41c.14,0,.15.24.15.27l-.22,5.72H21Zm-4.4,8.08a1.16,1.16,0,0,1,1.16-1.16h8.18a1.16,1.16,0,0,1,1.16,1.16v.84H16.33v-.84Zm0,7a.33.33,0,0,0,0-.15V18.73h10.5v3.74a2.11,2.11,0,0,1-2.1,2.1l-.11,0H19.38A2.67,2.67,0,0,0,20,22.94a.54.54,0,0,0-1.08,0,1.64,1.64,0,0,1-1.63,1.63l-.12,0H15.5A3.12,3.12,0,0,0,16.3,22.76Z"/><path class="cls-1" d="M18.72,28.62a1.11,1.11,0,0,0-.85.33,1.55,1.55,0,0,0-.31,1.2,1.59,1.59,0,0,0,.31,1.21,1.25,1.25,0,0,0,1.69,0,1.59,1.59,0,0,0,.31-1.21,1.55,1.55,0,0,0-.31-1.2A1.11,1.11,0,0,0,18.72,28.62ZM19,30.89a.36.36,0,0,1-.29.13.37.37,0,0,1-.3-.13c-.07-.09-.11-.19-.11-.74s0-.65.11-.74a.37.37,0,0,1,.3-.13.36.36,0,0,1,.29.13c.07.09.11.19.11.74S19.08,30.8,19,30.89Z"/><path class="cls-1" d="M20.74,28.62a.37.37,0,0,0-.33.19.66.66,0,0,0,0,.31v2.06a.69.69,0,0,0,0,.32.38.38,0,0,0,.33.18.37.37,0,0,0,.33-.18.69.69,0,0,0,0-.32V29.12a.66.66,0,0,0,0-.31A.36.36,0,0,0,20.74,28.62Z"/><path class="cls-1" d="M23.58,31a.51.51,0,0,0-.28,0h-.84V29.12a.54.54,0,0,0-.05-.31.34.34,0,0,0-.32-.19.36.36,0,0,0-.33.19.64.64,0,0,0-.05.31v2.09a.45.45,0,0,0,.11.35.46.46,0,0,0,.35.1H23.3a.51.51,0,0,0,.28,0,.33.33,0,0,0,0-.58Z"/></svg>