<svg id="Layer_1" data-name="Layer 1" xmlns="http://www.w3.org/2000/svg" viewBox="0 0 40.43 40.43"><defs><style>.cls-1{fill:#4f5053;}</style></defs><title>no wash</title><path class="cls-1" d="M20.21,0A20.22,20.22,0,1,0,40.43,20.21,20.24,20.24,0,0,0,20.21,0ZM6.38,33.21A19,19,0,0,1,33.21,6.38l0,0-4.77,4.77a6.49,6.49,0,0,0-11.83.34,0,0,0,0,1,0,0c-5,.13-7.25,4.15-7.25,5.7v1.24a.65.65,0,0,0,.65.65H20.45l-1.93,1.93v-.33a.62.62,0,0,0-.61-.61.61.61,0,0,0-.61.61v1.55l-1.54,1.54s0-.06,0-.1v-3a.62.62,0,0,0-.61-.61.61.61,0,0,0-.61.61v3a.61.61,0,0,0,.61.61l.1,0L13,26.54v-.1a.61.61,0,0,0-.61-.61.61.61,0,0,0-.61.61v1.32L6.4,33.18ZM17.88,11.6a5.26,5.26,0,0,1,9.61.49l-3.62,3.62A7.55,7.55,0,0,0,17.88,11.6Zm5,5.08-1.16,1.16H10.62v-.6c0-1.07,1.86-4.42,6.19-4.42A6.26,6.26,0,0,1,22.9,16.68ZM20.21,39.23a18.94,18.94,0,0,1-13-5.18l0,0,4.57-4.57a.61.61,0,0,0,1.22,0V28.24l1.52-1.52v2.71a.61.61,0,0,0,.61.61.61.61,0,0,0,.61-.61v-3a.61.61,0,0,0-.38-.56l1.94-1.94a.61.61,0,0,0,1.18-.22v-1L20,21.24v2.48a.61.61,0,0,0,.61.61.61.61,0,0,0,.61-.61v-3a.61.61,0,0,0-.24-.47l1.13-1.13h1.5a.65.65,0,0,0,.65-.65V17.24a1.94,1.94,0,0,0,0-.24l3.53-3.53a4.36,4.36,0,0,1,.05.52s0,0,0,0,0,0,0,.05V32.32a.6.6,0,0,0,1.2,0V14.09s0,0,0-.05,0,0,0,0a6.25,6.25,0,0,0-.2-1.57L34,7.25s0,0,0,0a19,19,0,0,1-13.84,32Z"/><path class="cls-1" d="M12.43,24.33a.61.61,0,0,0,.61-.61v-3a.62.62,0,0,0-.61-.61.61.61,0,0,0-.61.61v3A.61.61,0,0,0,12.43,24.33Z"/><path class="cls-1" d="M17.91,25.83a.61.61,0,0,0-.61.61v3a.61.61,0,0,0,.61.61.61.61,0,0,0,.61-.61v-3A.61.61,0,0,0,17.91,25.83Z"/><path class="cls-1" d="M20.65,25.83a.61.61,0,0,0-.61.61v3a.61.61,0,0,0,.61.61.61.61,0,0,0,.61-.61v-3A.61.61,0,0,0,20.65,25.83Z"/></svg>