<svg id="Layer_1" data-name="Layer 1" xmlns="http://www.w3.org/2000/svg" viewBox="0 0 40.43 40.43"><defs><style>.cls-1{fill:#4f5053;}</style></defs><title>protect uv</title><path class="cls-1" d="M30.29,11.12a.57.57,0,0,0-.52-.09,8.85,8.85,0,0,1-9.08-3.09.63.63,0,0,0-1,0A8.85,8.85,0,0,1,10.66,11a.57.57,0,0,0-.52.09.61.61,0,0,0-.24.48s-.05,3.83,0,8.39c0,8.29,9.7,12.51,10.11,12.68a.46.46,0,0,0,.23,0,.52.52,0,0,0,.24,0c.41-.17,10.08-4.39,10.11-12.68,0-4.56,0-8.36,0-8.39A.61.61,0,0,0,30.29,11.12ZM29.36,20c0,6.81-7.69,10.78-9.15,11.47-1.45-.69-9.12-4.65-9.14-11.47,0-3.39,0-6.35,0-7.66a10.08,10.08,0,0,0,9.12-3.08,10.1,10.1,0,0,0,9.13,3.08C29.35,13.64,29.38,16.6,29.36,20Z"/><path class="cls-1" d="M20.21,0A20.22,20.22,0,1,0,40.43,20.21,20.24,20.24,0,0,0,20.21,0Zm0,39.23a19,19,0,1,1,19-19A19,19,0,0,1,20.21,39.23Z"/><path class="cls-1" d="M19.45,17.42a.56.56,0,0,0-.5.27,1,1,0,0,0-.08.51v3.12a1,1,0,1,1-2,0V18.2a1,1,0,0,0-.08-.51.57.57,0,0,0-.51-.27.56.56,0,0,0-.5.27,1,1,0,0,0-.08.51v3.16a2.07,2.07,0,0,0,2.19,2.09A2.07,2.07,0,0,0,20,21.36V18.2a1,1,0,0,0-.08-.51A.57.57,0,0,0,19.45,17.42Z"/><path class="cls-1" d="M24.69,17.42a.47.47,0,0,0-.34.13.94.94,0,0,0-.22.43L23,21.38,21.91,18a.94.94,0,0,0-.22-.43.47.47,0,0,0-.34-.13.55.55,0,0,0-.56.43.93.93,0,0,0,.08.47l1.52,4.54a.92.92,0,0,0,.23.43.57.57,0,0,0,.4.15.54.54,0,0,0,.39-.15.91.91,0,0,0,.24-.43l1.52-4.54a.93.93,0,0,0,.08-.47A.55.55,0,0,0,24.69,17.42Z"/></svg>