<svg id="Layer_1" data-name="Layer 1" xmlns="http://www.w3.org/2000/svg" viewBox="0 0 40.43 40.43"><defs><style>.cls-1{fill:#4e4f52;}</style></defs><title>km3</title><path class="cls-1" d="M20.21,0A20.22,20.22,0,1,0,40.43,20.21,20.24,20.24,0,0,0,20.21,0Zm0,39.23a19,19,0,1,1,19-19A19,19,0,0,1,20.21,39.23Z"/><path class="cls-1" d="M25.27,11.8c-2.82-3.53-2.44-5.69-2.43-5.7a.6.6,0,0,0-.23-.61.59.59,0,0,0-.65,0c-4.8,2.72-5,8.12-4.93,10.18-1.17-.58-1.66-2.82-1.67-2.85a.6.6,0,0,0-.41-.45.61.61,0,0,0-.59.14A8.08,8.08,0,1,0,28,18.31a9.15,9.15,0,0,0-1.65-4.9A16.71,16.71,0,0,0,25.27,11.8ZM19.94,25.19a2.7,2.7,0,0,1-2.7-2.7,2.74,2.74,0,0,1,.26-1.17,1.61,1.61,0,0,0,1.49.9.61.61,0,0,0,.43-.21.65.65,0,0,0,.13-.47,4.45,4.45,0,0,1,.95-3.38,6.23,6.23,0,0,0,1.12,2,5.2,5.2,0,0,1,.43.62,3.16,3.16,0,0,1,.6,1.7A2.7,2.7,0,0,1,19.94,25.19Zm3.47-.94a3.89,3.89,0,0,0,.44-1.76,4.47,4.47,0,0,0-.78-2.34h0a6.1,6.1,0,0,0-.52-.74,3.38,3.38,0,0,1-1-2.23.62.62,0,0,0-.23-.62.59.59,0,0,0-.65,0,4.77,4.77,0,0,0-2.32,3.81c0-.13-.08-.25-.1-.35a.6.6,0,0,0-1-.31,3.84,3.84,0,0,0-.77,4.58,6.88,6.88,0,0,1-2-10.16c.44,1.2,1.42,2.93,3.23,2.86a.6.6,0,0,0,.43-.22.57.57,0,0,0,.13-.47c0-.06-.79-6.05,3.37-9.19a11.37,11.37,0,0,0,2.68,5.49,16.91,16.91,0,0,1,1,1.49,7.88,7.88,0,0,1,1.46,4.26A6.9,6.9,0,0,1,23.41,24.25Z"/><path class="cls-1" d="M16.21,31.2l.78-.94c.21-.25.28-.36.28-.55a.55.55,0,0,0-.22-.42.57.57,0,0,0-.37-.14c-.24,0-.37.12-.57.37l-1.18,1.41V30a1,1,0,0,0-.07-.52.59.59,0,0,0-.54-.3.57.57,0,0,0-.54.3.91.91,0,0,0-.08.52v3.4a1,1,0,0,0,.08.53.59.59,0,0,0,.54.3.61.61,0,0,0,.54-.3,1.09,1.09,0,0,0,.07-.53v-.74l.43-.51.91,1.59c.14.24.29.49.61.49a.55.55,0,0,0,.3-.09.55.55,0,0,0,.31-.49,1,1,0,0,0-.19-.5Z"/><path class="cls-1" d="M22.25,29.14a.63.63,0,0,0-.36.1,1,1,0,0,0-.3.35l-1.08,1.84-1.08-1.84a1,1,0,0,0-.3-.35.63.63,0,0,0-.36-.1.54.54,0,0,0-.42.17.75.75,0,0,0-.18.59v3.47a1.07,1.07,0,0,0,.08.53.6.6,0,0,0,.54.3.61.61,0,0,0,.54-.3,1.07,1.07,0,0,0,.08-.53V31.78l.57,1a.58.58,0,0,0,1.06,0l.57-1v1.59a1,1,0,0,0,.08.53.6.6,0,0,0,.54.3.61.61,0,0,0,.54-.3,1.07,1.07,0,0,0,.08-.53V29.9a.75.75,0,0,0-.18-.59A.54.54,0,0,0,22.25,29.14Z"/><path class="cls-1" d="M26.38,31.59a1.1,1.1,0,0,0,.55-1,1.44,1.44,0,0,0-1.6-1.45,1.69,1.69,0,0,0-1.13.36,1,1,0,0,0-.26.32.87.87,0,0,0-.13.45.54.54,0,0,0,.56.56.45.45,0,0,0,.34-.11.82.82,0,0,0,.21-.3.39.39,0,0,1,.4-.24.44.44,0,0,1,.46.48.46.46,0,0,1-.49.47.77.77,0,0,0-.3.06.48.48,0,0,0-.24.44.46.46,0,0,0,.24.43.77.77,0,0,0,.3.06.51.51,0,0,1,.51.53.47.47,0,0,1-.48.53.43.43,0,0,1-.45-.24,1,1,0,0,0-.22-.31.46.46,0,0,0-.35-.11.58.58,0,0,0-.43.17.6.6,0,0,0-.14.41,1,1,0,0,0,.39.77,1.73,1.73,0,0,0,1.21.35A1.46,1.46,0,0,0,27,32.71,1.26,1.26,0,0,0,26.38,31.59Z"/></svg>