<?xml version="1.0" encoding="UTF-8"?>
<svg width="42px" height="42px" viewBox="0 0 42 42" version="1.1" xmlns="http://www.w3.org/2000/svg" xmlns:xlink="http://www.w3.org/1999/xlink">
    <!-- Generator: Sketch 47.1 (45422) - http://www.bohemiancoding.com/sketch -->
    <title>Group 31</title>
    <desc>Created with Sketch.</desc>
    <defs></defs>
    <g id="main" stroke="none" stroke-width="1" fill="none" fill-rule="evenodd">
        <g id="catalog_residential_2" transform="translate(-439.000000, -491.000000)">
            <g id="Group-31" transform="translate(440.000000, 492.000000)">
                <path d="M40,19.9996711 C40,31.0458366 31.0459838,40 20,40 C8.95467403,40 0,31.0458366 0,19.9996711 C0,8.95416345 8.95467403,0 20,0 C31.0459838,0 40,8.95416345 40,19.9996711 Z" id="Stroke-15" stroke="#4F5053" stroke-width="1.2" stroke-linecap="round" stroke-linejoin="round"></path>
                <path d="M21.2392131,5.27331148 L21.2392131,24.2116721" id="Stroke-17" stroke="#4F5053" stroke-width="1.2" stroke-linecap="round" stroke-linejoin="round"></path>
                <path d="M26.2136393,25.6382951 L16.2641311,25.6382951 C15.8877377,25.6382951 15.5815082,25.3327213 15.5815082,24.9556721 L15.5815082,24.8940328 C15.5815082,24.5176393 15.8877377,24.2114098 16.2641311,24.2114098 L26.2136393,24.2114098 C26.5906885,24.2114098 26.8962623,24.5176393 26.8962623,24.8940328 L26.8962623,24.9556721 C26.8962623,25.3327213 26.5906885,25.6382951 26.2136393,25.6382951 Z" id="Stroke-19" stroke="#4F5053" stroke-width="1.2" stroke-linecap="round" stroke-linejoin="round"></path>
                <path d="M16.1514754,32.8187541 C20.5167213,29.8908852 19.7986885,25.6384262 19.7986885,25.6384262 L16.9678689,25.6384262 C16.9678689,25.6384262 17.6859016,29.8908852 13.3213115,32.8187541 L16.1514754,32.8187541 Z" id="Stroke-21" stroke="#4F5053" stroke-width="1.2"></path>
                <path d="M18.9902295,32.8187541 C23.3548197,29.8908852 22.6374426,25.6384262 22.6374426,25.6384262 L19.806623,25.6384262 C19.806623,25.6384262 20.5246557,29.8908852 16.1594098,32.8187541 L18.9902295,32.8187541 Z" id="Stroke-23" stroke="#4F5053" stroke-width="1.2"></path>
                <path d="M21.8206557,32.8187541 C26.1859016,29.8908852 25.4678689,25.6384262 25.4678689,25.6384262 L22.6370492,25.6384262 C22.6370492,25.6384262 23.355082,29.8908852 18.9904918,32.8187541 L21.8206557,32.8187541 Z" id="Stroke-25" stroke="#4F5053" stroke-width="1.2"></path>
                <polygon id="Fill-27" fill="#4F5053" points="28.6190164 27.6177049 29.8681967 27.6177049 29.8681967 26.3691803 28.6190164 26.3691803"></polygon>
                <polygon id="Fill-29" fill="#4F5053" points="31.117377 27.6177049 32.3659016 27.6177049 32.3659016 26.3691803 31.117377 26.3691803"></polygon>
                <polygon id="Fill-30" fill="#4F5053" points="27.3704918 30.1160656 28.6190164 30.1160656 28.6190164 28.867541 27.3704918 28.867541"></polygon>
                <polygon id="Fill-31" fill="#4F5053" points="29.8681967 30.1160656 31.1167213 30.1160656 31.1167213 28.867541 29.8681967 28.867541"></polygon>
                <polygon id="Fill-32" fill="#4F5053" points="26.1213115 32.6334426 27.3704918 32.6334426 27.3704918 31.3842623 26.1213115 31.3842623"></polygon>
                <polygon id="Fill-33" fill="#4F5053" points="28.6190164 32.6334426 29.8681967 32.6334426 29.8681967 31.3842623 28.6190164 31.3842623"></polygon>
            </g>
        </g>
    </g>
</svg>