<svg id="Layer_1" data-name="Layer 1" xmlns="http://www.w3.org/2000/svg" viewBox="0 0 41.2 41.2"><defs><style>.cls-1{fill:#4e4f52;}</style></defs><title>5G click</title><path class="cls-1" d="M20.6,0A20.6,20.6,0,1,0,41.2,20.6,20.62,20.62,0,0,0,20.6,0Zm0,40A19.4,19.4,0,1,1,40,20.6,19.42,19.42,0,0,1,20.6,40Z"/><path class="cls-1" d="M33.11,17.47a.6.6,0,1,0,0-1.2h-25a.6.6,0,0,0,0,1.2H23.56V18.6H20.77a.58.58,0,0,0-.55.37l-1.33,3.27a.62.62,0,0,0,.06.56.61.61,0,0,0,.5.26h4.12v1.15h-6.8V21.3a.6.6,0,0,0-.6-.6H12.08a.6.6,0,0,0-.6.6v7H8.08a.6.6,0,0,0,0,1.2h25a.6.6,0,0,0,0-1.2H12.67V21.9h2.9v2.91a.6.6,0,0,0,.6.6h8a.6.6,0,0,0,.42-.18.58.58,0,0,0,.18-.43V23.06h8.35a.6.6,0,0,0,.6-.6V19.2a.6.6,0,0,0-.6-.6H24.76V17.47ZM25.62,19.8l-.81,2.06h-.63L25,19.8Zm1.92,0-.8,2.06H26.1l.8-2.06Zm1.92,0-.8,2.06H28l.81-2.06Zm1.93,0-.81,2.06H30l.8-2.06Zm-8.5,2.06h-.64l.81-2.06h.63ZM21.18,19.8h.59L21,21.86h-.63Zm10.69,2.06.64-1.65v1.65Z"/><path class="cls-1" d="M33.11,14.1h-25a.6.6,0,0,0,0,1.2h25a.6.6,0,1,0,0-1.2Z"/><path class="cls-1" d="M33.11,30.47h-25a.6.6,0,0,0,0,1.2h25a.6.6,0,0,0,0-1.2Z"/><path class="cls-1" d="M18.41,10.52a.4.4,0,0,1-.4-.24.92.92,0,0,0-.22-.31.46.46,0,0,0-.35-.12A.57.57,0,0,0,17,10a.57.57,0,0,0-.16.42,1,1,0,0,0,.39.78,1.74,1.74,0,0,0,1.15.35,1.55,1.55,0,0,0,1.64-1.75,1.66,1.66,0,0,0-.46-1.32,1.31,1.31,0,0,0-1-.36,1.18,1.18,0,0,0-.67.2V7.56h1.32a.86.86,0,0,0,.45-.06.54.54,0,0,0,0-.92.86.86,0,0,0-.45-.06H17.53a.59.59,0,0,0-.47.14.68.68,0,0,0-.16.5V8.84a.69.69,0,0,0,.17.49.5.5,0,0,0,.4.15.7.7,0,0,0,.32-.06c.08-.05.13-.1.21-.16a.56.56,0,0,1,.42-.16c.3,0,.48.16.48.71,0,.3,0,.48-.15.58A.39.39,0,0,1,18.41,10.52Z"/><path class="cls-1" d="M22.59,11.56A1.66,1.66,0,0,0,23.94,11a1.93,1.93,0,0,0,.46-1.44v0a.76.76,0,0,0-.17-.58.79.79,0,0,0-.59-.17h-.42a1,1,0,0,0-.47.06.53.53,0,0,0-.27.48.51.51,0,0,0,.27.48.94.94,0,0,0,.47.07h0a.56.56,0,0,1-.16.41.68.68,0,0,1-1,0c-.11-.15-.18-.32-.18-1.23s0-1,.19-1.23a.53.53,0,0,1,.44-.22.55.55,0,0,1,.51.35,1.15,1.15,0,0,0,.32.41.58.58,0,0,0,.33.09.59.59,0,0,0,.6-.64,1.28,1.28,0,0,0-.47-.92,1.67,1.67,0,0,0-1.26-.38A1.81,1.81,0,0,0,21.21,7a2.53,2.53,0,0,0-.52,2,2.57,2.57,0,0,0,.52,2A1.81,1.81,0,0,0,22.59,11.56Z"/></svg>