<svg id="Layer_1" data-name="Layer 1" xmlns="http://www.w3.org/2000/svg" viewBox="0 0 41.2 41.2"><defs><style>.cls-1{fill:#4e4f52;}</style></defs><title>2G click</title><path class="cls-1" d="M20.6,0A20.6,20.6,0,1,0,41.2,20.6,20.62,20.62,0,0,0,20.6,0Zm0,40A19.4,19.4,0,1,1,40,20.6,19.42,19.42,0,0,1,20.6,40Z"/><path class="cls-1" d="M33.71,16.87a.6.6,0,0,0-.6-.6h-25a.6.6,0,0,0,0,1.2H23.56v6.74h-6.8V21.3a.6.6,0,0,0-.6-.6H12.08a.6.6,0,0,0-.6.6v7H8.08a.6.6,0,0,0,0,1.2h25a.6.6,0,0,0,0-1.2H12.67V21.9h2.9v2.91a.6.6,0,0,0,.6.6h8a.6.6,0,0,0,.42-.18.58.58,0,0,0,.18-.42V17.47h8.35A.6.6,0,0,0,33.71,16.87Z"/><path class="cls-1" d="M33.11,14.1h-25a.6.6,0,0,0,0,1.2h25a.6.6,0,1,0,0-1.2Z"/><path class="cls-1" d="M33.11,30.47h-25a.6.6,0,0,0,0,1.2h25a.6.6,0,0,0,0-1.2Z"/><path class="cls-1" d="M17.1,10.32a.88.88,0,0,0-.29.62.57.57,0,0,0,.16.41.71.71,0,0,0,.56.17h1.85a.88.88,0,0,0,.45-.07.5.5,0,0,0,.25-.45.53.53,0,0,0-.25-.46,1,1,0,0,0-.45-.06H18.31l1-1.07A2.05,2.05,0,0,0,20,7.92c0-.94-.66-1.44-1.64-1.44a1.67,1.67,0,0,0-1.11.34,1.1,1.1,0,0,0-.44.84.61.61,0,0,0,.13.41.49.49,0,0,0,.41.17.58.58,0,0,0,.31-.08.82.82,0,0,0,.23-.28c.12-.24.23-.36.5-.36a.41.41,0,0,1,.45.43,1.08,1.08,0,0,1-.36.75Z"/><path class="cls-1" d="M22.59,11.56A1.66,1.66,0,0,0,23.94,11a1.93,1.93,0,0,0,.46-1.44v0a.76.76,0,0,0-.17-.58.79.79,0,0,0-.59-.17h-.42a1,1,0,0,0-.47.06.53.53,0,0,0-.27.48.51.51,0,0,0,.27.48.94.94,0,0,0,.47.07h0a.56.56,0,0,1-.16.41.68.68,0,0,1-1,0c-.11-.15-.18-.32-.18-1.23s0-1,.19-1.23a.53.53,0,0,1,.44-.22.55.55,0,0,1,.51.35,1.15,1.15,0,0,0,.32.41.58.58,0,0,0,.33.09.59.59,0,0,0,.6-.64,1.28,1.28,0,0,0-.47-.92,1.67,1.67,0,0,0-1.26-.38A1.81,1.81,0,0,0,21.21,7a2.53,2.53,0,0,0-.52,2,2.57,2.57,0,0,0,.52,2A1.81,1.81,0,0,0,22.59,11.56Z"/></svg>