<svg id="Layer_1" data-name="Layer 1" xmlns="http://www.w3.org/2000/svg" viewBox="0 0 41.2 41.2"><defs><style>.cls-1{fill:#4f5053;}</style></defs><title>extrawidth</title><path class="cls-1" d="M20.6,0A20.6,20.6,0,1,0,41.2,20.6,20.62,20.62,0,0,0,20.6,0Zm0,40A19.4,19.4,0,1,1,40,20.6,19.42,19.42,0,0,1,20.6,40Z"/><path class="cls-1" d="M33.71,16.87a.6.6,0,0,0-.6-.6h-25a.6.6,0,0,0,0,1.2H23.56v6.74h-6.8V21.3a.6.6,0,0,0-.6-.6H12.08a.6.6,0,0,0-.6.6v7H8.08a.6.6,0,0,0,0,1.2h25a.6.6,0,0,0,0-1.2H29.62a.7.7,0,0,0,.27-.14L32,26.1a.61.61,0,0,0,0-.85.59.59,0,0,0-.85,0l-1,1V19.5l1,1a.59.59,0,0,0,.85,0,.61.61,0,0,0,0-.85l-2.06-2.06a.59.59,0,0,0-.32-.15h3.54A.6.6,0,0,0,33.71,16.87ZM29,17.62,27,19.68a.59.59,0,0,0,0,.85.58.58,0,0,0,.42.18.6.6,0,0,0,.43-.18l1-1v6.79l-1-1a.59.59,0,0,0-.85,0,.61.61,0,0,0,0,.85L29,28.16a.66.66,0,0,0,.26.14H12.67V21.9h2.9v2.91a.6.6,0,0,0,.6.6h8a.6.6,0,0,0,.42-.18.58.58,0,0,0,.18-.42V17.47h4.6A.56.56,0,0,0,29,17.62Z"/><path class="cls-1" d="M33.11,14.1h-25a.6.6,0,0,0,0,1.2h25a.6.6,0,1,0,0-1.2Z"/><path class="cls-1" d="M33.11,30.47h-25a.6.6,0,0,0,0,1.2h25a.6.6,0,0,0,0-1.2Z"/><path class="cls-1" d="M14.12,11.72h1.33a.64.64,0,0,0,.32,0,.38.38,0,0,0,0-.66.64.64,0,0,0-.32,0h-1v-.6h.79a.67.67,0,0,0,.32-.05.37.37,0,0,0,.18-.33.37.37,0,0,0-.18-.32.67.67,0,0,0-.32,0h-.79V9.06h1a.64.64,0,0,0,.32,0A.37.37,0,0,0,16,8.69a.36.36,0,0,0-.19-.33.62.62,0,0,0-.32,0H14.12a.49.49,0,0,0-.39.12.51.51,0,0,0-.12.4v2.38a.43.43,0,0,0,.51.51Z"/><path class="cls-1" d="M16.3,11.35a.36.36,0,0,0,.21.33.42.42,0,0,0,.21.06c.22,0,.32-.16.42-.33l.41-.73.41.73c.1.17.2.33.42.33a.42.42,0,0,0,.21-.06.36.36,0,0,0,.21-.33.76.76,0,0,0-.13-.35l-.6-1L18.61,9a.61.61,0,0,0,.13-.34.37.37,0,0,0-.21-.34.56.56,0,0,0-.21-.06c-.21,0-.32.17-.41.34l-.36.63-.36-.63c-.09-.17-.2-.34-.41-.34a.51.51,0,0,0-.21.06.37.37,0,0,0-.21.34.61.61,0,0,0,.13.34L17,10l-.6,1A.66.66,0,0,0,16.3,11.35Z"/><path class="cls-1" d="M19.23,9a.64.64,0,0,0,.32,0h.35v2.12a.7.7,0,0,0,.05.36.44.44,0,0,0,.74,0,.7.7,0,0,0,0-.36V9.06h.35a.71.71,0,0,0,.33,0,.38.38,0,0,0,.18-.33.37.37,0,0,0-.18-.33.69.69,0,0,0-.33,0H19.55a.62.62,0,0,0-.32,0,.36.36,0,0,0-.19.33A.37.37,0,0,0,19.23,9Z"/><path class="cls-1" d="M22.47,11.74a.4.4,0,0,0,.37-.2.7.7,0,0,0,.05-.36v-.72h.29l.54.95c.1.17.2.33.42.33a.42.42,0,0,0,.21-.06.35.35,0,0,0,.2-.33.62.62,0,0,0-.12-.35l-.4-.7a1,1,0,0,0,.54-.89,1.09,1.09,0,0,0-1.16-1.1h-.84a.44.44,0,0,0-.52.52v2.35a.7.7,0,0,0,.05.36A.4.4,0,0,0,22.47,11.74Zm.42-2.68h.48a.35.35,0,1,1,0,.7h-.48Z"/><path class="cls-1" d="M25.33,11.74a.38.38,0,0,0,.24-.08.68.68,0,0,0,.16-.3l.05-.14H27l.05.14a.67.67,0,0,0,.17.3.36.36,0,0,0,.23.08.48.48,0,0,0,.31-.12c.16-.16.1-.33,0-.54l-.92-2.41a.54.54,0,0,0-.17-.28.42.42,0,0,0-.3-.1.41.41,0,0,0-.29.1.54.54,0,0,0-.18.28L25,11.08c-.08.21-.13.38,0,.54A.45.45,0,0,0,25.33,11.74Zm1.05-2.17.35.95H26Z"/></svg>