<svg id="Layer_1" data-name="Layer 1" xmlns="http://www.w3.org/2000/svg" viewBox="0 0 43.21 43.21"><defs><style>.cls-1{fill:#4f5053;}</style></defs><title>Artboard 13</title><path class="cls-1" d="M21.61,0a21.61,21.61,0,1,0,21.6,21.6A21.63,21.63,0,0,0,21.61,0Zm0,42A20.41,20.41,0,1,1,42,21.6,20.43,20.43,0,0,1,21.61,42Z"/><path class="cls-1" d="M29,19.26a7.46,7.46,0,1,0-7.46,7.45A7.46,7.46,0,0,0,29,19.26Zm-7.46,6.25a6.26,6.26,0,1,1,6.26-6.25A6.26,6.26,0,0,1,21.55,25.51Z"/><path class="cls-1" d="M30,25.69h0a3.14,3.14,0,0,0,.11-.89,1.55,1.55,0,0,1,.06-.58,1.71,1.71,0,0,1,.46-.33,2.09,2.09,0,0,0,1-1,2,2,0,0,0-.14-1.37,1.67,1.67,0,0,1-.14-.57,1.48,1.48,0,0,1,.31-.46,2,2,0,0,0,.61-1.26A2,2,0,0,0,31.64,18a1.63,1.63,0,0,1-.31-.47,1.72,1.72,0,0,1,.14-.57,2,2,0,0,0,.14-1.36,2,2,0,0,0-1-1,2,2,0,0,1-.46-.34,1.52,1.52,0,0,1-.06-.57,2.06,2.06,0,0,0-.34-1.34,2,2,0,0,0-1.26-.57,2.19,2.19,0,0,1-.56-.15,1.8,1.8,0,0,1-.25-.52A2,2,0,0,0,26.9,10a2,2,0,0,0-1.37-.1,1.77,1.77,0,0,1-.58,0,1.5,1.5,0,0,1-.41-.4,2,2,0,0,0-1.13-.81,2,2,0,0,0-1.32.37,1.72,1.72,0,0,1-.54.24A1.83,1.83,0,0,1,21,9.09a2,2,0,0,0-1.31-.37,2.06,2.06,0,0,0-1.14.81,1.65,1.65,0,0,1-.4.4,1.76,1.76,0,0,1-.58,0,2,2,0,0,0-1.38.1,2,2,0,0,0-.78,1.15,1.88,1.88,0,0,1-.24.51,1.9,1.9,0,0,1-.56.16,2,2,0,0,0-1.26.57A2,2,0,0,0,13,13.72a1.77,1.77,0,0,1-.06.57,1.84,1.84,0,0,1-.47.34,2,2,0,0,0-1,1A2,2,0,0,0,11.64,17a1.72,1.72,0,0,1,.14.57,2,2,0,0,1-.32.47,2,2,0,0,0-.61,1.26,2.06,2.06,0,0,0,.61,1.26,1.75,1.75,0,0,1,.32.46,1.67,1.67,0,0,1-.14.57,2,2,0,0,0-.14,1.37,2,2,0,0,0,1,1,1.84,1.84,0,0,1,.47.34,2.14,2.14,0,0,1,.06.58,2.57,2.57,0,0,0,.14,1l-2.48,4.27a.62.62,0,0,0,0,.63.6.6,0,0,0,.57.27l3.6-.39,1.45,3.31a.59.59,0,0,0,.51.36h0a.6.6,0,0,0,.52-.3L19.8,29.8A2.2,2.2,0,0,0,21,29.42a1.83,1.83,0,0,1,.54-.24,1.72,1.72,0,0,1,.54.24,2.28,2.28,0,0,0,1.11.39.75.75,0,0,0,.21,0L25.82,34a.6.6,0,0,0,.52.3h0a.59.59,0,0,0,.51-.36l1.45-3.31,3.6.39a.62.62,0,0,0,.57-.27.6.6,0,0,0,0-.63Zm-13,6.65-1.15-2.63a.63.63,0,0,0-.62-.36l-2.85.31,1.78-3.08.52.12a1.73,1.73,0,0,1,.55.16,1.67,1.67,0,0,1,.25.52,2,2,0,0,0,.78,1.14,2,2,0,0,0,1.38.1,1.76,1.76,0,0,1,.58,0,2.12,2.12,0,0,1,.4.4l.2.22Zm6.26-3.73a1.69,1.69,0,0,1-.51-.23,2.33,2.33,0,0,0-1.14-.4,2.29,2.29,0,0,0-1.13.4,1.51,1.51,0,0,1-.52.23c-.09,0-.31-.27-.42-.41a2.4,2.4,0,0,0-.91-.75,1.63,1.63,0,0,0-.53-.08,4.6,4.6,0,0,0-.66.07,1.76,1.76,0,0,1-.58,0,1.94,1.94,0,0,1-.25-.52,2.32,2.32,0,0,0-.6-1,2.41,2.41,0,0,0-1.11-.42,1.57,1.57,0,0,1-.56-.16,1.58,1.58,0,0,1-.06-.58A2.38,2.38,0,0,0,14,23.62a2.28,2.28,0,0,0-.9-.77,2.06,2.06,0,0,1-.48-.34,2,2,0,0,1,.15-.56A2.32,2.32,0,0,0,13,20.77a2.33,2.33,0,0,0-.57-1c-.12-.14-.34-.4-.34-.49s.22-.36.34-.5a2.33,2.33,0,0,0,.57-1,2.34,2.34,0,0,0-.19-1.18,2,2,0,0,1-.15-.55,1.8,1.8,0,0,1,.48-.35,2.28,2.28,0,0,0,.9-.77,2.38,2.38,0,0,0,.22-1.16,1.58,1.58,0,0,1,.06-.58,1.57,1.57,0,0,1,.56-.16A2.27,2.27,0,0,0,16,12.57a2.29,2.29,0,0,0,.6-1A1.88,1.88,0,0,1,16.8,11a1.77,1.77,0,0,1,.58,0,2.4,2.4,0,0,0,1.19,0,2.4,2.4,0,0,0,.91-.75c.11-.14.33-.39.42-.41a2,2,0,0,1,.52.24,2.39,2.39,0,0,0,1.13.39,2.42,2.42,0,0,0,1.14-.39,3.12,3.12,0,0,1,.51-.24c.09,0,.31.27.43.41a2.33,2.33,0,0,0,.91.75,2.4,2.4,0,0,0,1.19,0,1.7,1.7,0,0,1,.57,0,1.67,1.67,0,0,1,.26.52,2.27,2.27,0,0,0,.6,1,2.23,2.23,0,0,0,1.11.42,1.64,1.64,0,0,1,.56.16,1.83,1.83,0,0,1,.06.58,2.33,2.33,0,0,0,.22,1.17,2.27,2.27,0,0,0,.9.76,1.78,1.78,0,0,1,.47.34,1.89,1.89,0,0,1-.14.56,2.34,2.34,0,0,0-.2,1.18,2.35,2.35,0,0,0,.58,1c.11.14.33.4.33.5s-.22.35-.33.49a2.35,2.35,0,0,0-.58,1,2.32,2.32,0,0,0,.2,1.18,2,2,0,0,1,.14.56,1.7,1.7,0,0,1-.48.34,2.26,2.26,0,0,0-.89.77,2.29,2.29,0,0,0-.22,1.17,1.8,1.8,0,0,1-.06.57,1.64,1.64,0,0,1-.56.16A1.78,1.78,0,0,0,26.56,27a1.67,1.67,0,0,1-.26.52,1.71,1.71,0,0,1-.57,0,2.4,2.4,0,0,0-1.19,0,2.33,2.33,0,0,0-.91.75c-.12.14-.34.4-.42.41Zm4.84.74a.63.63,0,0,0-.62.36l-1.15,2.63-1.86-3.21.13-.15a1.87,1.87,0,0,1,.41-.4,1.77,1.77,0,0,1,.58,0,2,2,0,0,0,1.37-.1,2,2,0,0,0,.78-1.14,1.8,1.8,0,0,1,.25-.52,1.81,1.81,0,0,1,.56-.16,3.51,3.51,0,0,0,.6-.15l1.8,3.11Z"/><path class="cls-1" d="M24.83,18l-1.89-.28L22.09,16A.63.63,0,0,0,21,16l-.84,1.71L18.28,18a.61.61,0,0,0-.49.4A.6.6,0,0,0,18,19l1.36,1.33L19,22.19a.6.6,0,0,0,.87.63l1.69-.89,1.69.89a.72.72,0,0,0,.28.07.6.6,0,0,0,.36-.12.59.59,0,0,0,.23-.58l-.32-1.89L25.16,19a.62.62,0,0,0,.15-.62A.6.6,0,0,0,24.83,18Zm-2.1,1.71a.63.63,0,0,0-.18.54l.18,1-.9-.47a.55.55,0,0,0-.28-.07.58.58,0,0,0-.28.07l-.89.47.17-1a.63.63,0,0,0-.17-.54l-.73-.7,1-.15a.6.6,0,0,0,.46-.32l.44-.91.45.91a.6.6,0,0,0,.45.32l1,.15Z"/></svg>