<svg id="Layer_1" data-name="Layer 1" xmlns="http://www.w3.org/2000/svg" viewBox="0 0 41.19 41.2"><defs><style>.cls-1{fill:#4f5053;}</style></defs><title>hydroplus</title><path class="cls-1" d="M20.6,0A20.6,20.6,0,1,0,41.19,20.6,20.62,20.62,0,0,0,20.6,0Zm0,40A19.4,19.4,0,1,1,40,20.6,19.43,19.43,0,0,1,20.6,40Z"/><path class="cls-1" d="M16.45,22.12a.34.34,0,0,0,.31-.17.57.57,0,0,0,0-.29V19.75a.56.56,0,0,0,0-.29.34.34,0,0,0-.31-.17.33.33,0,0,0-.3.17.56.56,0,0,0,0,.29v.63h-.74v-.63a.56.56,0,0,0,0-.29.34.34,0,0,0-.3-.17.34.34,0,0,0-.31.17.56.56,0,0,0,0,.29v1.91a.57.57,0,0,0,0,.29.34.34,0,0,0,.31.17.34.34,0,0,0,.3-.17.57.57,0,0,0,0-.29V21h.74v.67a.57.57,0,0,0,0,.29A.33.33,0,0,0,16.45,22.12Z"/><path class="cls-1" d="M19.2,19.59a.29.29,0,0,0-.18-.26.32.32,0,0,0-.16,0,.28.28,0,0,0-.16.05c-.07.05-.09.09-.16.23l-.36.72-.36-.72a.5.5,0,0,0-.15-.23.31.31,0,0,0-.17-.05.34.34,0,0,0-.16,0,.29.29,0,0,0-.18.26.55.55,0,0,0,.09.27L17.83,21v.63a.56.56,0,0,0,.05.29.33.33,0,0,0,.3.17.31.31,0,0,0,.3-.17.47.47,0,0,0,.05-.29V21l.58-1.17A.55.55,0,0,0,19.2,19.59Z"/><path class="cls-1" d="M21.52,21.63a1.73,1.73,0,0,0,.13-.93,1.77,1.77,0,0,0-.13-.93,1,1,0,0,0-.91-.47H20a.42.42,0,0,0-.33.1.4.4,0,0,0-.1.32v2a.43.43,0,0,0,.1.33.45.45,0,0,0,.33.09h.62A1,1,0,0,0,21.52,21.63Zm-.63-.3a.35.35,0,0,1-.33.16h-.3V19.92h.3a.36.36,0,0,1,.33.15c.05.08.07.16.07.63S20.94,21.25,20.89,21.33Z"/><path class="cls-1" d="M23.85,22.12a.41.41,0,0,0,.17-.05.29.29,0,0,0,.17-.27.62.62,0,0,0-.1-.29l-.34-.58a.81.81,0,0,0,.45-.73.89.89,0,0,0-1-.9h-.69a.36.36,0,0,0-.42.42v1.94a.57.57,0,0,0,0,.29.34.34,0,0,0,.31.17.34.34,0,0,0,.3-.17.57.57,0,0,0,0-.29v-.6h.24l.44.78C23.58,22,23.67,22.12,23.85,22.12Zm-.64-1.63h-.39v-.57h.39a.29.29,0,1,1,0,.57Z"/><path class="cls-1" d="M25.64,19.28a1,1,0,0,0-.78.31,1.43,1.43,0,0,0-.29,1.11,1.44,1.44,0,0,0,.29,1.12,1.15,1.15,0,0,0,1.57,0,1.44,1.44,0,0,0,.28-1.12,1.43,1.43,0,0,0-.28-1.11A1,1,0,0,0,25.64,19.28Zm.28,2.11a.34.34,0,0,1-.28.12.33.33,0,0,1-.27-.12c-.06-.08-.1-.17-.1-.69s0-.6.1-.69a.36.36,0,0,1,.27-.12.37.37,0,0,1,.28.12c.06.09.1.18.1.69S26,21.31,25.92,21.39Z"/><path class="cls-1" d="M17.35,23.74h-.69a.36.36,0,0,0-.42.42v1.93a.6.6,0,0,0,0,.3.34.34,0,0,0,.31.17.34.34,0,0,0,.3-.17.6.6,0,0,0,0-.3v-.55h.42a.9.9,0,1,0,0-1.8Zm0,1.19h-.39v-.57h.39a.29.29,0,1,1,0,.57Z"/><path class="cls-1" d="M20.45,26a.45.45,0,0,0-.26,0h-.78V24.19a.51.51,0,0,0-.05-.3.33.33,0,0,0-.3-.16.34.34,0,0,0-.3.16.6.6,0,0,0-.05.3v1.93a.43.43,0,0,0,.1.33.46.46,0,0,0,.33.09h1.05a.59.59,0,0,0,.26,0,.32.32,0,0,0,0-.54Z"/><path class="cls-1" d="M22.62,23.73a.34.34,0,0,0-.3.16.6.6,0,0,0-.05.3v1.35a.36.36,0,0,1-.37.41.36.36,0,0,1-.37-.41V24.19a.6.6,0,0,0-.05-.3.36.36,0,0,0-.6,0,.6.6,0,0,0-.05.3v1.37a1.07,1.07,0,0,0,2.14,0V24.19a.51.51,0,0,0,0-.3A.34.34,0,0,0,22.62,23.73Z"/><path class="cls-1" d="M24.62,24.84l-.34-.05a.26.26,0,0,1-.19-.08.2.2,0,0,1-.06-.15c0-.1.1-.24.34-.24a1,1,0,0,1,.38.08.78.78,0,0,0,.25.07.27.27,0,0,0,.2-.09.4.4,0,0,0,.08-.22.39.39,0,0,0-.29-.34,1.71,1.71,0,0,0-.6-.1.9.9,0,0,0-1,.88.8.8,0,0,0,.19.57.94.94,0,0,0,.56.24l.34.05a.31.31,0,0,1,.19.08.21.21,0,0,1,.05.16c0,.16-.13.26-.4.26a1.35,1.35,0,0,1-.46-.1.64.64,0,0,0-.27-.09.25.25,0,0,0-.19.08.39.39,0,0,0-.09.22c0,.21.14.31.37.4a1.63,1.63,0,0,0,.64.1c.59,0,1.08-.31,1.08-.88a.84.84,0,0,0-.21-.62A1,1,0,0,0,24.62,24.84Z"/><path class="cls-1" d="M27.2,11.44H23.73a8,8,0,0,0-.44-1.16A14.19,14.19,0,0,0,21,7a.59.59,0,0,0-.87,0,14.19,14.19,0,0,0-2.26,3.33,9.36,9.36,0,0,0-.44,1.16H14a2.93,2.93,0,0,0-2.93,2.93v14A2.93,2.93,0,0,0,14,31.28H27.2a2.93,2.93,0,0,0,2.93-2.93v-14A2.93,2.93,0,0,0,27.2,11.44ZM19,10.79A12.43,12.43,0,0,1,20.6,8.28a12.44,12.44,0,0,1,1.6,2.51,6.77,6.77,0,0,1,.26.65,4,4,0,0,1,.27,1.2,2.71,2.71,0,0,1-.08,1.11,2,2,0,0,1-2,1.4,2,2,0,0,1-2.08-1.4,2.71,2.71,0,0,1-.08-1.11,4,4,0,0,1,.27-1.2A6.77,6.77,0,0,1,19,10.79Zm9.94,17.56a1.73,1.73,0,0,1-1.73,1.73H14a1.74,1.74,0,0,1-1.73-1.73v-14A1.73,1.73,0,0,1,14,12.64h3.25a4.31,4.31,0,0,0,.15,1.45,3.15,3.15,0,0,0,3.23,2.25,3.14,3.14,0,0,0,3.19-2.25A4.07,4.07,0,0,0,24,12.64H27.2a1.72,1.72,0,0,1,1.73,1.73Z"/></svg>