<svg id="Layer_1" data-name="Layer 1" xmlns="http://www.w3.org/2000/svg" viewBox="0 0 40.43 40.43"><defs><style>.cls-1{fill:#4f5053;}</style></defs><title>no clean</title><path class="cls-1" d="M20.21,0A20.22,20.22,0,1,0,40.43,20.21,20.24,20.24,0,0,0,20.21,0ZM1.2,20.21A19,19,0,0,1,33.36,6.51l-6.59,6.6a6.3,6.3,0,0,0-12.57.7v0a1.47,1.47,0,0,0-1,1.39v.44h-.92a.6.6,0,0,0-.6.6v6.41A4.82,4.82,0,0,0,10.84,29L6.7,33.18a.58.58,0,0,0-.14.24A19,19,0,0,1,1.2,20.21Zm10,6.13a3.6,3.6,0,0,1,.48-1.81,3.74,3.74,0,0,1,1.2-1.27,3.67,3.67,0,0,1,2-.59,3.62,3.62,0,0,1,1.82.5l-5,5A3.6,3.6,0,0,1,11.21,26.34ZM25.62,14.25l-.57.57v-1A4.54,4.54,0,0,0,16,13.75h-.56a5.1,5.1,0,0,1,10.2-.1.07.07,0,0,1,0,0Zm-2.5,13.06V22.77a7,7,0,0,0-.89-3.43l1.63-1.62v9.59Zm-1.57-9A7.1,7.1,0,0,0,18.08,16a.76.76,0,0,0,0-.16v-.59a1.48,1.48,0,0,0-.95-1.38s0,0,0,0a3.35,3.35,0,0,1,6.69,0V16Zm-7.14-3.1a.29.29,0,0,1,.28-.28h1.94a.29.29,0,0,1,.28.28v.5a8.48,8.48,0,0,0-.89-.06H14.41ZM16,16.87a5.89,5.89,0,0,1,4.67,2.31l-3.1,3.11a4.91,4.91,0,0,0-2.7-.82,4.79,4.79,0,0,0-2,.43v-5ZM12.47,29.1l5.17-5.17A3.66,3.66,0,0,1,15.22,30l-.33,0A3.65,3.65,0,0,1,12.47,29.1Zm7.29-2.76a4.83,4.83,0,0,0-1.27-3.25l2.85-2.86a5.85,5.85,0,0,1,.58,2.54v4.59a2.17,2.17,0,0,0-1.7,2.11V30H18.07A4.84,4.84,0,0,0,19.76,26.34ZM29.21,30H21.42v-.55a1,1,0,0,1,.5-.84.87.87,0,0,1,.45-.12h5.88a1,1,0,0,1,1,1Zm-4.16-2.71V16.52l.57-.57V27.31ZM20.21,39.23A18.9,18.9,0,0,1,7.33,34.16.71.71,0,0,0,7.55,34l4.08-4.09a4.84,4.84,0,0,0,3.26,1.28,1.14,1.14,0,0,0,.26,0,0,0,0,0,0,0,0l.35,0H29.81a.6.6,0,0,0,.6-.6V29.47a2.16,2.16,0,0,0-2.16-2.16H26.82V14.75L34.2,7.38a19,19,0,0,1-14,31.85Z"/></svg>