<svg id="Layer_1" data-name="Layer 1" xmlns="http://www.w3.org/2000/svg" viewBox="0 0 40.43 40.43"><defs><style>.cls-1{fill:#4f5053;}</style></defs><title>dreamclick</title><path class="cls-1" d="M20.21,0A20.24,20.24,0,0,0,1.57,12.41a.58.58,0,0,0-.08.22A20,20,0,0,0,2,28.84a.57.57,0,0,0,.13.27,20.19,20.19,0,0,0,36.23.1,20,20,0,0,0,2.11-9A20.24,20.24,0,0,0,20.21,0Zm5.92,26.71h12c-.2.54-.43,1.08-.68,1.61a.59.59,0,0,0-.44-.2H32.51a.6.6,0,0,0-.6.6v.6H28.49v-.5s0,0,0-.05,0,0,0-.05a.6.6,0,0,0-.6-.6H23V23.58h1.17a.6.6,0,0,0,.6-.6V18.36a.6.6,0,0,0-.6-.6H23V13.32h4.85a.6.6,0,0,0,.6-.6s0-.06,0-.1,0-.06,0-.1V12h3.42v.6s0,0,0,.06v0a.6.6,0,0,0,.6.6h4.93a.61.61,0,0,0,.41-.17c.24.59.44,1.19.62,1.8H26.13a.58.58,0,0,0-.57.57V26.13A.58.58,0,0,0,26.13,26.71ZM7,13.32a.6.6,0,0,0,.6-.6v0s0,0,0-.06V12H11v.5a.3.3,0,0,0,0,.1.44.44,0,0,0,0,.1.6.6,0,0,0,.6.6h4.84v5h0a.6.6,0,0,0,.6.6h.88v3.42h-.88a.6.6,0,0,0-.6.6h0v5.13H11.62a.6.6,0,0,0-.6.6s0,0,0,.05,0,0,0,.05v.5H7.6v-.6a.6.6,0,0,0-.6-.6H2.94q-.31-.69-.57-1.41H13.8a.58.58,0,0,0,.57-.58V15.52A.58.58,0,0,0,13.8,15H2c.16-.56.34-1.1.55-1.63ZM1.66,16.1H13.22v9.46H2a18.91,18.91,0,0,1-.78-5.35A19.24,19.24,0,0,1,1.66,16.1ZM20.21,39.23A19,19,0,0,1,3.53,29.32H6.4v.6a.6.6,0,0,0,.6.6h4.62a.6.6,0,0,0,.6-.6v-.6h4.84a.6.6,0,0,0,.6-.6V23.58h.88a.6.6,0,0,0,.6-.6V18.36a.6.6,0,0,0-.6-.6h-.88v-5a.6.6,0,0,0-.6-.6H12.22v-.7a.6.6,0,0,0-.6-.6H7a.6.6,0,0,0-.6.6v.7H3a19,19,0,0,1,34.37,0H33.11v-.7a.6.6,0,0,0-.6-.6H27.89a.6.6,0,0,0-.6.6v.7H22.44a.59.59,0,0,0-.59.6v5.64a.59.59,0,0,0,.59.6.58.58,0,0,0,.14,0,.76.76,0,0,0,.16,0h.87v3.42h-.87a.57.57,0,0,0-.15,0,.8.8,0,0,0-.15,0,.59.59,0,0,0-.59.6v5.74a.59.59,0,0,0,.59.6h4.85v.6a.6.6,0,0,0,.6.6h4.62a.6.6,0,0,0,.6-.6v-.6H36.9A18.89,18.89,0,0,1,20.21,39.23ZM38.47,25.56H26.71V16.1H38.77a18.94,18.94,0,0,1-.3,9.46Z"/></svg>