<svg id="Layer_1" data-name="Layer 1" xmlns="http://www.w3.org/2000/svg" viewBox="0 0 41.2 41.2"><defs><style>.cls-1{fill:#4f5053;}</style></defs><title>antistatic</title><path class="cls-1" d="M20.6,0A20.6,20.6,0,1,0,41.2,20.6,20.63,20.63,0,0,0,20.6,0Zm0,40A19.4,19.4,0,1,1,40,20.6,19.42,19.42,0,0,1,20.6,40Z"/><path class="cls-1" d="M34.49,15.1a.6.6,0,1,0,0-1.2H26.32l.63-1h7.54a.6.6,0,1,0,0-1.2H27.72l.64-1a.93.93,0,0,0,0-1,1,1,0,0,0-.85-.5H21.69a1,1,0,0,0-.86.53l-5.49,10.8a1,1,0,0,0,0,.94,1,1,0,0,0,.82.46h2.86l-3.74,8.75a1,1,0,0,0,.38,1.19,1,1,0,0,0,1.24-.19L19,29.31H34.49a.6.6,0,0,0,0-1.2H20l.83-1H34.49a.6.6,0,0,0,0-1.2H21.89L28.65,18a1,1,0,0,0,.14-1,1,1,0,0,0-.87-.55H24.68l.87-1.36ZM24.9,13.9l-.78,1.2-1.05,1.63a.63.63,0,0,0,0,.61.6.6,0,0,0,.53.32H27.4l-7.08,8.28-1,1.2-.83,1-1,1.2-.4.47.2-.47.51-1.2.42-1,.51-1.2,1.85-4.33a.6.6,0,0,0-.55-.83H16.59l2.89-5.68.61-1.2.49-1,.61-1.2.65-1.28h5.28l-.83,1.28-.77,1.2Z"/><path class="cls-1" d="M16.58,23.51a.62.62,0,0,0-.5-.27h-4l6.74-13.17a.6.6,0,0,0-.26-.81.61.61,0,0,0-.81.26L16.46,12l-.14,0H6.71a.6.6,0,0,0,0,1.2h9.15l-.5,1H6.71a.6.6,0,0,0,0,1.2h8L10.86,23a1,1,0,0,0,.05,1,1,1,0,0,0,.86.47h3.4l-.77,1.78H6.71a.6.6,0,1,0,0,1.2h7.18l-.42,1H6.71a.6.6,0,1,0,0,1.2H13l-.72,1.69a.59.59,0,0,0,.31.78.52.52,0,0,0,.24,0,.6.6,0,0,0,.55-.36l3.3-7.67A.61.61,0,0,0,16.58,23.51Z"/></svg>