<?xml version="1.0" encoding="UTF-8"?>
<svg width="42px" height="42px" viewBox="0 0 42 42" version="1.1" xmlns="http://www.w3.org/2000/svg" xmlns:xlink="http://www.w3.org/1999/xlink">
    <!-- Generator: Sketch 47.1 (45422) - http://www.bohemiancoding.com/sketch -->
    <title>Group 34</title>
    <desc>Created with Sketch.</desc>
    <defs></defs>
    <g id="main" stroke="none" stroke-width="1" fill="none" fill-rule="evenodd" stroke-linecap="round" stroke-linejoin="round">
        <g id="catalog_residential_2" transform="translate(-239.000000, -591.000000)" stroke="#4F5053" stroke-width="1.2">
            <g id="Group-34" transform="translate(240.000000, 592.000000)">
                <path d="M5.83987097,15.3259355 L4.28374194,18.1988387" id="Stroke-17"></path>
                <path d="M8.92329032,15.3259355 L7.36716129,18.1988387" id="Stroke-19"></path>
                <path d="M12.0067097,15.3259355 L10.4505806,18.1988387" id="Stroke-21"></path>
                <path d="M15.090129,15.3259355 L13.534,18.1988387" id="Stroke-23"></path>
                <path d="M18.1735484,15.3259355 L16.6174194,18.1988387" id="Stroke-25"></path>
                <g id="Group-23">
                    <path d="M39.6853548,20.0710968 C39.6853548,30.904 30.9040645,39.6852903 20.0711613,39.6852903 C9.23890323,39.6852903 0.456967742,30.904 0.456967742,20.0710968 C0.456967742,9.23883871 9.23890323,0.456903226 20.0711613,0.456903226 C30.9040645,0.456903226 39.6853548,9.23883871 39.6853548,20.0710968 Z" id="Stroke-1"></path>
                    <path d="M20.0712258,10.6257419 L20.0712258,3.55606452" id="Stroke-3"></path>
                    <polyline id="Stroke-5" points="18.0103871 5.61658065 20.0710323 3.55593548 22.1323226 5.61658065"></polyline>
                    <path d="M37.0005662,30.0749032 L32.0458065,30.0749032 C31.4977788,30.0749032 31.1491766,30.0749032 31,30.0749032 C26.9673845,30.0749032 21.0432985,30.0749032 13.2277419,30.0749032 C12.0458065,30.0749032 11.0870968,29.1168387 11.0870968,27.9342581 C11.0870968,26.7523226 12.0458065,25.7936129 13.2277419,25.7936129 L29.5729032,25.7936129 C30.7548387,25.7936129 31.7129032,24.8355484 31.7129032,23.6536129 C31.7129032,22.4710323 30.7548387,21.5129677 29.5729032,21.5129677 L11.1858065,21.5129677 L0.988362973,21.5129677" id="Stroke-9"></path>
                    <path d="M1.93870968,12.6494194 L38.1670968,12.6494194" id="Stroke-13"></path>
                    <path d="M1.52,15.3259355 L38.8122581,15.3259355" id="Stroke-15"></path>
                    <path d="M21.2569677,15.3259355 L19.7008387,18.1988387" id="Stroke-27"></path>
                    <path d="M24.3403871,15.3259355 L22.7842581,18.1988387" id="Stroke-29"></path>
                    <path d="M27.4238065,15.3259355 L25.8676774,18.1988387" id="Stroke-31"></path>
                    <path d="M30.5072258,15.3259355 L28.9510968,18.1988387" id="Stroke-33"></path>
                    <path d="M33.5906452,15.3259355 L32.0345161,18.1988387" id="Stroke-35"></path>
                    <path d="M36.6740645,15.3259355 L35.1179355,18.1988387" id="Stroke-37"></path>
                    <polyline id="Stroke-39" points="20.5967097 33.5916129 23.0863871 33.5916129 21.3592903 37.4374194"></polyline>
                    <path d="M16.9330323,34.6708387 C16.9330323,34.0843871 17.4085161,33.6089032 17.9949677,33.6089032 C18.5820645,33.6089032 19.0575484,33.9669677 19.0575484,34.6708387 C19.0575484,35.1424516 18.7723871,35.4243871 18.1207742,36.1514839 C17.5349677,36.8056774 16.9330323,37.4379355 16.9330323,37.4379355 L19.0575484,37.4379355" id="Stroke-41"></path>
                    <path d="M25.5948387,35.5229677 L25.4412903,35.5229677 C25.1070968,35.5229677 24.836129,35.2526452 24.836129,34.9184516 L24.836129,34.1965161 C24.836129,33.8623226 25.1070968,33.5913548 25.4412903,33.5913548 L25.5948387,33.5913548 C25.9290323,33.5913548 26.1993548,33.8623226 26.1993548,34.1965161 L26.1993548,34.9184516 C26.1993548,35.2526452 25.9290323,35.5229677 25.5948387,35.5229677 Z" id="Stroke-43"></path>
                </g>
            </g>
        </g>
    </g>
</svg>