<?xml version="1.0" encoding="UTF-8"?>
<svg width="42px" height="42px" viewBox="0 0 42 42" version="1.1" xmlns="http://www.w3.org/2000/svg" xmlns:xlink="http://www.w3.org/1999/xlink">
    <!-- Generator: Sketch 47.1 (45422) - http://www.bohemiancoding.com/sketch -->
    <title>Group 32</title>
    <desc>Created with Sketch.</desc>
    <defs></defs>
    <g id="main" stroke="none" stroke-width="1" fill="none" fill-rule="evenodd" stroke-linecap="round" stroke-linejoin="round">
        <g id="catalog_residential_2" transform="translate(-239.000000, -541.000000)" stroke="#4F5053" stroke-width="1.2">
            <g id="Group-32" transform="translate(240.000000, 542.000000)">
                <path d="M39.6232903,19.8807742 C39.6232903,30.7136774 30.842,39.4949677 20.0090968,39.4949677 C9.17683871,39.4949677 0.394903226,30.7136774 0.394903226,19.8807742 C0.394903226,9.04851613 9.17683871,0.267225806 20.0090968,0.267225806 C30.842,0.267225806 39.6232903,9.04851613 39.6232903,19.8807742 Z" id="Stroke-11"></path>
                <path d="M20.0088387,30.0405161 C16.2094839,30.0405161 13.1294839,26.9611613 13.1294839,23.1611613 C13.1294839,23.1611613 12.9546452,19.6185806 17.5488387,13.1818065 L20.0088387,9.72180645 L22.4694839,13.1818065 C27.0636774,19.6185806 26.8888387,23.1611613 26.8888387,23.1611613 C26.8888387,26.9611613 23.8088387,30.0405161 20.0088387,30.0405161 Z" id="Stroke-13"></path>
                <path d="M18.4416129,26.3380645 C17.5422581,25.9012903 16.8525806,25.1006452 16.5635484,24.1277419" id="Stroke-34"></path>
                <path d="M20.0091613,26.6969032 C19.4472258,26.6969032 18.9156129,26.567871 18.4414194,26.3381935" id="Stroke-35"></path>
            </g>
        </g>
    </g>
</svg>