<?xml version="1.0" encoding="UTF-8"?>
<svg width="42px" height="42px" viewBox="0 0 42 42" version="1.1" xmlns="http://www.w3.org/2000/svg" xmlns:xlink="http://www.w3.org/1999/xlink">
    <!-- Generator: Sketch 47.1 (45422) - http://www.bohemiancoding.com/sketch -->
    <title>Group 25</title>
    <desc>Created with Sketch.</desc>
    <defs></defs>
    <g id="main" stroke="none" stroke-width="1" fill="none" fill-rule="evenodd" stroke-linejoin="round">
        <g id="catalog_residential_2" transform="translate(-339.000000, -491.000000)" stroke="#4F5053" stroke-width="1.2">
            <g id="Group-25" transform="translate(340.000000, 492.000000)">
                <path d="M31.6416129,4.02412903 C23.9680645,-1.6036129 13.133871,-0.956516129 6.19709677,5.98025806 C-0.739677419,12.9170323 -1.38612903,23.751871 4.24032258,31.4254194" id="Stroke-3" stroke-linecap="round"></path>
                <path d="M8.15748387,35.4243871 C15.8478065,41.319871 26.898129,40.7572903 33.9355484,33.7185806 C40.9729677,26.6811613 41.5355484,15.6308387 35.6413548,7.94051613" id="Stroke-5" stroke-linecap="round"></path>
                <path d="M9.62929032,26.3432903 C8.93122581,25.2271613 8.43058065,23.9742581 8.17703226,22.6329677 C7.97509677,21.5723226 8.57122581,20.6652258 9.27832258,20.6852258 C9.98993548,20.7039355 10.5628387,21.3852258 10.7131613,22.1503871 C10.8692903,22.9768387 11.1486452,23.7594194 11.5312258,24.478129" id="Stroke-7" stroke-linecap="square"></path>
                <path d="M15.025871,27.9350968 C15.762,28.3163871 16.5626452,28.5905806 17.4065161,28.7363871 C18.1736129,28.8744516 18.8652258,29.4350968 18.8942581,30.1467097 C18.925871,30.8525161 18.0290968,31.4647742 16.9645806,31.2789677 C15.638129,31.0505806 14.3936129,30.5802581 13.278129,29.9150968" id="Stroke-9" stroke-linecap="square"></path>
                <path d="M29.6314839,13.5635484 C30.1011613,14.3583871 30.4734194,15.2216129 30.7289032,16.1377419 C31.0211613,17.1770968 30.5050323,18.1325806 29.7972903,18.1725806 C29.0876129,18.2158065 28.459871,17.5848387 28.2437419,16.8358065 C28.1282581,16.4235484 27.9824516,16.0248387 27.8082581,15.6435484" id="Stroke-11" stroke-linecap="square"></path>
                <path d="M24.158,11.7745161 C23.1992903,11.266129 22.1334839,10.9429032 21.0109032,10.8474194 C20.2347742,10.7751613 19.498,10.2751613 19.4083226,9.56935484 C19.3154194,8.86741935 20.158,8.18225806 21.2334839,8.27516129 C22.9889677,8.42483871 24.6392903,8.9983871 26.0715484,9.9016129" id="Stroke-13" stroke-linecap="square"></path>
                <path d="M30.7728387,25.2085806 C31.1909032,24.6311613 31.0631613,23.8240645 30.4863871,23.406 C29.9096129,22.9872903 29.1025161,23.1156774 28.6838065,23.6918065 L25.1612258,28.5466452 C24.7425161,29.1234194 24.8709032,29.9305161 25.4476774,30.3492258 C26.0244516,30.7672903 26.8315484,30.6395484 27.2502581,30.062129 L30.7728387,25.2085806 Z" id="Stroke-15" stroke-linecap="round"></path>
                <path d="M19.4015484,17.2858065 L17.1950968,15.7225806 C16.6157419,15.3090323 15.8092903,15.443871 15.3957419,16.0232258 C14.9815484,16.603871 15.1163871,17.4096774 15.6963871,17.8232258 L17.131871,18.8406452" id="Stroke-17" stroke-linecap="square"></path>
                <path d="M21.358129,21.8347097 L23.0671613,23.0456774 C23.6471613,23.459871 24.4529677,23.3250323 24.8665161,22.7443871 C25.2807097,22.1643871 25.145871,21.3585806 24.5652258,20.9443871 L22.7361935,19.6489032" id="Stroke-19" stroke-linecap="square"></path>
                <path d="M13.516,12.3712258 C13.516,13.2854194 12.7747097,14.0267097 11.8605161,14.0267097 C10.9456774,14.0267097 10.2037419,13.2854194 10.2037419,12.3712258 C10.2037419,11.4563871 10.9456774,10.7150968 11.8605161,10.7150968 C12.7747097,10.7150968 13.516,11.4563871 13.516,12.3712258 Z" id="Stroke-21" stroke-linecap="round"></path>
                <path d="M5.81877419,33.7169677 L33.5536129,5.98212903" id="Stroke-23" stroke-linecap="round"></path>
            </g>
        </g>
    </g>
</svg>