<?xml version="1.0" encoding="UTF-8"?>
<svg width="42px" height="42px" viewBox="0 0 42 42" version="1.1" xmlns="http://www.w3.org/2000/svg" xmlns:xlink="http://www.w3.org/1999/xlink">
    <!-- Generator: Sketch 47.1 (45422) - http://www.bohemiancoding.com/sketch -->
    <title>Group 24</title>
    <desc>Created with Sketch.</desc>
    <defs></defs>
    <g id="main" stroke="none" stroke-width="1" fill="none" fill-rule="evenodd" stroke-linecap="round" stroke-linejoin="round">
        <g id="catalog_residential_2" transform="translate(-389.000000, -491.000000)" stroke="#4F5053" stroke-width="1.2">
            <g id="Group-24" transform="translate(390.000000, 492.000000)">
                <path d="M20.0715484,8.16470968 C23.8889677,13.1118065 29.7883226,11.4608387 29.7883226,11.4608387 C29.7883226,11.4608387 29.8386452,15.2356774 29.8205806,19.8485806 C29.7896129,27.8324516 20.0715484,31.9789032 20.0715484,31.9789032 C20.0715484,31.9789032 10.3534839,27.8324516 10.3225161,19.8485806 C10.3044516,15.2356774 10.3547742,11.4608387 10.3547742,11.4608387 C10.3547742,11.4608387 16.254129,13.1118065 20.0715484,8.16470968 Z" id="Stroke-1"></path>
                <path d="M0.45716129,20.0715484 C0.45716129,9.23864516 9.23909677,0.457354839 20.0713548,0.457354839 C30.9042581,0.457354839 39.6861935,9.23864516 39.6861935,20.0715484 C39.6861935,30.9044516 30.9042581,39.6863871 20.0713548,39.6863871 C9.23909677,39.6863871 0.45716129,30.9044516 0.45716129,20.0715484 Z" id="Stroke-3"></path>
                <path d="M24.4270323,17.590129 L24.4270323,20.7823871 C24.4270323,21.7565806 23.6373548,22.5462581 22.6638065,22.5462581 C21.6896129,22.5462581 20.8999355,21.7565806 20.8999355,20.7823871 L20.8999355,17.590129" id="Stroke-5"></path>
                <path d="M15.7806452,20.5743226 L17.5154839,20.5743226 C18.3670968,20.5743226 19.0574194,19.9065806 19.0574194,19.0820645 C19.0574194,18.2581935 18.3670968,17.5904516 17.5154839,17.5904516 L15.7806452,17.5904516 L15.7806452,22.5459355" id="Stroke-7"></path>
            </g>
        </g>
    </g>
</svg>