<?xml version="1.0" encoding="UTF-8"?>
<svg width="42px" height="42px" viewBox="0 0 42 42" version="1.1" xmlns="http://www.w3.org/2000/svg" xmlns:xlink="http://www.w3.org/1999/xlink">
    <!-- Generator: Sketch 47.1 (45422) - http://www.bohemiancoding.com/sketch -->
    <title>Group 27</title>
    <desc>Created with Sketch.</desc>
    <defs></defs>
    <g id="main" stroke="none" stroke-width="1" fill="none" fill-rule="evenodd" stroke-linecap="round" stroke-linejoin="round">
        <g id="catalog_residential_2" transform="translate(-289.000000, -541.000000)" stroke="#4F5053" stroke-width="1.2">
            <g id="Group-27" transform="translate(290.000000, 542.000000)">
                <path d="M39.7452258,19.9436774 C39.7452258,30.7765806 30.9639355,39.557871 20.1310323,39.557871 C9.29877419,39.557871 0.516193548,30.7765806 0.516193548,19.9436774 C0.516193548,9.11141935 9.29877419,0.330774194 20.1310323,0.330774194 C30.9639355,0.330774194 39.7452258,9.11141935 39.7452258,19.9436774 Z" id="Stroke-25"></path>
                <path d="M2.1696129,27.8349032 L38.0889677,27.8349032" id="Stroke-29"></path>
                <path d="M3.94709677,30.1252258 L36.3154839,30.1252258" id="Stroke-31"></path>
                <path d="M9.30354839,30.1252258 L7.74741935,32.998129" id="Stroke-35"></path>
                <path d="M12.3869677,30.1252258 L10.8308387,32.998129" id="Stroke-37"></path>
                <path d="M15.4703871,30.1252258 L13.9142581,32.998129" id="Stroke-39"></path>
                <path d="M18.5538065,30.1252258 L16.9976774,32.998129" id="Stroke-41"></path>
                <path d="M21.6372258,30.1252258 L20.0810968,32.998129" id="Stroke-43"></path>
                <path d="M24.7206452,30.1252258 L23.1645161,32.998129" id="Stroke-45"></path>
                <path d="M27.8040645,30.1252258 L26.2479355,32.998129" id="Stroke-47"></path>
                <path d="M30.8874839,30.1252258 L29.3313548,32.998129" id="Stroke-49"></path>
                <path d="M33.9709032,30.1252258 L32.4147742,32.998129" id="Stroke-51"></path>
                <path d="M26.0531613,22.9993548 C26.0531613,25.6709677 23.8886452,27.8348387 21.2176774,27.8348387 C18.5467097,27.8348387 16.3821935,25.6709677 16.3821935,22.9993548 C16.3821935,20.3283871 18.5467097,18.163871 21.2176774,18.163871 C23.8886452,18.163871 26.0531613,20.3283871 26.0531613,22.9993548 Z" id="Stroke-98"></path>
                <path d="M28.0680645,22.9993548 C28.0680645,19.2174194 25.0009677,16.1509677 21.2190323,16.1509677 C17.4364516,16.1509677 14.37,19.2174194 14.37,22.9993548 C13.1351613,22.9993548 13.0835484,21.4270968 13.0835484,19.5690323 L13.0835484,14.276129 L21.2190323,14.276129 L21.2190323,16.1509677" id="Stroke-100"></path>
                <path d="M24.0925161,22.9993548 C24.0925161,24.5870968 22.8054194,25.8741935 21.2176774,25.8741935 C19.6292903,25.8741935 18.3421935,24.5870968 18.3421935,22.9993548 C18.3421935,21.4116129 19.6292903,20.123871 21.2176774,20.123871 C22.8054194,20.123871 24.0925161,21.4116129 24.0925161,22.9993548 Z" id="Stroke-102"></path>
                <path d="M14.8214839,1.2043871 L14.8214839,14.2772903" id="Stroke-104"></path>
                <path d="M19.6249032,0.727419355 L19.6249032,14.2764516" id="Stroke-106"></path>
            </g>
        </g>
    </g>
</svg>