<?xml version="1.0" encoding="UTF-8"?>
<svg width="42px" height="42px" viewBox="0 0 42 42" version="1.1" xmlns="http://www.w3.org/2000/svg" xmlns:xlink="http://www.w3.org/1999/xlink">
    <!-- Generator: Sketch 47.1 (45422) - http://www.bohemiancoding.com/sketch -->
    <title>Group 26</title>
    <desc>Created with Sketch.</desc>
    <defs></defs>
    <g id="main" stroke="none" stroke-width="1" fill="none" fill-rule="evenodd" stroke-linecap="round" stroke-linejoin="round">
        <g id="catalog_residential_2" transform="translate(-289.000000, -491.000000)" stroke="#4F5053" stroke-width="1.2">
            <g id="Group-26" transform="translate(290.000000, 492.000000)">
                <path d="M40,19.9993421 C40,31.0456893 31.0461311,40 20.0003289,40 C8.95518461,40 0,31.0456893 0,19.9993421 C0,8.95365284 8.95518461,0 20.0003289,0 C31.0461311,0 40,8.95365284 40,19.9993421 Z" id="Stroke-27"></path>
                <path d="M14.3654024,30.6083871 C14.2998286,30.6083871 14.2342548,30.5922581 14.1752384,30.5554839 C14.0211401,30.4625806 13.958845,30.2722581 14.0283532,30.1096774 L18.1299925,20.5245161 L14.3660581,20.5245161 C14.2395007,20.5245161 14.121468,20.4606452 14.0545827,20.3529032 C13.9883532,20.2470968 13.9817958,20.1141935 14.0381893,20.003871 L19.5293368,9.19870968 C19.5916319,9.07677419 19.7181893,9 19.8565499,9 L25.7142548,9 C25.8473696,9 25.9699925,9.07096774 26.0342548,9.18645161 C26.0991729,9.30193548 26.0945827,9.44129032 26.0231073,9.55225806 L21.7417958,16.2025806 L26.0795007,16.2025806 C26.2224516,16.2025806 26.3509761,16.283871 26.411304,16.4109677 C26.4716319,16.5374194 26.4519598,16.6877419 26.3595007,16.7948387 L14.6460581,30.4812903 C14.573927,30.5651613 14.4709761,30.6083871 14.3654024,30.6083871" id="Stroke-58"></path>
            </g>
        </g>
    </g>
</svg>