<?xml version="1.0" encoding="UTF-8"?>
<svg width="42px" height="42px" viewBox="0 0 42 42" version="1.1" xmlns="http://www.w3.org/2000/svg" xmlns:xlink="http://www.w3.org/1999/xlink">
    <!-- Generator: Sketch 47.1 (45422) - http://www.bohemiancoding.com/sketch -->
    <title>Group 28</title>
    <desc>Created with Sketch.</desc>
    <defs></defs>
    <g id="main" stroke="none" stroke-width="1" fill="none" fill-rule="evenodd" stroke-linecap="round" stroke-linejoin="round">
        <g id="catalog_residential_2" transform="translate(-389.000000, -541.000000)" stroke="#4F5053" stroke-width="1.2">
            <g id="Group-28" transform="translate(390.000000, 542.000000)">
                <path d="M39.4538065,19.9285161 C39.4538065,30.7614194 30.6725161,39.5427097 19.8396129,39.5427097 C9.00670968,39.5427097 0.224774194,30.7614194 0.224774194,19.9285161 C0.224774194,9.0956129 9.00670968,0.314967742 19.8396129,0.314967742 C30.6725161,0.314967742 39.4538065,9.0956129 39.4538065,19.9285161 Z" id="Stroke-64"></path>
                <path d="M19.8038065,8.51974194 L19.7689677,8.40232258 L19.3044516,9.99845161 C18.6586452,12.2139355 15.9902581,13.0887742 14.158,11.6868387 L12.8373548,10.6778065 L13.3992903,12.2423226 C14.1792903,14.4126452 12.5354194,16.6894194 10.2289677,16.6326452 L8.56767742,16.5926452 L9.94187097,17.5268387 C11.8483226,18.8261935 11.8573548,21.6332903 9.95735484,22.9429677 L8.58896774,23.8861935 L10.2502581,23.8352258 C12.5567097,23.7649032 14.214129,26.0332903 13.4470323,28.2087742 L12.8947742,29.7752258 L14.2089677,28.7578065 C16.0321935,27.3461935 18.7063871,28.2061935 19.3644516,30.415871 L19.8038065,31.892" id="Stroke-68"></path>
                <path d="M27.4969032,14.0905806 L24.4994839,17.1047742" id="Stroke-70"></path>
                <polyline id="Stroke-72" points="27.782 16.3858065 25.7910323 15.8058065 25.2103871 13.8148387"></polyline>
                <path d="M29.5086452,20.1125161 L25.2583226,20.1260645" id="Stroke-74"></path>
                <polyline id="Stroke-76" points="28.0876129 21.9377419 27.0901935 20.1196774 28.0876129 18.3003226"></polyline>
                <path d="M27.5092258,26.1338065 L24.4956774,23.1370323" id="Stroke-78"></path>
                <polyline id="Stroke-80" points="25.2145806 26.4198065 25.7945806 24.4281935 27.7861935 23.8488387"></polyline>
                <path d="M19.8390968,0.314129032 L19.8390968,2.89477419" id="Stroke-82"></path>
                <path d="M19.8390968,5.42503226 L19.8390968,10.7385806" id="Stroke-84" stroke-dasharray="6.275,3.922"></path>
                <path d="M19.8390968,12.0032258 L19.8390968,14.583871" id="Stroke-86"></path>
                <path d="M19.8390968,25.2731613 L19.8390968,27.8538065" id="Stroke-88"></path>
                <path d="M19.8390968,30.2706452 L19.8390968,35.346129" id="Stroke-90" stroke-dasharray="5.994,3.746"></path>
                <path d="M19.8390968,36.5546452 L19.8390968,39.1352903" id="Stroke-92"></path>
                <path d="M19.8038065,25.2731613 C16.8528387,25.2731613 14.4599355,22.8802581 14.4599355,19.9286452 C14.4599355,16.9776774 16.8528387,14.5854194 19.8038065,14.5854194" id="Stroke-94"></path>
                <path d="M19.8038065,25.2731613 C22.7554194,25.2731613 25.1483226,22.8802581 25.1483226,19.9286452 C25.1483226,16.9776774 22.7554194,14.5854194 19.8038065,14.5854194" id="Stroke-96"></path>
            </g>
        </g>
    </g>
</svg>