<?xml version="1.0" encoding="UTF-8"?>
<svg width="42px" height="20px" viewBox="0 0 42 20" version="1.1" xmlns="http://www.w3.org/2000/svg" xmlns:xlink="http://www.w3.org/1999/xlink">
   <path d="M40.8194348,10.6425455 C40.9983913,10.4643636 41.0860435,10.2316364 41.0860435,9.99890909 C41.0860435,9.768 40.9983913,9.53527273 40.8194348,9.35709091 L31.689,0.266181818 C31.332913,-0.0883636364 30.7540435,-0.0883636364 30.3979565,0.266181818 C30.0418696,0.620727273 30.0418696,1.19709091 30.3979565,1.55163636 L37.968913,9.08981818 L0.912130435,9.08981818 C0.408130435,9.08981818 -0.000913043478,9.49709091 -0.000913043478,9.99890909 C-0.000913043478,10.5025455 0.408130435,10.908 0.912130435,10.908 L37.968913,10.908 L30.3979565,18.448 C30.0418696,18.8025455 30.0418696,19.3789091 30.3979565,19.7334545 C30.7540435,20.088 31.332913,20.088 31.689,19.7334545 L40.8194348,10.6425455 Z"  mask="url(#mask-2)"></path>
</svg>


