<?xml version="1.0" encoding="UTF-8"?><!DOCTYPE svg PUBLIC "-//W3C//DTD SVG 1.1//EN" "http://www.w3.org/Graphics/SVG/1.1/DTD/svg11.dtd"><svg xmlns="http://www.w3.org/2000/svg" xmlns:xlink="http://www.w3.org/1999/xlink"><defs><path id="a" d="M2.244 6.596H.127V.204h2.117v6.392z"/><path id="a" d="M12.313 11.995V0H0v11.995h12.313z"/></defs><symbol id="arrow-next" viewBox="0 0 42 20"><path d="M40.82 10.643a.903.903 0 0 0 .266-.644.902.902 0 0 0-.267-.642L31.69.267a.916.916 0 0 0-1.291 0 .907.907 0 0 0 0 1.285l7.57 7.538H.913A.911.911 0 0 0 0 9.999c0 .504.41.909.913.909H37.97l-7.571 7.54a.907.907 0 0 0 0 1.285.916.916 0 0 0 1.291 0l9.13-9.09z"/></symbol><symbol id="arrow-prev" viewBox="0 0 23 11"><path d="M.146 5.146a.5.5 0 0 0 0 .707l5 5a.5.5 0 0 0 .708-.707L1.707 6H22a.5.5 0 1 0 0-1H1.707L5.854.853a.5.5 0 1 0-.708-.707l-5 5z"/></symbol><symbol id="fb" viewBox="0 0 7 10"><path d="M1.538 10l-.023-4.67H0V3.809h1.515V2.7c0-1.574.845-2.7 2.7-2.7h1.928v1.854h-1.54c-.723 0-.77.27-.77.772l-.003 1.18h2.324L6.142 5.33H3.83L3.846 10H1.538z" fill="#FFF" fill-rule="evenodd"/></symbol><symbol id="icon-burger" viewBox="0 0 24 20"><g fill="#393939" fill-rule="evenodd"><rect width="24" height="2" rx="1"/><rect y="9" width="24" height="2" rx="1"/><rect y="18" width="24" height="2" rx="1"/></g></symbol><symbol id="icon-download" viewBox="0 0 17 23"><path d="M1.5 18.5V22H16v-3.5m-3.008-7L8.75 15.742 4.508 11.5m4.242-10v14" stroke="currentColor" stroke-width="2" fill="none" fill-rule="evenodd" stroke-linecap="round" stroke-linejoin="round"/></symbol><symbol id="icon-fav-active-white" viewBox="0 0 18 26"><g stroke="#FFF" fill="#FFF" fill-rule="evenodd"><path d="M2.195 24.715l6.793-6.922 6.85 6.997a.472.472 0 0 0 .537.162.499.499 0 0 0 .324-.472V1.5c0-.276-.216-.5-.482-.5H1.759a.491.491 0 0 0-.482.5v22.98a.491.491 0 0 0 .482.52.483.483 0 0 0 .436-.285z"/><path d="M2.241 2h13.494v21.042l-6.368-6.365a.477.477 0 0 0-.379-.19.477.477 0 0 0-.379.19l-6.368 6.365V1.999z"/></g></symbol><symbol id="icon-fav-active" viewBox="0 0 26 36"><path d="M13 24.19l10.66 10.495a.751.751 0 0 0 1.34-.464V1H1v33.22c0 .444.336.78.75.78a.754.754 0 0 0 .678-.427L13 24.19z" stroke="#FE1F3F" stroke-width="2" fill="#FE1F3F" fill-rule="evenodd"/></symbol><symbol id="icon-fav" viewBox="0 0 18 26"><path d="M2 2h14v21.042l-6.607-6.365a.502.502 0 0 0-.786 0L2 23.042V1.999zm-.048 22.715L9 17.793l7.107 6.997a.5.5 0 0 0 .893-.31V1.5a.5.5 0 0 0-.5-.5h-15a.5.5 0 0 0-.5.5v22.98a.5.5 0 0 0 .952.235z" fill-rule="evenodd"/></symbol><symbol id="icon-search-red" viewBox="0 0 26 26"><path d="M1.8 9.4c0-4.19 3.41-7.6 7.6-7.6 4.19 0 7.6 3.41 7.6 7.6 0 4.19-3.41 7.6-7.6 7.6-4.19 0-7.6-3.41-7.6-7.6m23.082 14.917l-9.276-9.276A8.36 8.36 0 0 0 17.8 9.4c0-4.632-3.768-8.4-8.4-8.4C4.768 1 1 4.768 1 9.4c0 4.632 3.768 8.4 8.4 8.4a8.356 8.356 0 0 0 5.64-2.194l9.277 9.277a.402.402 0 0 0 .565 0 .4.4 0 0 0 0-.566" stroke="#F00" fill="none"/></symbol><symbol id="icon-search" viewBox="0 0 26 26"><path d="M1.8 9.4c0-4.19 3.41-7.6 7.6-7.6 4.19 0 7.6 3.41 7.6 7.6 0 4.19-3.41 7.6-7.6 7.6-4.19 0-7.6-3.41-7.6-7.6m23.082 14.917l-9.276-9.276A8.36 8.36 0 0 0 17.8 9.4c0-4.632-3.768-8.4-8.4-8.4C4.768 1 1 4.768 1 9.4c0 4.632 3.768 8.4 8.4 8.4a8.356 8.356 0 0 0 5.64-2.194l9.277 9.277a.402.402 0 0 0 .565 0 .4.4 0 0 0 0-.566" stroke="#393939"/></symbol><symbol id="in" viewBox="0 0 10 10"><g fill="none" fill-rule="evenodd"><path d="M5.55 3.959c.125-.147.236-.29.36-.421.321-.336.722-.52 1.178-.579.444-.058.88-.022 1.303.135.498.184.872.514 1.127.977.3.544.386 1.137.388 1.747.002 1.19 0 2.382 0 3.572l-.003.076H7.782v-.108c-.001-1.14 0-2.28-.005-3.418a1.814 1.814 0 0 0-.17-.803c-.185-.377-.532-.543-.946-.524a1.076 1.076 0 0 0-.753.33c-.203.21-.338.456-.35.755a7.035 7.035 0 0 0-.008.293v3.473H3.432v-6.38h.085c.647 0 1.294 0 1.94-.003.076 0 .096.022.095.096-.005.232-.002.465-.002.698v.084z" fill="#FFF"/><g transform="translate(0 2.877)"><mask id="b" fill="#fff"><use xlink:href="#a"/></mask><path d="M2.244.21v6.384H2.16c-.647 0-1.293-.001-1.94.002-.076 0-.094-.023-.094-.096.002-2.067.002-4.133 0-6.2C.126.227.143.204.22.204c.646.003 1.293.002 1.94.002.026 0 .052.003.083.004" fill="#FFF" mask="url(#b)"/></g><path d="M1.18 2.212C.761 2.203.404 2.066.17 1.699-.182 1.146.01.3.77.072c.406-.121.804-.1 1.16.145.364.25.5.618.446 1.047-.053.427-.298.72-.703.862-.156.055-.325.072-.488.106a.55.55 0 0 0-.005-.02" fill="#FFF"/></g></symbol><symbol id="instagram" viewBox="0 0 12 13"><g fill="#FFF" fill-rule="evenodd"><path d="M5.998.024C4.37.024 4.165.031 3.525.06 2.887.09 2.451.192 2.07.342a2.938 2.938 0 0 0-1.062.698 2.97 2.97 0 0 0-.692 1.072c-.148.385-.25.825-.279 1.47-.03.645-.036.85-.036 2.495 0 1.644.007 1.85.036 2.495.03.645.13 1.085.279 1.47.153.398.358.735.692 1.072.333.336.668.543 1.062.698.382.15.818.252 1.456.281.64.03.844.037 2.473.037 1.63 0 1.833-.007 2.473-.037.639-.03 1.075-.132 1.456-.281a2.938 2.938 0 0 0 1.062-.698 2.97 2.97 0 0 0 .692-1.072c.149-.385.25-.825.28-1.47.028-.645.035-.851.035-2.495 0-1.644-.007-1.85-.036-2.496-.029-.644-.13-1.084-.279-1.469a2.97 2.97 0 0 0-.692-1.072A2.938 2.938 0 0 0 9.927.342C9.546.192 9.11.09 8.471.06 7.831.031 7.627.024 5.998.024m0 1.09c1.602 0 1.791.007 2.424.036.585.027.902.125 1.114.208.28.11.48.241.69.453.21.212.34.414.448.696.082.213.18.534.207 1.124.028.638.034.83.034 2.446s-.006 1.807-.034 2.446c-.027.59-.125.91-.207 1.124a1.877 1.877 0 0 1-.449.695 1.86 1.86 0 0 1-.69.453c-.21.083-.528.182-1.113.209-.633.029-.822.035-2.424.035-1.602 0-1.791-.006-2.424-.035-.584-.027-.902-.126-1.113-.209-.28-.11-.48-.24-.69-.453a1.877 1.877 0 0 1-.449-.695c-.082-.214-.18-.534-.206-1.124-.03-.639-.035-.83-.035-2.446s.006-1.808.035-2.446c.026-.59.124-.91.206-1.124.109-.282.239-.484.449-.696.21-.212.41-.343.69-.453.21-.083.529-.181 1.113-.208.633-.03.823-.035 2.424-.035"/><path d="M5.998 8.094c-1.104 0-2-.903-2-2.017 0-1.115.896-2.018 2-2.018s2 .903 2 2.018a2.009 2.009 0 0 1-2 2.017m0-5.125c-1.701 0-3.08 1.391-3.08 3.108 0 1.716 1.379 3.108 3.08 3.108s3.08-1.392 3.08-3.108c0-1.717-1.379-3.108-3.08-3.108m3.922-.123a.723.723 0 0 1-.72.726.723.723 0 0 1-.72-.726c0-.401.322-.727.72-.727.397 0 .72.326.72.727"/></g></symbol><symbol id="ok" viewBox="0 0 8 12"><path d="M3.666 6.193c1.803 0 3.265-1.388 3.265-3.096C6.931 1.39 5.467 0 3.665 0S.4 1.39.4 3.097c0 1.708 1.464 3.096 3.266 3.096zm0-4.378c.746 0 1.352.575 1.352 1.282 0 .707-.608 1.282-1.353 1.282s-1.352-.576-1.352-1.282c0-.707.607-1.282 1.352-1.282zm3.518 4.908a.986.986 0 0 0-1.318-.286 4.347 4.347 0 0 1-4.4 0 .986.986 0 0 0-1.319.286.88.88 0 0 0 .3 1.251 6.3 6.3 0 0 0 1.897.747L.519 10.452a.873.873 0 0 0 0 1.283.981.981 0 0 0 .676.265.99.99 0 0 0 .678-.266l1.793-1.701 1.795 1.7a.993.993 0 0 0 1.353 0 .874.874 0 0 0 0-1.283L4.987 8.72a6.297 6.297 0 0 0 1.897-.747.878.878 0 0 0 .3-1.25z" fill="#FFF" fill-rule="evenodd"/></symbol><symbol id="telegram" viewBox="0 0 13 12"><g fill="none" fill-rule="evenodd"><mask id="b" fill="#fff"><use xlink:href="#a"/></mask><path d="M4.565 11.167c.04-.048.072-.078.096-.112.09-.132.182-.264.268-.399.183-.286.366-.573.541-.864.115-.193.083-.31-.1-.44a.907.907 0 0 0-.101-.063c-.4-.211-.8-.422-1.2-.63a.647.647 0 0 0-.157-.058c-.167-.037-.284.044-.283.215.002.125.018.26.067.373.28.654.57 1.303.869 1.978zm4.982-8.598l.025.028c-.082.096-.162.194-.248.286L5.14 7.364a2.06 2.06 0 0 0-.142.164c-.212.281-.139.605.172.766.092.048.186.094.282.133l2.517 1.01c.378.153.754.31 1.14.468.018-.053.035-.097.047-.142.762-2.795 1.524-5.59 2.282-8.385.03-.11.041-.23.033-.343-.011-.145-.13-.23-.273-.2-.104.021-.21.056-.304.106a8997.594 8997.594 0 0 0-9.73 5.101 1.03 1.03 0 0 0-.242.174c-.13.128-.12.292.023.406.073.06.16.107.248.143.396.161.79.33 1.194.471.53.185 1.042.118 1.488-.228 1.038-.806 2.065-1.626 3.098-2.44.805-.634 1.612-1.268 2.419-1.9.048-.039.103-.067.155-.1zm2.766-1.286c-.216.807-.43 1.614-.649 2.42A3065.09 3065.09 0 0 1 9.997 9.83a2.31 2.31 0 0 1-.195.514c-.213.382-.647.492-1.05.32-.777-.332-1.56-.645-2.342-.965-.01-.005-.023-.004-.044-.008-.008.03-.013.06-.022.088-.044.129-.066.27-.136.382-.311.5-.62 1-.96 1.48-.419.59-1.223.381-1.457-.174-.29-.686-.61-1.358-.89-2.047-.17-.418-.167-.846.106-1.251-.132-.01-.259-.006-.38-.03a3.65 3.65 0 0 1-.579-.148c-.449-.17-.896-.345-1.335-.54C.347 7.288.101 7.008.02 6.6.017 6.59.007 6.582 0 6.573V6.26c.02-.064.038-.13.06-.193.127-.374.41-.6.745-.775L10.488.22a2.25 2.25 0 0 1 .397-.165c.528-.158 1.03.038 1.286.503.065.12.095.259.142.39v.336z" fill="#FFF" mask="url(#b)"/></g></symbol><symbol id="twitter" viewBox="0 0 13 10"><path d="M12.298 1.187a5.002 5.002 0 0 1-1.45.398c.527-.315.922-.81 1.11-1.396a5.06 5.06 0 0 1-1.601.613 2.522 2.522 0 0 0-4.3 2.3A7.163 7.163 0 0 1 .857.467a2.522 2.522 0 0 0 .78 3.37 2.522 2.522 0 0 1-1.143-.315v.031c0 1.2.845 2.235 2.022 2.474-.371.1-.76.115-1.138.043a2.526 2.526 0 0 0 2.357 1.753A5.064 5.064 0 0 1 0 8.865 7.143 7.143 0 0 0 3.868 10c4.64 0 7.179-3.846 7.179-7.18 0-.109-.003-.218-.009-.327a5.088 5.088 0 0 0 1.26-1.305" fill="#FFF" fill-rule="evenodd"/></symbol><symbol id="vk" viewBox="0 0 10 10"><path d="M8.467 5.325c-.418-.409-.712-.676-1.427-.807v-.053c.507-.206.902-.493 1.178-.863.277-.37.425-.82.418-1.28a2.05 2.05 0 0 0-.305-1.112c-.203-.322-.51-.582-.924-.773a4.21 4.21 0 0 0-1.21-.356C5.79.025 4.877 0 4 0H0v10h4.527c.79 0 1.443-.062 1.958-.188A4.312 4.312 0 0 0 7.9 9.18c.37-.253.662-.566.873-.95a2.61 2.61 0 0 0 .318-1.296c0-.666-.21-1.202-.625-1.61h.001zM2.731 1.99H3.94c.424 0 .773.046 1.045.14.315.134.473.408.473.823 0 .375-.118.636-.358.784-.24.146-.55.22-.935.22H2.731V1.99zm2.525 5.866c-.213.104-.51.157-.893.157H2.73v-2.38h1.66c.38.005.675.055.885.153.375.172.563.492.563.956 0 .549-.195.92-.582 1.114z" fill="#FFF" fill-rule="evenodd"/></symbol></svg>